<svg xmlns="http://www.w3.org/2000/svg" xmlns:xlink="http://www.w3.org/1999/xlink" viewBox="0 0 595.62 595.28"><defs><style>.cls-1{isolation:isolate;}.cls-2{fill:#4d6bac;}.cls-3{fill:url(#linear-gradient);}.cls-4{fill:url(#linear-gradient-2);}.cls-5{fill:url(#linear-gradient-3);}.cls-6{mix-blend-mode:color-dodge;fill:url(#linear-gradient-4);}.cls-7{fill:#36588e;}.cls-10,.cls-8{fill:none;stroke-miterlimit:10;}.cls-8{stroke:#fff;stroke-width:0.8px;}.cls-9{fill:#fff;}.cls-10{stroke:#4d6bac;stroke-width:6px;}</style><linearGradient id="linear-gradient" x1="122.05" y1="100.47" x2="467.65" y2="487.26" gradientUnits="userSpaceOnUse"><stop offset="0" stop-color="#9c7748"/><stop offset="0.06" stop-color="#a27e4b"/><stop offset="0.15" stop-color="#b19153"/><stop offset="0.25" stop-color="#cab05f"/><stop offset="0.33" stop-color="#e1cc6b"/><stop offset="0.52" stop-color="#e6d68c"/><stop offset="0.66" stop-color="#e1cc6b"/><stop offset="1" stop-color="#9c7748"/></linearGradient><linearGradient id="linear-gradient-2" x1="206.79" y1="385.3" x2="580.7" y2="11.39" gradientUnits="userSpaceOnUse"><stop offset="0" stop-color="#252a38"/><stop offset="0.21" stop-color="#282e3d"/><stop offset="0.47" stop-color="#2f394c"/><stop offset="0.76" stop-color="#3c4b65"/><stop offset="1" stop-color="#4a5f80"/></linearGradient><linearGradient id="linear-gradient-3" x1="73.75" y1="295.65" x2="519.15" y2="295.65" xlink:href="#linear-gradient"/><linearGradient id="linear-gradient-4" x1="443.2" y1="304.83" x2="128.23" y2="271.17" gradientUnits="userSpaceOnUse"><stop offset="0" stop-color="#a6a6a6"/><stop offset="0.05" stop-color="#8d8d8d"/><stop offset="0.14" stop-color="#686868"/><stop offset="0.23" stop-color="#484848"/><stop offset="0.33" stop-color="#2f2f2f"/><stop offset="0.44" stop-color="#1b1b1b"/><stop offset="0.57" stop-color="#0d0d0d"/><stop offset="0.73" stop-color="#040404"/><stop offset="1" stop-color="#020202"/></linearGradient></defs><g class="cls-1"><g id="Layer_1" data-name="Layer 1"><path class="cls-2" d="M29.64,323c7.21-15.08,7.21-39.74,0-54.79s-2.86-36.56,9.66-47.79,22.1-34,21.31-50.63S72.19,135,88.12,129.33s33.62-23.08,39.34-38.75,24.27-27.84,41.18-27.07,40-8.65,51.44-21S253.31,26,268.61,33s40.36,7.08,55.68,0,37.15-2.8,48.53,9.5,34.55,21.75,51.42,21,35.43,11.41,41.19,27.07,23.44,33.1,39.37,38.75,28.27,23.87,27.46,40.5,8.82,39.42,21.31,50.63,16.86,32.72,9.66,47.79S556,308,563.23,323s2.85,36.58-9.66,47.79-22.1,34-21.31,50.63S520.67,456.3,504.8,462s-33.66,23.09-39.37,38.74-24.28,27.85-41.19,27.08-40,8.65-51.42,21-33.25,16.59-48.53,9.51-40.39-7.08-55.68,0-37.15,2.8-48.53-9.51-34.53-21.74-51.44-21-35.43-11.41-41.18-27.08S104,467.61,88.12,462s-28.31-23.88-27.51-40.5S51.81,382,39.3,370.83,22.45,338.11,29.64,323Z"/><path class="cls-3" d="M533.87,295.65c0,129.07-106.28,233.72-237.4,233.72S59,424.72,59,295.65,165.29,61.93,296.47,61.93,533.87,166.58,533.87,295.65Z"/><path class="cls-4" d="M506.69,295.65c0,114.29-94.12,207-210.22,207s-210.29-92.67-210.29-207,94.12-207,210.29-207S506.69,181.35,506.69,295.65Z"/><path class="cls-5" d="M296.47,81.09c120.18,0,217.95,96.25,217.95,214.56S416.65,510.21,296.47,510.21s-218-96.24-218-214.56,97.79-214.56,218-214.56m0-4.64c-123,0-222.72,98.14-222.72,219.2s99.7,219.21,222.72,219.21S519.15,416.7,519.15,295.65,419.44,76.45,296.47,76.45Z"/><path class="cls-6" d="M198.54,471.34A2281.84,2281.84,0,0,1,403.7,126.26,204.66,204.66,0,0,0,299.63,98C187.42,98,96.49,187.54,96.49,298,96.49,372.13,137.57,436.83,198.54,471.34Z"/><ellipse class="cls-7" cx="297.33" cy="296.85" rx="209.36" ry="207.99"/><ellipse class="cls-8" cx="296.23" cy="295.93" rx="203.12" ry="201.12"/><path class="cls-9" d="M413.87,168.39a7.07,7.07,0,0,1,8.29-4.48,6.66,6.66,0,0,1,2.53,1.76c1.23,1.33,1,2.08,2.3,3.31.46.44,1.63,1.56,2.78,1.28a2,2,0,0,0,1.35-1.14c.7-3.65,7-5.58,7.88-4.76s-.89,8.08-4.28,8.72a2,2,0,0,0-1.1,1.25,3.63,3.63,0,0,0,.79,2.92c1.11,1.49,2.24,1.15,3.47,2.68a5.85,5.85,0,0,1,1.05,2,8,8,0,0,1-.95,6.27,6.48,6.48,0,0,1-2.24,2.27c-2.78,1.58-7,.77-8.5-1.87-.8-1.42-1-3.65-.06-4.62a1.1,1.1,0,0,1,.81-.41c.54,0,.72.79,1.48,1.86a5,5,0,0,0,1.72,1.79,3,3,0,0,0,2.56.18,3.06,3.06,0,0,0,1.49-1.46,4,4,0,0,0-.08-3.26c-1-2.12-3.9-2.56-5.54-2.45a7.43,7.43,0,0,0-6.31,4.54c-1.17,3.1.73,6-.09,6.48-.47.27-1.41-.47-5.4-5-4.42-5.06-5-6.1-4.67-6.56.54-.83,2.83,1.17,5.88.32a7.78,7.78,0,0,0,5.27-5.9,6.58,6.58,0,0,0-.8-4.72,3.86,3.86,0,0,0-2.4-1.78,2.88,2.88,0,0,0-2.2.46,3.17,3.17,0,0,0-1.16,1.79,3.87,3.87,0,0,0,1.47,3.88,2.68,2.68,0,0,1,1,.82c0,.07.49.73.3,1.19-.28.67-1.81.67-2.86.38a5.67,5.67,0,0,1-3.18-2.67A6.69,6.69,0,0,1,413.87,168.39Z"/><path class="cls-9" d="M373.09,140.39a6.6,6.6,0,0,1,2.33-4.28,6.46,6.46,0,0,1,4.95-1.84,6.34,6.34,0,0,1,2.81,1.19c1.46,1,1.39,1.82,2.88,2.76.54.34,1.9,1.19,3,.68a2,2,0,0,0,1.11-1.41c0-3.72,5.81-6.93,6.82-6.3s.66,8.1-2.54,9.43a2,2,0,0,0-.84,1.46c-.18,1.33,1.14,2.53,1.32,2.7,1.38,1.22,2.42.65,3.92,1.89a5.77,5.77,0,0,1,1.42,1.8,8.07,8.07,0,0,1,.26,6.34,6.77,6.77,0,0,1-1.77,2.69c-2.42,2.13-6.72,2.22-8.68-.05-1.06-1.22-1.64-3.38-.94-4.52.08-.12.33-.53.71-.57.55-.07.86.62,1.81,1.52a5,5,0,0,0,2,1.39,3,3,0,0,0,2.54-.36,3.12,3.12,0,0,0,1.18-1.74,4,4,0,0,0-.7-3.18c-1.39-1.86-4.3-1.7-5.89-1.24a7.62,7.62,0,0,0-5.32,5.76c-.56,3.29,1.85,5.74,1.14,6.38-.4.36-1.47-.17-6.25-3.81-5.29-4-6-4.93-5.81-5.45.37-.93,3,.56,5.82-.92a8,8,0,0,0,4-6.88,6.5,6.5,0,0,0-1.69-4.45,3.68,3.68,0,0,0-2.68-1.25A2.94,2.94,0,0,0,378,139a3.15,3.15,0,0,0-.79,2,3.79,3.79,0,0,0,2.17,3.5,2.54,2.54,0,0,1,1.15.58c.07.06.62.62.52,1.11-.14.71-1.64,1-2.72,1a5.43,5.43,0,0,1-3.62-2A6.57,6.57,0,0,1,373.09,140.39Z"/><path class="cls-9" d="M327.07,127.62a7.58,7.58,0,0,1,4.13-8.77,6.06,6.06,0,0,1,3-.16c1.73.29,2,1,3.72,1.22.62.07,2.19.24,3-.7a2.12,2.12,0,0,0,.44-1.77c-1.51-3.37,2.47-8.86,3.65-8.74s3.85,7.06,1.49,9.68a2.13,2.13,0,0,0-.18,1.7c.38,1.28,2.05,1.79,2.29,1.86,1.73.49,2.45-.48,4.31,0a5.33,5.33,0,0,1,2,1,7.84,7.84,0,0,1,2.78,5.63,6.84,6.84,0,0,1-.52,3.22c-1.33,3-5.2,5-7.89,3.8-1.45-.64-2.84-2.33-2.67-3.67a1.2,1.2,0,0,1,.42-.84c.47-.3,1,.18,2.25.58a4.8,4.8,0,0,0,2.4.36,3.14,3.14,0,0,0,2.16-1.45,3.32,3.32,0,0,0,.37-2.11,3.83,3.83,0,0,0-1.91-2.57c-2-1.07-4.59.37-5.85,1.49a8,8,0,0,0-2.5,7.58c.82,3.23,4,4.38,3.6,5.27-.22.51-1.4.5-7.2-.68-6.42-1.31-7.44-1.8-7.46-2.37,0-1,2.93-.81,4.9-3.4a8.21,8.21,0,0,0,.9-8,6.17,6.17,0,0,0-3.32-3.3,3.67,3.67,0,0,0-2.93.06,3.13,3.13,0,0,0-1.51,1.75,3.28,3.28,0,0,0,.08,2.16,3.6,3.6,0,0,0,3.38,2.21,2.42,2.42,0,0,1,1.28,0c.09,0,.81.28.92.77.15.71-1.08,1.67-2.08,2.09a5.29,5.29,0,0,1-4.07-.17A6.28,6.28,0,0,1,327.07,127.62Z"/><path class="cls-9" d="M278.78,126a6.89,6.89,0,0,1-.7-4.88,7.1,7.1,0,0,1,2.81-4.65,6.2,6.2,0,0,1,2.92-.88c1.76-.13,2.16.53,3.89.3.62-.09,2.19-.3,2.73-1.4a2.07,2.07,0,0,0,0-1.82c-2.19-2.92.49-9.21,1.66-9.38s5.28,6,3.55,9.07a2.11,2.11,0,0,0,.2,1.69c.65,1.16,2.38,1.25,2.63,1.26,1.8.07,2.28-1,4.19-1a5.36,5.36,0,0,1,2.17.5,7.64,7.64,0,0,1,3.94,4.82,6.83,6.83,0,0,1,.19,3.26c-.64,3.24-4,6.1-6.85,5.59-1.55-.28-3.28-1.59-3.4-2.95a1.24,1.24,0,0,1,.22-.91c.39-.41,1-.07,2.32,0a4.66,4.66,0,0,0,2.41-.22,3.08,3.08,0,0,0,1.69-4.06,3.68,3.68,0,0,0-2.42-2c-2.19-.56-4.38,1.46-5.36,2.84a8.09,8.09,0,0,0-.79,8c1.5,2.94,4.83,3.31,4.65,4.27-.11.54-1.25.82-7.16,1.05-6.53.26-7.64,0-7.78-.51-.25-1,2.68-1.5,4-4.49a8.27,8.27,0,0,0-.87-8,6,6,0,0,0-3.95-2.41,3.71,3.71,0,0,0-2.85.76,3.1,3.1,0,0,0-.53,4.15,3.5,3.5,0,0,0,3.76,1.34,2.46,2.46,0,0,1,1.25-.29c.09,0,.86.08,1.06.53.31.66-.68,1.88-1.57,2.53a5.29,5.29,0,0,1-4,.81A6,6,0,0,1,278.78,126Z"/><ellipse class="cls-9" cx="440.65" cy="196.37" rx="2.73" ry="2.86"/><ellipse class="cls-9" cx="407.71" cy="160.77" rx="2.73" ry="2.86"/><ellipse class="cls-9" cx="366.45" cy="134.51" rx="2.73" ry="2.86"/><ellipse class="cls-9" cx="318.58" cy="121.76" rx="2.73" ry="2.86"/><path class="cls-9" d="M442.61,206.63a7,7,0,0,1,9-2.54,6.72,6.72,0,0,1,2.12,2.29c.94,1.56.57,2.25,1.58,3.74.36.53,1.28,1.89,2.46,1.87a1.89,1.89,0,0,0,1.55-.82c1.42-3.41,8-3.9,8.66-2.89s-2.5,7.69-5.94,7.56a2,2,0,0,0-1.33,1c-.67,1.15.07,2.8.18,3,.79,1.7,2,1.62,2.86,3.39a6,6,0,0,1,.61,2.24,8,8,0,0,1-2.19,5.92,6.42,6.42,0,0,1-2.65,1.71c-3,.93-7-.8-7.93-3.71-.5-1.56-.21-3.78.87-4.53a1.09,1.09,0,0,1,.88-.22c.52.16.54.93,1.06,2.15a5.29,5.29,0,0,0,1.33,2.13,3,3,0,0,0,2.46.74,3,3,0,0,0,1.75-1.09,4,4,0,0,0,.58-3.21c-.56-2.29-3.29-3.36-4.92-3.62a7.25,7.25,0,0,0-7.08,3c-1.77,2.78-.5,6-1.4,6.32-.5.16-1.28-.77-4.26-6.12-3.3-5.93-3.62-7.07-3.23-7.45.69-.69,2.52,1.77,5.68,1.62a7.56,7.56,0,0,0,6.33-4.6,6.47,6.47,0,0,0,.17-4.78,3.94,3.94,0,0,0-2-2.28,2.84,2.84,0,0,0-2.24,0,3,3,0,0,0-1.5,1.5,3.92,3.92,0,0,0,.65,4.11,2.75,2.75,0,0,1,.84,1c0,.08.33.82.05,1.23-.41.59-1.91.26-2.87-.26a5.83,5.83,0,0,1-2.57-3.32A6.78,6.78,0,0,1,442.61,206.63Z"/><path class="cls-9" d="M464.81,250.75a6,6,0,0,1,4.55-1.22,6.56,6.56,0,0,1,4.69,2.47,7,7,0,0,1,1.13,3c.3,1.82-.29,2.31.1,4.09.14.64.5,2.26,1.6,2.72a1.84,1.84,0,0,0,1.73-.14c2.55-2.58,8.79-.41,9.06.79s-5.11,6.12-8.24,4.62a1.88,1.88,0,0,0-1.59.37c-1,.8-.95,2.62-.93,2.88.11,1.88,1.22,2.28,1.41,4.27a6.13,6.13,0,0,1-.25,2.32,7.56,7.56,0,0,1-4.18,4.59,6,6,0,0,1-3.07.52c-3.14-.35-6.19-3.54-6-6.6.1-1.64,1.18-3.58,2.45-3.84a1.07,1.07,0,0,1,.89.15c.42.36.17,1.08.2,2.41a5.47,5.47,0,0,0,.46,2.5,3.16,3.16,0,0,0,2,1.68,2.88,2.88,0,0,0,2-.32,3.85,3.85,0,0,0,1.7-2.73c.31-2.34-1.82-4.43-3.23-5.32a7.15,7.15,0,0,0-7.65,0c-2.64,1.86-2.66,5.38-3.59,5.28-.53-.05-.9-1.22-1.71-7.36-.9-6.8-.79-8-.29-8.18.89-.36,1.69,2.65,4.66,3.77a7.3,7.3,0,0,0,7.53-1.71,6.4,6.4,0,0,0,1.9-4.36,4.15,4.15,0,0,0-1-2.9,2.75,2.75,0,0,0-4-.15,3.92,3.92,0,0,0-.9,4.07,2.72,2.72,0,0,1,.4,1.28c0,.09,0,.89-.4,1.16-.59.38-1.85-.53-2.56-1.39a6.06,6.06,0,0,1-1.16-4.1A6.48,6.48,0,0,1,464.81,250.75Z"/><path class="cls-9" d="M469.36,304.33a6,6,0,0,1,4.69.32,6.73,6.73,0,0,1,3.7,3.87,7.07,7.07,0,0,1,.17,3.18c-.27,1.83-1,2.1-1.14,3.92-.06.66-.22,2.31.69,3.1a1.83,1.83,0,0,0,1.68.43c3.2-1.63,8.46,2.46,8.35,3.69s-6.7,4.15-9.21,1.72a1.85,1.85,0,0,0-1.62-.16c-1.23.42-1.7,2.18-1.76,2.43-.47,1.82.47,2.56,0,4.52a6.1,6.1,0,0,1-.94,2.12,7.38,7.38,0,0,1-5.35,3,6.11,6.11,0,0,1-3.08-.5c-2.87-1.35-4.79-5.38-3.67-8.21.6-1.54,2.21-3,3.49-2.86a1.1,1.1,0,0,1,.8.42c.29.49-.17,1.09-.54,2.37a5.66,5.66,0,0,0-.33,2.52,3.29,3.29,0,0,0,1.4,2.24,2.83,2.83,0,0,0,2,.36,3.77,3.77,0,0,0,2.44-2.05c1-2.13-.38-4.8-1.45-6.1a7.19,7.19,0,0,0-7.25-2.51c-3.07.91-4.15,4.25-5,3.86-.49-.23-.49-1.46.6-7.56,1.21-6.75,1.68-7.84,2.22-7.86.95-.06.79,3.06,3.27,5.09a7.24,7.24,0,0,0,7.66.82,6.23,6.23,0,0,0,3.12-3.54,4.15,4.15,0,0,0-.07-3.08,3,3,0,0,0-1.67-1.55,2.88,2.88,0,0,0-2.07.12,3.86,3.86,0,0,0-2.08,3.58,2.75,2.75,0,0,1,0,1.34c0,.09-.27.86-.73,1-.68.18-1.6-1.09-2-2.14a6.1,6.1,0,0,1,.13-4.27A6.4,6.4,0,0,1,469.36,304.33Z"/><path class="cls-9" d="M460.14,351.44a6.07,6.07,0,0,1,4.4,1.74,6.34,6.34,0,0,1,1.82,7.94c-.74,1.68-1.49,1.73-2.14,3.42-.23.61-.82,2.15-.17,3.19a1.92,1.92,0,0,0,1.5.93c3.5-.6,7.43,4.93,7,6.08s-7.52,1.95-9.28-1.16a1.9,1.9,0,0,0-1.5-.64c-1.28,0-2.21,1.58-2.33,1.8-.94,1.61-.24,2.6-1.17,4.35a5.73,5.73,0,0,1-1.47,1.75,7.09,7.09,0,0,1-5.93,1.27,6.2,6.2,0,0,1-2.8-1.42c-2.39-2.17-3.15-6.62-1.32-9,1-1.29,2.92-2.23,4.1-1.68a1.13,1.13,0,0,1,.66.65c.15.55-.45,1-1.15,2.1a5.39,5.39,0,0,0-1,2.33,3.44,3.44,0,0,0,.74,2.57,2.94,2.94,0,0,0,1.82,1,3.57,3.57,0,0,0,2.88-1.23c1.54-1.73.92-4.72.25-6.3a7.44,7.44,0,0,0-6.26-4.61c-3.19-.06-5.11,2.82-5.82,2.18-.41-.36-.08-1.54,2.6-7.07,3-6.12,3.7-7,4.22-6.88.93.24-.06,3.18,1.77,5.89a7.41,7.41,0,0,0,7.11,3.11,5.92,5.92,0,0,0,3.93-2.45,4.12,4.12,0,0,0,.75-3,3.2,3.2,0,0,0-1.18-2,2.87,2.87,0,0,0-2-.52,3.7,3.7,0,0,0-2.95,2.8,2.88,2.88,0,0,1-.36,1.29c-.05.08-.49.74-1,.71-.7,0-1.24-1.54-1.35-2.67a6.22,6.22,0,0,1,5.59-6.46Z"/><path class="cls-9" d="M436.27,398.07a6.29,6.29,0,0,1,3.9,2.74,7.22,7.22,0,0,1,1.39,5.32,6.87,6.87,0,0,1-1.34,2.86c-1.1,1.45-1.83,1.32-2.83,2.81-.36.54-1.27,1.9-.86,3.06a2,2,0,0,0,1.25,1.26c3.54.27,6.17,6.59,5.5,7.6s-7.75.1-8.78-3.34a2,2,0,0,0-1.33-1c-1.25-.28-2.49,1-2.66,1.19-1.26,1.35-.8,2.48-2.08,4a5.43,5.43,0,0,1-1.81,1.35,7.07,7.07,0,0,1-6.05-.19,6.27,6.27,0,0,1-2.43-2.05c-1.84-2.68-1.62-7.19.68-9.08,1.24-1,3.33-1.47,4.36-.65a1.16,1.16,0,0,1,.5.79c0,.57-.65.85-1.58,1.78a5.3,5.3,0,0,0-1.47,2,3.48,3.48,0,0,0,.16,2.68,3,3,0,0,0,1.57,1.37,3.53,3.53,0,0,0,3.07-.5c1.87-1.33,1.92-4.38,1.61-6.08a7.67,7.67,0,0,0-5.09-6c-3.09-.82-5.59,1.52-6.14.73-.32-.45.26-1.52,4.07-6.26,4.22-5.24,5.13-5.95,5.61-5.69.85.46-.75,3.09.44,6.16a7.59,7.59,0,0,0,6.24,4.73,5.77,5.77,0,0,0,4.36-1.44,4,4,0,0,0,1.38-2.72,3.24,3.24,0,0,0-.71-2.22,2.94,2.94,0,0,0-1.85-1,3.6,3.6,0,0,0-3.48,2,2.66,2.66,0,0,1-.63,1.17c-.07.06-.64.6-1.09.46-.67-.2-.87-1.79-.73-2.92a6,6,0,0,1,6.85-4.95Z"/><path class="cls-9" d="M402.2,433.09a6.45,6.45,0,0,1,3.16,3.64,7.33,7.33,0,0,1,.12,5.51,6.79,6.79,0,0,1-2,2.44c-1.39,1.14-2.07.82-3.39,2-.47.43-1.67,1.52-1.54,2.76a2,2,0,0,0,.92,1.53c3.38,1.14,4.47,7.93,3.58,8.75s-7.54-1.84-7.75-5.43a2,2,0,0,0-1.05-1.3c-1.16-.58-2.65.36-2.86.5-1.53,1-1.35,2.21-2.94,3.32a5.38,5.38,0,0,1-2.07.87,7.14,7.14,0,0,1-5.82-1.69,6.58,6.58,0,0,1-1.88-2.6c-1.17-3.07.09-7.39,2.76-8.65,1.43-.68,3.57-.6,4.38.45a1.23,1.23,0,0,1,.3.89c-.11.57-.83.67-1.94,1.34a5,5,0,0,0-1.9,1.6,3.44,3.44,0,0,0-.47,2.64,3.12,3.12,0,0,0,1.21,1.72,3.53,3.53,0,0,0,3.1.28c2.12-.82,2.88-3.78,3-5.5a7.83,7.83,0,0,0-3.55-7.09c-2.81-1.56-5.78.09-6.13-.82-.2-.51.61-1.41,5.39-5.06,5.31-4.05,6.36-4.5,6.76-4.14.72.66-1.44,2.81-1,6.1a7.78,7.78,0,0,0,5,6.15,5.71,5.71,0,0,0,4.56-.31,3.94,3.94,0,0,0,2-2.3,3.23,3.23,0,0,0-.18-2.34,2.91,2.91,0,0,0-1.56-1.41,3.5,3.5,0,0,0-3.84,1.09,2.64,2.64,0,0,1-.89,1c-.08.05-.75.43-1.16.18-.61-.36-.43-2,0-3a5.72,5.72,0,0,1,2.9-3A5.85,5.85,0,0,1,402.2,433.09Z"/><path class="cls-9" d="M356.92,455.81a6.8,6.8,0,0,1,1.93,4.5,7.24,7.24,0,0,1-1.5,5.28,6.31,6.31,0,0,1-2.58,1.68c-1.65.63-2.21.11-3.82.82-.57.26-2,.91-2.27,2.13a2.1,2.1,0,0,0,.44,1.76c2.87,2.19,1.92,9,.84,9.5s-6.63-4.21-5.77-7.71a2.1,2.1,0,0,0-.63-1.57c-.93-.93-2.62-.53-2.86-.47-1.75.45-1.93,1.67-3.76,2.21a5.32,5.32,0,0,1-2.22.15,7.42,7.42,0,0,1-5-3.51,7,7,0,0,1-1-3.09c-.22-3.3,2.25-7,5.15-7.34,1.56-.17,3.57.6,4,1.87a1.22,1.22,0,0,1,0,.94c-.27.5-1,.37-2.23.64a4.88,4.88,0,0,0-2.27.9,3.4,3.4,0,0,0-1.22,2.37,3.22,3.22,0,0,0,.65,2,3.61,3.61,0,0,0,2.86,1.28c2.26-.09,3.84-2.66,4.43-4.27a8.1,8.1,0,0,0-1.31-7.91c-2.21-2.41-5.51-1.81-5.58-2.78-.05-.56,1-1.15,6.6-3.06,6.22-2.12,7.35-2.21,7.63-1.73.49.86-2.19,2.21-2.72,5.48a8.07,8.07,0,0,0,2.92,7.48,5.8,5.8,0,0,0,4.42,1.19,3.78,3.78,0,0,0,2.54-1.54,3.27,3.27,0,0,0,.51-2.29,3.13,3.13,0,0,0-1.07-1.86,3.48,3.48,0,0,0-4-.21,2.57,2.57,0,0,1-1.13.64c-.08,0-.84.16-1.15-.22-.47-.54.16-2,.85-2.88a5.44,5.44,0,0,1,3.64-1.92A5.9,5.9,0,0,1,356.92,455.81Z"/><path class="cls-9" d="M306.36,466.75a6.85,6.85,0,0,1,.69,4.87,7,7,0,0,1-2.81,4.66,6.08,6.08,0,0,1-2.91.88c-1.76.13-2.16-.53-3.89-.29-.62.08-2.19.29-2.74,1.39a2.15,2.15,0,0,0,0,1.82c2.2,2.92-.48,9.22-1.65,9.38s-5.29-5.94-3.56-9.06a2.1,2.1,0,0,0-.19-1.69c-.65-1.17-2.39-1.26-2.64-1.27-1.79-.07-2.28,1.06-4.19,1.05a5.27,5.27,0,0,1-2.17-.49,7.71,7.71,0,0,1-3.94-4.82,7,7,0,0,1-.19-3.26c.65-3.24,4-6.1,6.85-5.59,1.56.28,3.28,1.59,3.4,2.94a1.21,1.21,0,0,1-.22.92c-.39.4-1,.07-2.31,0a4.79,4.79,0,0,0-2.42.23,3.23,3.23,0,0,0-1.79,1.92,3.31,3.31,0,0,0,.1,2.14,3.71,3.71,0,0,0,2.42,2.05c2.19.56,4.38-1.46,5.37-2.85a8.12,8.12,0,0,0,.79-8c-1.51-2.95-4.84-3.31-4.66-4.27.11-.55,1.25-.82,7.15-1.06,6.54-.26,7.65,0,7.79.51.25,1-2.68,1.5-4,4.5a8.23,8.23,0,0,0,.88,8,5.93,5.93,0,0,0,3.94,2.41,3.66,3.66,0,0,0,2.85-.76,3.07,3.07,0,0,0,.53-4.15,3.51,3.51,0,0,0-3.76-1.34,2.56,2.56,0,0,1-1.25.3c-.09,0-.85-.09-1.06-.54-.31-.66.68-1.88,1.57-2.53a5.34,5.34,0,0,1,4-.81A6.07,6.07,0,0,1,306.36,466.75Z"/><ellipse class="cls-9" cx="463.5" cy="240.29" rx="2.73" ry="2.86"/><ellipse class="cls-9" cx="471.68" cy="292.98" rx="2.73" ry="2.86"/><ellipse class="cls-9" cx="466.23" cy="344.55" rx="2.73" ry="2.86"/><ellipse class="cls-9" cx="443.44" cy="389.92" rx="2.73" ry="2.86"/><ellipse class="cls-9" cx="408.71" cy="429.95" rx="2.73" ry="2.86"/><ellipse class="cls-9" cx="366.15" cy="458.23" rx="2.73" ry="2.86"/><ellipse class="cls-9" cx="317.93" cy="469.71" rx="2.73" ry="2.86"/><path class="cls-9" d="M179.62,170.6a6.39,6.39,0,0,0-3-3.72,6,6,0,0,0-5-.77,6.33,6.33,0,0,0-2.46,1.77c-1.19,1.32-1,2.07-2.23,3.3-.44.44-1.58,1.56-2.69,1.28a1.91,1.91,0,0,1-1.31-1.14c-.68-3.65-6.79-5.58-7.64-4.75s.87,8.08,4.15,8.71a2,2,0,0,1,1.07,1.25c.41,1.27-.62,2.72-.76,2.93-1.08,1.48-2.18,1.14-3.37,2.67a6,6,0,0,0-1,2.06,8.25,8.25,0,0,0,.92,6.26,6.28,6.28,0,0,0,2.18,2.27c2.68,1.58,6.79.77,8.23-1.86.78-1.42.94-3.66.06-4.63a1.1,1.1,0,0,0-.78-.41c-.53.05-.71.79-1.44,1.87a4.94,4.94,0,0,1-1.67,1.78,2.82,2.82,0,0,1-2.48.18,3,3,0,0,1-1.44-1.46,4.1,4.1,0,0,1,.08-3.26c1-2.11,3.77-2.56,5.37-2.45a7.23,7.23,0,0,1,6.11,4.54c1.13,3.11-.71,6,.09,6.48.45.27,1.36-.46,5.23-5,4.28-5.06,4.81-6.1,4.52-6.56-.52-.83-2.74,1.17-5.7.32a7.7,7.7,0,0,1-5.1-5.9,6.7,6.7,0,0,1,.78-4.72,3.73,3.73,0,0,1,2.32-1.78,2.71,2.71,0,0,1,2.13.46,3.16,3.16,0,0,1,1.12,1.8,4,4,0,0,1-1.41,3.88,2.45,2.45,0,0,0-1,.81c0,.08-.47.73-.29,1.19.28.67,1.76.68,2.77.39a5.59,5.59,0,0,0,3.08-2.68A6.88,6.88,0,0,0,179.62,170.6Z"/><path class="cls-9" d="M218.12,142.24a6.67,6.67,0,0,0-2.18-4.32,6.16,6.16,0,0,0-4.76-1.92,6,6,0,0,0-2.75,1.14c-1.43,1-1.37,1.8-2.84,2.71-.52.33-1.85,1.16-2.88.63a2,2,0,0,1-1.05-1.43c.07-3.72-5.51-7-6.5-6.42s-.78,8.1,2.29,9.48a2,2,0,0,1,.8,1.47,3.65,3.65,0,0,1-1.33,2.68c-1.35,1.19-2.36.61-3.83,1.82a5.75,5.75,0,0,0-1.4,1.77,8.34,8.34,0,0,0-.37,6.34,6.68,6.68,0,0,0,1.67,2.72c2.31,2.17,6.48,2.34,8.41.1,1-1.21,1.65-3.35,1-4.5a1.11,1.11,0,0,0-.68-.59c-.53-.07-.84.61-1.77,1.49a4.9,4.9,0,0,1-2,1.36,2.89,2.89,0,0,1-2.46-.4,3.19,3.19,0,0,1-1.12-1.77,4,4,0,0,1,.74-3.16c1.38-1.84,4.19-1.62,5.73-1.14a7.53,7.53,0,0,1,5,5.85c.48,3.3-1.89,5.7-1.21,6.35.38.37,1.42-.14,6.11-3.69,5.2-3.95,5.93-4.84,5.73-5.36-.34-.93-2.9.51-5.62-1a8,8,0,0,1-3.8-6.95,6.59,6.59,0,0,1,1.71-4.43,3.58,3.58,0,0,1,2.62-1.2,2.86,2.86,0,0,1,2,.95,3.35,3.35,0,0,1,.74,2,3.8,3.8,0,0,1-2.17,3.46,2.58,2.58,0,0,0-1.13.56c-.06.07-.61.61-.52,1.1.13.72,1.58,1.07,2.63,1a5.28,5.28,0,0,0,3.54-1.89A6.76,6.76,0,0,0,218.12,142.24Z"/><path class="cls-9" d="M261.41,127a7.05,7.05,0,0,0-1.07-4.81c-.25-.42-1.65-2.82-4.14-3.29a5.78,5.78,0,0,0-2.93.27c-1.63.53-1.76,1.3-3.4,1.73-.58.15-2.07.55-2.94-.28a2.15,2.15,0,0,1-.67-1.68c1-3.55-3.64-8.42-4.74-8.14s-2.69,7.53-.06,9.79a2.18,2.18,0,0,1,.42,1.65c-.18,1.33-1.72,2.07-1.93,2.17-1.59.73-2.42-.13-4.14.58a5.26,5.26,0,0,0-1.78,1.28,8,8,0,0,0-1.87,6,7,7,0,0,0,1,3.12c1.71,2.78,5.7,4.21,8.11,2.65,1.29-.84,2.39-2.71,2-4a1.22,1.22,0,0,0-.52-.77c-.49-.23-1,.33-2.07.89a4.53,4.53,0,0,1-2.25.7,3,3,0,0,1-2.28-1.13,3.29,3.29,0,0,1-.65-2,3.82,3.82,0,0,1,1.46-2.82c1.78-1.34,4.45-.27,5.82.65a8.16,8.16,0,0,1,3.48,7.15c-.33,3.31-3.2,4.9-2.7,5.73.28.47,1.41.29,6.8-1.69,6-2.2,6.88-2.83,6.82-3.39-.11-1-2.93-.4-5.19-2.68a8.43,8.43,0,0,1-2-7.82,6,6,0,0,1,2.71-3.73,3.41,3.41,0,0,1,2.82-.35,3,3,0,0,1,1.69,1.51,3.34,3.34,0,0,1,.24,2.15,3.51,3.51,0,0,1-2.93,2.66,2.3,2.3,0,0,0-1.22.2c-.08,0-.74.4-.77.89-.05.73,1.26,1.5,2.29,1.78a5,5,0,0,0,3.88-.74A6.19,6.19,0,0,0,261.41,127Z"/><ellipse class="cls-9" cx="151.1" cy="199.28" rx="2.64" ry="2.86"/><ellipse class="cls-9" cx="185.61" cy="163.63" rx="2.64" ry="2.86"/><ellipse class="cls-9" cx="225.14" cy="137.37" rx="2.64" ry="2.86"/><ellipse class="cls-9" cx="269.82" cy="123.3" rx="2.64" ry="2.86"/><path class="cls-9" d="M148.36,209.12a6.14,6.14,0,0,0-3.65-3,6,6,0,0,0-5.07.41,6.51,6.51,0,0,0-2.06,2.29c-.9,1.56-.55,2.24-1.53,3.74-.35.53-1.24,1.89-2.38,1.87a1.87,1.87,0,0,1-1.51-.82c-1.37-3.41-7.72-3.9-8.39-2.89s2.43,7.69,5.76,7.56a1.88,1.88,0,0,1,1.29,1,3.77,3.77,0,0,1-.18,3c-.76,1.7-1.9,1.62-2.77,3.39a6.24,6.24,0,0,0-.59,2.24,8.08,8.08,0,0,0,2.13,5.92A6.09,6.09,0,0,0,132,235.6c2.93.93,6.78-.8,7.68-3.71.48-1.56.2-3.78-.85-4.53a1,1,0,0,0-.85-.22c-.5.16-.53.93-1,2.15a5.43,5.43,0,0,1-1.28,2.13,3,3,0,0,1-2.39.74,2.88,2.88,0,0,1-1.7-1.09,4.16,4.16,0,0,1-.56-3.21c.55-2.29,3.19-3.37,4.77-3.62a6.93,6.93,0,0,1,6.86,3c1.71,2.78.49,6,1.35,6.32.5.16,1.24-.77,4.13-6.12,3.2-5.93,3.51-7.07,3.14-7.45-.67-.69-2.44,1.77-5.5,1.62a7.36,7.36,0,0,1-6.15-4.6,6.73,6.73,0,0,1-.16-4.79,3.92,3.92,0,0,1,1.92-2.27,2.67,2.67,0,0,1,2.17,0,3,3,0,0,1,1.45,1.5,4,4,0,0,1-.62,4.11,2.59,2.59,0,0,0-.81,1c0,.09-.32.83-.05,1.24.39.59,1.84.26,2.78-.26a5.82,5.82,0,0,0,2.48-3.32A6.91,6.91,0,0,0,148.36,209.12Z"/><path class="cls-9" d="M130.65,250.75a5.71,5.71,0,0,0-4.42-1.22,6.29,6.29,0,0,0-4.54,2.47,7.15,7.15,0,0,0-1.1,3c-.28,1.82.28,2.31-.1,4.09-.13.64-.48,2.26-1.54,2.72a1.74,1.74,0,0,1-1.68-.14c-2.47-2.58-8.51-.41-8.78.79s5,6.12,8,4.62a1.76,1.76,0,0,1,1.53.37c1,.8.93,2.62.91,2.88-.11,1.88-1.19,2.28-1.37,4.27a6.63,6.63,0,0,0,.24,2.32,7.45,7.45,0,0,0,4,4.59,5.72,5.72,0,0,0,3,.52c3-.35,6-3.54,5.8-6.6-.11-1.64-1.15-3.58-2.38-3.84a1,1,0,0,0-.86.15c-.41.36-.17,1.08-.2,2.41a5.74,5.74,0,0,1-.44,2.5,3.12,3.12,0,0,1-1.94,1.68,2.72,2.72,0,0,1-2-.32,3.88,3.88,0,0,1-1.64-2.73c-.31-2.34,1.76-4.43,3.13-5.32a6.74,6.74,0,0,1,7.41,0c2.56,1.86,2.57,5.38,3.47,5.28.51-.05.88-1.22,1.66-7.36.87-6.8.77-8,.28-8.18-.86-.36-1.63,2.65-4.52,3.77a6.91,6.91,0,0,1-7.29-1.71,6.49,6.49,0,0,1-1.84-4.36,4.24,4.24,0,0,1,1-2.9,2.61,2.61,0,0,1,3.86-.15,4,4,0,0,1,.87,4.07,2.85,2.85,0,0,0-.39,1.28c0,.09,0,.89.39,1.16.57.38,1.79-.53,2.48-1.39a6.2,6.2,0,0,0,1.12-4.1A6.59,6.59,0,0,0,130.65,250.75Z"/><path class="cls-9" d="M124.38,304.37a5.61,5.61,0,0,0-4.55.27,6.56,6.56,0,0,0-3.61,3.82,7.22,7.22,0,0,0-.17,3.18c.25,1.83.93,2.11,1.09,3.93.06.65.2,2.31-.68,3.09a1.76,1.76,0,0,1-1.64.41c-3.09-1.66-8.2,2.36-8.11,3.59s6.49,4.23,8.93,1.83a1.73,1.73,0,0,1,1.57-.15c1.19.43,1.64,2.2,1.7,2.45.44,1.83-.47,2.56-.06,4.52a6.19,6.19,0,0,0,.9,2.13,7.1,7.1,0,0,0,5.18,3.07,5.62,5.62,0,0,0,3-.46c2.79-1.32,4.67-5.32,3.6-8.17-.58-1.54-2.13-3-3.38-2.89a1,1,0,0,0-.78.41c-.28.48.16,1.08.52,2.37a5.8,5.8,0,0,1,.31,2.52,3.31,3.31,0,0,1-1.36,2.23,2.67,2.67,0,0,1-1.95.33,3.71,3.71,0,0,1-2.36-2.07c-1-2.14.39-4.79,1.43-6.09a6.8,6.8,0,0,1,7-2.42c3,1,4,4.3,4.84,3.92.47-.22.47-1.45-.56-7.56-1.15-6.77-1.59-7.86-2.11-7.89-.93-.07-.79,3.05-3.2,5.05a6.84,6.84,0,0,1-7.43.73,6.17,6.17,0,0,1-3-3.57,4.24,4.24,0,0,1,.08-3.07,2.93,2.93,0,0,1,1.63-1.53,2.61,2.61,0,0,1,2,.14,3.9,3.9,0,0,1,2,3.59,2.9,2.9,0,0,0,0,1.35c0,.09.25.86.7,1,.66.18,1.56-1.08,2-2.13a6.22,6.22,0,0,0-.12-4.26A6.4,6.4,0,0,0,124.38,304.37Z"/><path class="cls-9" d="M133.75,352.37a5.86,5.86,0,0,0-4.26,1.74,6.49,6.49,0,0,0-1.76,7.95c.72,1.67,1.44,1.72,2.07,3.41.23.61.8,2.16.17,3.19a1.86,1.86,0,0,1-1.45.93c-3.39-.6-7.2,4.93-6.79,6.08s7.29,1.95,9-1.15a1.81,1.81,0,0,1,1.46-.65c1.24,0,2.14,1.58,2.26,1.8.9,1.61.23,2.6,1.13,4.35a5.62,5.62,0,0,0,1.42,1.75,6.7,6.7,0,0,0,5.75,1.27,5.87,5.87,0,0,0,2.72-1.42c2.31-2.17,3-6.61,1.27-9-.95-1.29-2.83-2.23-4-1.68a1.08,1.08,0,0,0-.64.65c-.14.55.44,1,1.11,2.1a5.46,5.46,0,0,1,1,2.33,3.46,3.46,0,0,1-.71,2.57,2.78,2.78,0,0,1-1.77,1,3.44,3.44,0,0,1-2.79-1.22c-1.48-1.74-.89-4.73-.24-6.31,1.06-2.56,3.54-4.56,6.07-4.61,3.08-.06,4.95,2.82,5.64,2.18.39-.36.07-1.54-2.52-7.07-2.88-6.12-3.59-7-4.09-6.88-.9.24.05,3.18-1.72,5.89a7.09,7.09,0,0,1-6.89,3.11,5.74,5.74,0,0,1-3.81-2.45,4.17,4.17,0,0,1-.72-3,3.19,3.19,0,0,1,1.14-2,2.72,2.72,0,0,1,1.95-.52,3.63,3.63,0,0,1,2.85,2.8,2.88,2.88,0,0,0,.36,1.29c.05.08.47.74.93.71.67,0,1.2-1.54,1.3-2.67a6.2,6.2,0,0,0-1.23-4.06A5.87,5.87,0,0,0,133.75,352.37Z"/><path class="cls-9" d="M157.08,395.92a6.13,6.13,0,0,0-3.79,2.74A7.41,7.41,0,0,0,152,404a7,7,0,0,0,1.3,2.85c1.06,1.45,1.77,1.32,2.74,2.82.35.54,1.23,1.9.84,3.06a2,2,0,0,1-1.22,1.26c-3.43.26-6,6.58-5.33,7.6s7.51.1,8.51-3.34a1.93,1.93,0,0,1,1.28-1c1.22-.27,2.42,1,2.59,1.2,1.22,1.34.77,2.48,2,4a5.42,5.42,0,0,0,1.76,1.35,6.66,6.66,0,0,0,5.86-.19,6.28,6.28,0,0,0,2.35-2.05c1.79-2.68,1.57-7.2-.66-9.08-1.2-1-3.23-1.47-4.22-.65a1.15,1.15,0,0,0-.48.79c0,.57.63.85,1.52,1.77a5.3,5.3,0,0,1,1.43,2,3.57,3.57,0,0,1-.15,2.68,3,3,0,0,1-1.53,1.37,3.33,3.33,0,0,1-3-.5c-1.81-1.33-1.86-4.39-1.56-6.08.49-2.75,2.48-5.32,4.93-6,3-.82,5.41,1.52,6,.73.31-.45-.25-1.52-3.94-6.26-4.09-5.25-5-5.95-5.44-5.69-.82.45.73,3.08-.43,6.16a7.38,7.38,0,0,1-6.05,4.73,5.47,5.47,0,0,1-4.22-1.44,4.1,4.1,0,0,1-1.34-2.72,3.35,3.35,0,0,1,.7-2.23,2.83,2.83,0,0,1,1.78-1,3.46,3.46,0,0,1,3.38,2,2.75,2.75,0,0,0,.61,1.17c.07.06.62.6,1.06.46.65-.21.84-1.8.7-2.92a5.89,5.89,0,0,0-2.05-3.65A5.62,5.62,0,0,0,157.08,395.92Z"/><path class="cls-9" d="M191.66,431.8a6.4,6.4,0,0,0-3.07,3.62,7.47,7.47,0,0,0-.12,5.51,6.77,6.77,0,0,0,1.89,2.45c1.35,1.14,2,.84,3.29,2.05.46.43,1.61,1.53,1.49,2.76a2.07,2.07,0,0,1-.9,1.54c-3.27,1.11-4.34,7.9-3.49,8.72s7.31-1.79,7.52-5.39a2,2,0,0,1,1-1.28c1.13-.58,2.57.37,2.78.51,1.48,1,1.3,2.22,2.83,3.34a5.28,5.28,0,0,0,2,.88,6.69,6.69,0,0,0,5.64-1.66,6.36,6.36,0,0,0,1.83-2.58c1.15-3.06-.07-7.39-2.65-8.67-1.39-.68-3.46-.62-4.25.43a1.24,1.24,0,0,0-.29.89c.11.56.8.67,1.88,1.34a5.1,5.1,0,0,1,1.83,1.61,3.58,3.58,0,0,1,.45,2.65,3,3,0,0,1-1.18,1.71,3.29,3.29,0,0,1-3,.26c-2-.83-2.78-3.79-2.86-5.52-.13-2.8,1.23-5.79,3.46-7.06,2.72-1.55,5.6.12,5.94-.78.2-.52-.58-1.42-5.22-5.1-5.13-4.08-6.14-4.54-6.53-4.17-.7.65,1.39,2.82.94,6.09a7.69,7.69,0,0,1-4.82,6.13,5.39,5.39,0,0,1-4.42-.34,4,4,0,0,1-1.9-2.31,3.41,3.41,0,0,1,.18-2.34,2.88,2.88,0,0,1,1.51-1.4,3.36,3.36,0,0,1,3.73,1.11,2.6,2.6,0,0,0,.85,1c.08.05.73.43,1.13.19.59-.37.42-2,0-3a5.65,5.65,0,0,0-2.81-3A5.48,5.48,0,0,0,191.66,431.8Z"/><path class="cls-9" d="M232.23,455.81a6.81,6.81,0,0,0-1.87,4.5,7.33,7.33,0,0,0,1.45,5.28,6.05,6.05,0,0,0,2.5,1.68c1.6.63,2.14.11,3.7.82.55.26,2,.91,2.2,2.13a2.15,2.15,0,0,1-.42,1.76c-2.79,2.19-1.86,9-.82,9.5s6.42-4.21,5.59-7.71a2.15,2.15,0,0,1,.61-1.57c.9-.93,2.54-.53,2.77-.47,1.7.45,1.87,1.67,3.65,2.21a5,5,0,0,0,2.15.15c3-.38,4.7-3.21,4.88-3.51a7.16,7.16,0,0,0,1-3.09c.21-3.3-2.18-7-5-7.34-1.52-.17-3.46.6-3.91,1.87a1.27,1.27,0,0,0,0,.94c.26.5,1,.37,2.16.64a4.58,4.58,0,0,1,2.2.9,3.37,3.37,0,0,1,1.18,2.37,3.32,3.32,0,0,1-.62,2,3.45,3.45,0,0,1-2.77,1.28c-2.19-.09-3.72-2.66-4.29-4.27a8.29,8.29,0,0,1,1.26-7.91c2.14-2.41,5.34-1.81,5.41-2.78,0-.56-1-1.15-6.4-3.06-6-2.12-7.12-2.21-7.39-1.73-.48.86,2.12,2.21,2.64,5.48a8.25,8.25,0,0,1-2.83,7.48,5.51,5.51,0,0,1-4.29,1.19A3.66,3.66,0,0,1,234.5,463a3.45,3.45,0,0,1-.5-2.29,3.2,3.2,0,0,1,1-1.86,3.29,3.29,0,0,1,3.85-.21,2.52,2.52,0,0,0,1.09.64c.09,0,.82.16,1.13-.22.44-.54-.17-2-.83-2.88a5.22,5.22,0,0,0-3.53-1.92A5.58,5.58,0,0,0,232.23,455.81Z"/><ellipse class="cls-9" cx="130.53" cy="242.67" rx="2.64" ry="2.86"/><ellipse class="cls-9" cx="123" cy="292.64" rx="2.64" ry="2.86"/><ellipse class="cls-9" cx="128.96" cy="344.82" rx="2.64" ry="2.86"/><ellipse class="cls-9" cx="150.18" cy="389.52" rx="2.64" ry="2.86"/><ellipse class="cls-9" cx="182.1" cy="427.93" rx="2.64" ry="2.86"/><ellipse class="cls-9" cx="222.57" cy="455.04" rx="2.64" ry="2.86"/><ellipse class="cls-9" cx="267.82" cy="466.85" rx="2.64" ry="2.86"/><ellipse class="cls-9" cx="296.55" cy="296.25" rx="157.25" ry="158.79"/><path class="cls-10" d="M387.11,203.31a16.3,16.3,0,1,1-16.33,16.3A16.28,16.28,0,0,1,387.11,203.31Z"/><path class="cls-10" d="M198.72,375.12A16.32,16.32,0,1,1,215,391.41,16.33,16.33,0,0,1,198.72,375.12Z"/><path class="cls-10" d="M297.33,411.48A16.29,16.29,0,1,1,281,427.77,16.29,16.29,0,0,1,297.33,411.48Z"/><path class="cls-10" d="M297.33,149.63A16.3,16.3,0,1,1,281,165.92,16.26,16.26,0,0,1,297.33,149.63Z"/><path class="cls-10" d="M384.82,358.78a16.32,16.32,0,1,1-16.3,16.34A16.33,16.33,0,0,1,384.82,358.78Z"/><path class="cls-10" d="M210.21,235.9a16.3,16.3,0,1,1,16.29-16.29A16.29,16.29,0,0,1,210.21,235.9Z"/><path class="cls-10" d="M215,358.78a16.32,16.32,0,1,1-16.29,16.34A16.35,16.35,0,0,1,215,358.78Z"/><polyline class="cls-10" points="275.86 257.78 275.86 219.61 226.5 219.61 225.51 219.61"/><polyline class="cls-10" points="229.72 375.12 231.35 375.12 275.86 375.12 275.86 329.04"/><path class="cls-10" d="M210.21,203.31a16.3,16.3,0,1,1-16.29,16.3A16.28,16.28,0,0,1,210.21,203.31Z"/><path class="cls-10" d="M384.82,358.78a16.32,16.32,0,1,0,16.29,16.34A16.32,16.32,0,0,0,384.82,358.78Z"/><polyline class="cls-10" points="321.46 257.51 321.46 219.61 370.78 219.61 371.81 219.61"/><polyline class="cls-10" points="367.6 375.12 321.46 375.12 321.46 329.04"/><path class="cls-10" d="M387.11,203.31a16.3,16.3,0,1,0,16.29,16.3A16.31,16.31,0,0,0,387.11,203.31Z"/><polyline class="cls-10" points="297.33 329.04 297.33 411.48 297.33 412.62"/><polyline class="cls-10" points="297.33 181.62 297.33 182.22 297.33 257.3"/><path class="cls-10" d="M297.33,149.63A16.3,16.3,0,1,1,281,165.92,16.26,16.26,0,0,1,297.33,149.63Z"/><path class="cls-10" d="M297.33,411.48A16.29,16.29,0,1,1,281,427.77,16.29,16.29,0,0,1,297.33,411.48Z"/><line class="cls-10" x1="156.27" y1="257.92" x2="438.39" y2="257.92"/><line class="cls-10" x1="156.27" y1="328.93" x2="438.39" y2="328.93"/><polygon class="cls-2" points="184.32 276.81 184.32 288.27 204.45 288.27 204.45 297.29 184.32 297.29 184.32 308.4 208.17 308.4 208.17 317.42 175.01 317.42 175.01 267.86 208.17 267.86 208.17 276.81 184.32 276.81"/><path class="cls-2" d="M250.35,276a14.32,14.32,0,0,0-6.64-6.05,24.44,24.44,0,0,0-10.58-2.09H216.72v49.56h16.35a24,24,0,0,0,10.76-2.21,14.92,14.92,0,0,0,6.63-6.23,19.1,19.1,0,0,0,2.21-9.36v-14A19.27,19.27,0,0,0,250.35,276ZM243,299.91a7.84,7.84,0,0,1-2.5,6.28c-1.69,1.46-4.08,2.21-7.16,2.21H226V276.81h7.27q4.62,0,7.16,2.27a7.82,7.82,0,0,1,2.5,6.23Z"/><path class="cls-2" d="M268.75,315.65a15.77,15.77,0,0,1-6.36-6.41,19.78,19.78,0,0,1-2.25-9.59v-14a19.78,19.78,0,0,1,2.25-9.59,15.77,15.77,0,0,1,6.36-6.41,21,21,0,0,1,19,0,15.8,15.8,0,0,1,6.35,6.41,19.78,19.78,0,0,1,2.25,9.59v14a19.78,19.78,0,0,1-2.25,9.59,15.8,15.8,0,0,1-6.35,6.41,21,21,0,0,1-19,0Zm13.92-8.15a7.23,7.23,0,0,0,2.95-3.05,9.6,9.6,0,0,0,1-4.57V285.36a9.56,9.56,0,0,0-1-4.56,7.23,7.23,0,0,0-2.95-3.05,9.63,9.63,0,0,0-8.86,0,7.35,7.35,0,0,0-2.95,3.05,9.67,9.67,0,0,0-1,4.56v14.52a9.72,9.72,0,0,0,1,4.57,7.35,7.35,0,0,0,2.95,3.05,9.63,9.63,0,0,0,8.86,0Z"/><path class="cls-2" d="M340.34,298.05a9.16,9.16,0,0,0-3.55-4,12.59,12.59,0,0,0-5.58-2,14,14,0,0,0,5.23-1.92,9.94,9.94,0,0,0,3.32-3.67,10.59,10.59,0,0,0,1.16-5.12,14.36,14.36,0,0,0-1.74-7.27,11.66,11.66,0,0,0-5.18-4.59,19.89,19.89,0,0,0-8.26-1.57H305.55v49.56h20.77a19.7,19.7,0,0,0,8.26-1.57,11.55,11.55,0,0,0,5.18-4.66,13.76,13.76,0,0,0,1.8-7.27v-.11A12.67,12.67,0,0,0,340.34,298.05Zm-14.89-21.24a6.88,6.88,0,0,1,4.48,1.34,4.73,4.73,0,0,1,1.57,3.73,5.38,5.38,0,0,1-1.57,4.13,6.3,6.3,0,0,1-4.48,1.45H314.86V276.81Zm6.69,25.72a5.34,5.34,0,0,1-1.75,4.3,7.08,7.08,0,0,1-4.94,1.57H314.86V296.48h10.59a8.45,8.45,0,0,1,3.61.7,5,5,0,0,1,2.32,2,6,6,0,0,1,.76,3.2Z"/><polygon class="cls-2" points="380.13 267.86 380.13 276.81 366.63 276.81 366.63 317.42 357.27 317.42 357.27 276.81 343.77 276.81 343.77 267.86 380.13 267.86"/><polygon class="cls-2" points="424.93 317.42 413.81 317.42 402 296.83 394.91 306.71 394.91 317.42 385.6 317.42 385.6 267.86 394.91 267.86 394.91 292.4 411.08 267.86 422.83 267.86 408.11 288.33 424.93 317.42"/></g></g></svg>