<svg xmlns="http://www.w3.org/2000/svg" xmlns:xlink="http://www.w3.org/1999/xlink" viewBox="0 0 500 500"><defs><style>.cls-1,.cls-10{fill:#999;}.cls-1,.cls-2,.cls-28,.cls-29,.cls-3,.cls-4,.cls-8{stroke:#263238;}.cls-1,.cls-15,.cls-2,.cls-21,.cls-28,.cls-29,.cls-3,.cls-4,.cls-7,.cls-8{stroke-linecap:round;stroke-linejoin:round;}.cls-2,.cls-24,.cls-6{fill:#92e3a9;}.cls-16,.cls-3{fill:#757575;}.cls-18,.cls-22,.cls-4,.cls-5{fill:#fff;}.cls-5{opacity:0.7;}.cls-15,.cls-21,.cls-28,.cls-29,.cls-7,.cls-8{fill:none;}.cls-7{stroke:#92e3a9;}.cls-9{fill:#263238;}.cls-11{clip-path:url(#clip-path);}.cls-12,.cls-18,.cls-21{opacity:0.2;}.cls-13{clip-path:url(#clip-path-2);}.cls-14{opacity:0.5;}.cls-15,.cls-21{stroke:#fff;}.cls-17{clip-path:url(#clip-path-3);}.cls-19{clip-path:url(#clip-path-4);}.cls-20{clip-path:url(#clip-path-5);}.cls-23{clip-path:url(#clip-path-6);}.cls-24{opacity:0.4;}.cls-25{clip-path:url(#clip-path-7);}.cls-26{clip-path:url(#clip-path-8);}.cls-27{clip-path:url(#clip-path-9);}.cls-28,.cls-29{stroke-width:2px;}.cls-29{stroke-dasharray:7.9 4.94;}</style><clipPath id="clip-path"><path class="cls-1" d="M408.68,414.31C372.37,416.83,312,416,312,416c-31.14-2.27-37-12.54-32.14-24.23,7.57-18,40.82-39.35,46.88-39.85,10-.81,20.52,3.16,20.52,3.16l6.5-1.37c-2-5.39,18.55-17.39,27.94-12.21s28.8-1.93,34.65,1.72a13.65,13.65,0,0,1,3.92,3.83,23.12,23.12,0,0,1,3.43,8.16h0l.08,0h0a21.13,21.13,0,0,1,4.5-.7c3.22-.17,7.51.32,10.87,3.25a32.4,32.4,0,0,1,2.45,2.42c6.06,6.62,13.86,19.13,15.66,26.43C459.4,394.89,445,411.78,408.68,414.31Z"/></clipPath><clipPath id="clip-path-2"><path class="cls-2" d="M91.65,358.47s-.57,25.76,42.09,44.77,158.66,28.26,179.79-38.7l-65.7-18.87H159.68l-19.4,8.79Z"/></clipPath><clipPath id="clip-path-3"><path class="cls-3" d="M258.54,364.32v4.29a2.61,2.61,0,0,1-.08.69,2.91,2.91,0,0,1-2.82,2.21H153.85A2.91,2.91,0,0,1,151,369.3a2.61,2.61,0,0,1-.08-.69v-4.29Z"/></clipPath><clipPath id="clip-path-4"><path class="cls-3" d="M287,426.82c-6.93,7.22-29.14,8.66-38.4,6.55-2.53-.57-11.74-.91-18.6-3.37-3.71-1.31-6.72-3.24-7.65-6.16-2.65-8.33,20.78-24.18,20.78-24.18s15,2.88,18.06,3.62a58.32,58.32,0,0,0,10.95,1.53c7.12.3,11.92-.65,17.14,1.59C295.25,409,295.34,418.15,287,426.82Z"/></clipPath><clipPath id="clip-path-5"><path class="cls-2" d="M245,395.84c-2.24,15.1-25.53,31.52-25.53,31.52s-6.46-6.05-8.58-5.8-11-.38-11-.38-70.19-26.25-78.58-26.39c-5.25-.09-20.42-4.7-27.92-16.66-4.46-7.1-6.2-16.8-1.59-29.67,7.6-21.22,45.06-5.59,81.8,14.7,12.2,6.75,23,12.16,31.78,16.28,14.54,6.85,23.39,10.15,23.39,10.15l4.86-1.73Z"/></clipPath><clipPath id="clip-path-6"><path class="cls-4" d="M423.7,147.09s-13.95-1.56-22.57-16.92-54.59-10.32-54.59-10.32.26,5.38,7.39,6.76l-5,2.4s1.45,6.16,14.49,5.62l-3.54,3.81s5.48,4.48,19.22,2.51l-2.59,3.33s6.43,4.47,17.32,1.34l-1.17,3.08s8.27.6,13.14-1.52C405.83,147.18,415.24,153,423.7,147.09Z"/></clipPath><clipPath id="clip-path-7"><path class="cls-2" d="M430.67,125.6l-4.85,1.67-2.31-4.85a1.1,1.1,0,0,0-1.36-.57l-16.46,5.67a1.31,1.31,0,0,0-.85,1.33l.43,5.5-27.49,9.46a2.77,2.77,0,0,0-1.73,3.27l11.1,41.84a2.32,2.32,0,0,0,3,1.63l52.88-18.22a2.74,2.74,0,0,0,1.73-3.26l-11.1-41.85A2.3,2.3,0,0,0,430.67,125.6Z"/></clipPath><clipPath id="clip-path-8"><path class="cls-2" d="M442.76,172.37l-52.89,18.22a2.9,2.9,0,0,1-3.48-1.47l-.26-.53-12.48-25.82L367.48,150a2.19,2.19,0,0,1,1.26-3.1l52.89-18.22a2.9,2.9,0,0,1,3.48,1.47L444,169.27A2.18,2.18,0,0,1,442.76,172.37Z"/></clipPath><clipPath id="clip-path-9"><path class="cls-4" d="M405,163.11s-13.72,3-26.81-8.79-55,7.74-55,7.74,2,5,9.17,4L328.38,170s3.36,5.36,15.53.67l-2.13,4.74s6.63,2.49,19-3.79l-1.38,4s7.52,2.18,16.83-4.29l-.12,3.3s8-2.09,11.95-5.66C388.07,168.93,398.86,171.41,405,163.11Z"/></clipPath></defs><g id="Background_Simple" data-name="Background Simple"><path class="cls-5" d="M67.93,167.09s-27.88,72,11.3,144.5S199.11,422.39,263.7,455.14s131.66,16.8,163.53-36.84-11.84-91.93-11.9-168.42,11.45-96.74-30-161.36-143.06-78.93-219.9-31S67.93,167.09,67.93,167.09Z"/><path class="cls-6" d="M116.38,77.35C129.83,61.27,148,48.83,169.69,49.09c37,.46,57,33.21,78.22,58.47,11,13.1,23.49,25.74,39.83,31.9,24.52,9.23,51.82,3.84,75.7-4.73,10.7-3.84,23.37-9.24,35.42-6.48,36.63,8.38,32.81,53.09,26.76,81.39-8.17,38.21-21.45,78.9-48.36,108.27C312.84,388.2,196.88,345.11,138.77,289c-4.27-4.12-8.37-8.43-12.22-13a180.13,180.13,0,0,1-25.16-38.44c-18.74-38.94-21.32-86.29-5.08-126.54A128,128,0,0,1,116.38,77.35Z"/><path class="cls-5" d="M116.38,77.35C129.83,61.27,148,48.83,169.69,49.09c37,.46,57,33.21,78.22,58.47,11,13.1,23.49,25.74,39.83,31.9,24.52,9.23,51.82,3.84,75.7-4.73,10.7-3.84,23.37-9.24,35.42-6.48,36.63,8.38,32.81,53.09,26.76,81.39-8.17,38.21-21.45,78.9-48.36,108.27C312.84,388.2,196.88,345.11,138.77,289c-4.27-4.12-8.37-8.43-12.22-13a180.13,180.13,0,0,1-25.16-38.44c-18.74-38.94-21.32-86.29-5.08-126.54A128,128,0,0,1,116.38,77.35Z"/></g><g id="Bricks"><rect class="cls-7" x="317.02" y="309.18" width="24.95" height="10.02" transform="translate(658.98 628.38) rotate(180)"/><rect class="cls-7" x="304.54" y="295.95" width="24.95" height="10.02" transform="translate(634.04 601.92) rotate(180)"/><rect class="cls-7" x="247.29" y="215.05" width="24.95" height="10.02" transform="translate(519.53 440.12) rotate(180)"/><rect class="cls-7" x="260.96" y="202.58" width="24.95" height="10.02" transform="translate(546.86 415.19) rotate(180)"/><rect class="cls-7" x="353.82" y="89.69" width="24.95" height="10.02" transform="translate(732.58 189.41) rotate(180)"/><rect class="cls-7" x="340.63" y="76.35" width="24.95" height="10.02" transform="translate(706.22 162.73) rotate(180)"/><rect class="cls-7" x="160.1" y="81.75" width="24.95" height="10.02" transform="translate(345.16 173.53) rotate(180)"/><rect class="cls-7" x="146.92" y="68.41" width="24.95" height="10.02" transform="translate(318.79 146.85) rotate(180)"/><rect class="cls-7" x="235.17" y="124.97" width="24.95" height="10.02" transform="translate(495.29 259.95) rotate(180)"/><rect class="cls-7" x="368.31" y="185.67" width="24.95" height="10.02" transform="translate(761.56 381.36) rotate(180)"/><rect class="cls-7" x="397.95" y="273.48" width="24.95" height="10.02" transform="translate(820.84 556.97) rotate(180)"/><rect class="cls-7" x="275.24" y="215.05" width="24.95" height="10.02" transform="translate(575.43 440.12) rotate(180)"/><path class="cls-7" d="M373.84,254.19c-24.26-.26-49.26-.26-72.76,0"/><path class="cls-7" d="M383.83,254.19h-6.1"/><path class="cls-7" d="M92.72,282.39c24.25.27,49.25.27,72.76,0"/><path class="cls-7" d="M82.72,282.39h6.1"/><path class="cls-7" d="M259,150.75h3.44"/><path class="cls-7" d="M222.75,150.75h32.34"/><rect class="cls-7" x="80.14" y="215.48" width="24.95" height="10.02"/><path class="cls-7" d="M81.26,199.71H77.82"/><path class="cls-7" d="M117.51,199.71H85.17"/></g><g id="Floor"><line class="cls-8" x1="51.47" y1="400.51" x2="481.88" y2="400.51"/></g><g id="Bag"><path class="cls-9" d="M316,410.67s-6.45,9.12.22,12.17,65.73-4,93.37-4.26,42.75-10.69,42.16-13.86-7.34-9.18-7.34-9.18l-4.69,5.5s5,1.49,4.86,3.81-18.45,9.87-41.48,6.69-72.1,6.68-76,6.24-.17-9.14-.17-9.14Z"/><path class="cls-10" d="M408.68,414.31C372.37,416.83,312,416,312,416c-31.14-2.27-37-12.54-32.14-24.23,7.57-18,40.82-39.35,46.88-39.85,10-.81,20.52,3.16,20.52,3.16l6.5-1.37c-2-5.39,18.55-17.39,27.94-12.21s28.8-1.93,34.65,1.72a13.65,13.65,0,0,1,3.92,3.83,23.12,23.12,0,0,1,3.43,8.16h0l.08,0h0a21.13,21.13,0,0,1,4.5-.7c3.22-.17,7.51.32,10.87,3.25a32.4,32.4,0,0,1,2.45,2.42c6.06,6.62,13.86,19.13,15.66,26.43C459.4,394.89,445,411.78,408.68,414.31Z"/><g class="cls-11"><path class="cls-12" d="M377.55,347.15c-1.77-3.11,20.58-1.64,22.95,0s2.38,6.78,4.95,5.39c2.05-1.1,9.86-5.33,14.86-5.51a23.12,23.12,0,0,1,3.43,8.16S393,363.88,391,361.57s5.54-4.23,7.91-9.3-7.12-3.68-9.09-3.64S379.32,350.25,377.55,347.15Z"/><path class="cls-12" d="M408.68,414.31C372.37,416.83,312,416,312,416c-31.14-2.27-37-12.54-32.14-24.23,1.2.94,3.26,1.36,6.64.71,11.11-2.14,17.43-2.73,24.56,4s15.24,10.82,19,9.5c0,0,.52-14.86,15-25.53S363,372.78,365.86,370s4.6-8-3.7-10.92-12.34-4-12.34-4,9.14-.71,17.06,2.84,14.83,12,11.47,13.91,4.94,5.31,10.68,4.4c5.08-.82,21.94-.91,25.32-1-3,.64-16.42,4.83-16.42,8,0,0,4.14,6.8,4.11,14.49s9,8.67,12.91,5.79,4.73-6.83,3.25-14.35-5.62-8.08-11-6.91c0,0,6.92-4.17,9.1-2.79s8.3.8,9.49,7.32-3,11.87-1,13.65,13.45-.2,15.43-4,.67-25.57-1.24-26-11.46,2.47-11.73,2.55a7.72,7.72,0,0,1,5.85-5c3.52-.62,7.86-4.08,8.55-7.86,6.06,6.62,13.86,19.13,15.66,26.43C459.4,394.89,445,411.78,408.68,414.31Z"/></g><path class="cls-8" d="M408.68,414.31C372.37,416.83,312,416,312,416c-31.14-2.27-37-12.54-32.14-24.23,7.57-18,40.82-39.35,46.88-39.85,10-.81,20.52,3.16,20.52,3.16l6.5-1.37c-2-5.39,18.55-17.39,27.94-12.21s28.8-1.93,34.65,1.72a13.65,13.65,0,0,1,3.92,3.83,23.12,23.12,0,0,1,3.43,8.16h0l.08,0h0a21.13,21.13,0,0,1,4.5-.7c3.22-.17,7.51.32,10.87,3.25a32.4,32.4,0,0,1,2.45,2.42c6.06,6.62,13.86,19.13,15.66,26.43C459.4,394.89,445,411.78,408.68,414.31Z"/><path class="cls-8" d="M347.3,355.05s4.54,1.52,16,4.25,5.15,12-3.16,12.5-29.67,19.07-30.07,31.69,16.59,10.76,16.59,10.76"/><path class="cls-8" d="M353.8,353.68s15.84-.67,26.53,5.62,39.16-2.51,39.16-2.51"/><path class="cls-8" d="M398.92,383.2c4.75,6.53,2.77,27.39,2.77,27.39s31.37-2.87,40-9.89,1.13-29.86-3.62-30.7-22.15,9.06-36,11"/><path class="cls-8" d="M404.06,383.2s9.89-3.75,11.87,0,5.9,16.49,3.56,20.89-11.08,3.59-11.08,3.59"/><path class="cls-8" d="M366.88,343.44s12.64,5.33,19.77,5.24,15.43-.64,12.27,3.59a65.67,65.67,0,0,0-4,5.62"/><path class="cls-8" d="M335.65,390.53s14.21,5,29.64,2.67,17.95.45,17.95.45v10.44s-10-1.85-16.36,0-27.3,3.27-36.8-.6"/><path class="cls-8" d="M331.48,397.69s5.23,1.46,18.34,1.5,25.36-1.08,25.36-1.08"/><path class="cls-2" d="M328.39,367l-.4-4.55a1,1,0,0,1,.82-1.11l10.61-2.32a1,1,0,0,1,1.26.92l.43,4.29a1,1,0,0,1-.79,1.12L329.68,368A1,1,0,0,1,328.39,367Z"/><polygon class="cls-9" points="332.26 362.04 338 363.02 336.71 363.78 330.58 362.91 332.26 362.04"/><path class="cls-9" d="M344,356.49a11.91,11.91,0,0,1,7-2.83c3.86,0,6.83,1.19,6.43,1.42s-6.53,1.44-7.66,2.81Z"/><path class="cls-9" d="M287,404.75s-12.46,4.06-5.73,8.81,15.82,3.76,23.24-1l.79-4.45a30.18,30.18,0,0,0-8.41,2.59c-3.85,2-12.85,0-12.26-1.11a2.68,2.68,0,0,1,2.18-1.08Z"/><path class="cls-9" d="M325.35,415.68c.93,5,35.69-2.2,63.91-7.19s53.21.8,55.28-3.64,7.17-.13,7.17-.13a23.43,23.43,0,0,1-11.67,11c-8.28,3.38-47.17,2.59-69,7.06s-60.55,11-57.77-6Z"/></g><g id="Character"><path class="cls-6" d="M91.65,358.47s-.57,25.76,42.09,44.77,158.66,28.26,179.79-38.7l-65.7-18.87H159.68l-19.4,8.79Z"/><g class="cls-13"><path class="cls-12" d="M91.65,358.47s-.57,25.76,42.09,44.77,158.66,28.26,179.79-38.7l-65.7-18.87H159.68l-19.4,8.79Z"/></g><path class="cls-8" d="M91.65,358.47s-.57,25.76,42.09,44.77,158.66,28.26,179.79-38.7l-65.7-18.87H159.68l-19.4,8.79Z"/><path class="cls-9" d="M141.76,245.33c-7.74,6.91-34.58,85-31.11,93.52s49,16.31,49,16.31-4.5-88.18-4.73-89.65S141.76,245.33,141.76,245.33Z"/><path class="cls-9" d="M262.35,245.33c7.74,6.91,34.58,85,31.11,93.52s-49,16.31-49,16.31S249,267,249.22,265.51,262.35,245.33,262.35,245.33Z"/><path class="cls-9" d="M141.76,245.33s17.86-20.17,60.1-21.37c33.94-1,57.18,15.84,60.49,21.37s-15.09,79.24-15.09,79.24l10.3,39.68s-55.28,18.43-104.67,0l6.64-41.89S142.13,255.65,141.76,245.33Z"/><g class="cls-14"><path class="cls-15" d="M225.43,232.07s-15.3,16.86-30.84,12.16"/><path class="cls-15" d="M212.63,263.18a87.57,87.57,0,0,0,10.84,1.41"/><path class="cls-15" d="M168.75,242c9.7,8.83,24,16.4,39.15,20.18"/><path class="cls-15" d="M253,259.44a48.24,48.24,0,0,0-5.65,19.5"/><path class="cls-15" d="M260.05,248.65a54.49,54.49,0,0,0-4.46,6.21"/><path class="cls-15" d="M261.43,269.66c-6.91,3-13.27,13.82-13.27,13.82a82.8,82.8,0,0,1,6.64,17.69"/><path class="cls-15" d="M250.93,327.15s6.46-1,10.5-5.37,15.76-3.15,17.41,0"/><path class="cls-15" d="M265.58,316.61s4.14-6.32,13.26-1.9"/><path class="cls-15" d="M145.36,250.59s9.11,6.07,10,22.64"/><path class="cls-15" d="M151.56,289.87c-2.47,6.83-5.15,13.81-6.5,21"/><path class="cls-15" d="M147.31,273.23c2.42.62,7.88,2.91,8.35,5.72.22,1.31-1.71,4.45-2.16,5.66"/><path class="cls-15" d="M137.37,317.45a5.59,5.59,0,0,1,5.29,1.51"/><path class="cls-15" d="M127.37,321.78a35.86,35.86,0,0,1,5.19-2.85"/><path class="cls-15" d="M136.49,324.94s.6-4.93,8.87-3.16,27.89,7.86,27.89,7.86"/></g><path class="cls-4" d="M223.58,230.53s-9.5,9.35-21,9.35-22.48-10.83-22.48-10.83,5.93-3,7.52-8.86a9.58,9.58,0,0,0,.24-1.09c.43-2.59-.26-7-1.26-11.35-1.57-6.85-3.9-13.71-3.9-13.71H219.9s-1.76,8.57-2.92,16.47c-.21,1.45-.41,2.87-.56,4.22s-.31,2.8-.38,4C215.53,227.1,223.58,230.53,223.58,230.53Z"/><path class="cls-16" d="M258.54,364.32v4.29a2.61,2.61,0,0,1-.08.69,2.91,2.91,0,0,1-2.82,2.21H153.85A2.91,2.91,0,0,1,151,369.3a2.61,2.61,0,0,1-.08-.69v-4.29Z"/><g class="cls-17"><path class="cls-12" d="M258.54,364.32v4.29a2.61,2.61,0,0,1-.08.69H151a2.61,2.61,0,0,1-.08-.69v-4.29Z"/></g><path class="cls-8" d="M258.54,364.32v4.29a2.61,2.61,0,0,1-.08.69,2.91,2.91,0,0,1-2.82,2.21H153.85A2.91,2.91,0,0,1,151,369.3a2.61,2.61,0,0,1-.08-.69v-4.29Z"/><path class="cls-3" d="M257.54,367.18H152a2.1,2.1,0,0,1-2.14-1.65l-9.17-74a2,2,0,0,1,2-2.27H266.85a2,2,0,0,1,2,2.27l-9.17,74A2.11,2.11,0,0,1,257.54,367.18Z"/><path class="cls-18" d="M152.37,365.63l-9-70.93a1.48,1.48,0,0,1,1.44-1.62h120a1.47,1.47,0,0,1,1.43,1.62l-9,70.93"/><path class="cls-8" d="M152.37,365.63l-9-70.93a1.48,1.48,0,0,1,1.44-1.62h120a1.47,1.47,0,0,1,1.43,1.62l-9,70.93"/><polygon class="cls-2" points="205.94 334.67 195.09 334.67 207.7 321.48 201.84 331.95 205.94 334.67"/><polygon class="cls-2" points="201.69 341.6 215.07 328.68 204.48 328.68 208.28 331.48 201.69 341.6"/><path class="cls-2" d="M292.54,409.3l3.19,3.63s3,6.82-5.28,15.18-29.78,10-38.15,8.54l-5.27.71-17.92-3.84s-9.08-4.45-5.38-12.24S292.54,409.3,292.54,409.3Z"/><path class="cls-16" d="M287,426.82c-6.93,7.22-29.14,8.66-38.4,6.55-2.53-.57-11.74-.91-18.6-3.37-3.71-1.31-6.72-3.24-7.65-6.16-2.65-8.33,20.78-24.18,20.78-24.18s15,2.88,18.06,3.62a58.32,58.32,0,0,0,10.95,1.53c7.12.3,11.92-.65,17.14,1.59C295.25,409,295.34,418.15,287,426.82Z"/><g class="cls-19"><path class="cls-12" d="M272.18,404.81c-5.33,8.72-18.67,25.46-42.14,25.19-3.71-1.31-6.72-3.24-7.65-6.16-2.65-8.33,20.78-24.18,20.78-24.18s15,2.88,18.06,3.62A58.32,58.32,0,0,0,272.18,404.81Z"/></g><path class="cls-8" d="M287,426.82c-6.93,7.22-29.14,8.66-38.4,6.55-2.53-.57-11.74-.91-18.6-3.37-3.71-1.31-6.72-3.24-7.65-6.16-2.65-8.33,20.78-24.18,20.78-24.18s15,2.88,18.06,3.62a58.32,58.32,0,0,0,10.95,1.53c7.12.3,11.92-.65,17.14,1.59C295.25,409,295.34,418.15,287,426.82Z"/><path class="cls-8" d="M238.93,409.83s23,6.94,27.32,6.5,4.84,3.08,4.84,3.08"/><path class="cls-8" d="M242.61,401.46s25.25,5.4,28.3,6.3a8.71,8.71,0,0,0,5.59-.25"/><path class="cls-8" d="M247.29,401.88a14.2,14.2,0,0,1-8,11.56"/><path class="cls-8" d="M252,402.75a17.59,17.59,0,0,1-6.69,12.2"/><path class="cls-8" d="M257,404.47s1.36,7.38-6.48,12.81"/><path class="cls-8" d="M262.34,405.06s1.19,9.31-6.38,14.07"/><path class="cls-8" d="M268,405.87s-.19,9.71-6.59,13.87"/><path class="cls-8" d="M272.46,407.11s1.68,8.25-5.18,13.28"/><path class="cls-6" d="M245,395.84c-2.24,15.1-25.53,31.52-25.53,31.52s-6.46-6.05-8.58-5.8-11-.38-11-.38-70.19-26.25-78.58-26.39c-5.25-.09-20.42-4.7-27.92-16.66-4.46-7.1-6.2-16.8-1.59-29.67,7.6-21.22,45.06-5.59,81.8,14.7,12.2,6.75,23,12.16,31.78,16.28,14.54,6.85,23.39,10.15,23.39,10.15l4.86-1.73Z"/><g class="cls-20"><path class="cls-12" d="M245,395.84c-2.24,15.1-25.53,31.52-25.53,31.52s-6.46-6.05-8.58-5.8-11-.38-11-.38-70.19-26.25-78.58-26.39c-5.25-.09-20.42-4.7-27.92-16.66,8.82.66,23.83,2.12,31,4.81,0,0-8,2-5.8,3.91s34.32,5.7,45.63,2.85c10.21-2.57,30.61-9.51,41.18-10.26,14.54,6.85,23.39,10.15,23.39,10.15l4.86-1.73Z"/></g><path class="cls-8" d="M245,395.84c-2.24,15.1-25.53,31.52-25.53,31.52s-6.46-6.05-8.58-5.8-11-.38-11-.38-70.19-26.25-78.58-26.39c-5.25-.09-20.42-4.7-27.92-16.66-4.46-7.1-6.2-16.8-1.59-29.67,7.6-21.22,45.06-5.59,81.8,14.7,12.2,6.75,23,12.16,31.78,16.28,14.54,6.85,23.39,10.15,23.39,10.15l4.86-1.73Z"/><path class="cls-8" d="M182.82,381.23c2.48-.42,5-.94,7.4-1.58"/><path class="cls-8" d="M116.37,382.57c20.33,1.62,41.27,2.09,61.51-.59"/><path class="cls-2" d="M114.91,410.7l-3.2,3.63s-3,6.82,5.29,15.17,29.78,10,38.14,8.55l5.27.71,17.93-3.85s9.08-4.44,5.37-12.23S114.91,410.7,114.91,410.7Z"/><path class="cls-3" d="M164.27,401.07s-15,2.87-18.05,3.61c-13.9,3.28-20.59-.1-28.09,3.12-5.94,2.55-6,11.76,2.27,20.41,6.93,7.23,29.14,8.67,38.41,6.56,3.89-.88,23.6-1.22,26.24-9.54S164.27,401.07,164.27,401.07Z"/><path class="cls-8" d="M168.52,411.23s-23,6.94-27.32,6.49-4.85,3.09-4.85,3.09"/><path class="cls-8" d="M164.83,402.86s-25.24,5.4-28.29,6.3a8.78,8.78,0,0,1-5.59-.25"/><path class="cls-8" d="M160.15,403.28a14.21,14.21,0,0,0,8,11.56"/><path class="cls-8" d="M155.43,404.14a17.59,17.59,0,0,0,6.68,12.21"/><path class="cls-8" d="M150.4,405.87s-1.36,7.38,6.49,12.81"/><path class="cls-8" d="M145.1,406.46s-1.19,9.3,6.39,14.07"/><path class="cls-8" d="M139.43,407.27s.2,9.71,6.59,13.87"/><path class="cls-8" d="M135,408.51s-1.68,8.25,5.19,13.28"/><path class="cls-2" d="M314.24,348.32c-7.64-21.22-45.08-5.51-81.77,14.86-32.44,18-55.12,26.52-55.12,26.52L172.49,388l-11.36,8c2.25,15.1,25.59,31.47,25.59,31.47s6.44-6.06,8.57-5.82,11-.4,11-.4,70.15-26.39,78.53-26.54S326.7,382.87,314.24,348.32Z"/><path class="cls-8" d="M212.45,402.83c2,.15,4.06.22,6.1.24"/><path class="cls-8" d="M177.35,389.7c7.33,7.79,19.36,11.16,29.55,12.56"/><path class="cls-8" d="M259.92,375.94c14.34,2.74,30.31,5.23,44.74,1.86"/><path class="cls-8" d="M248.9,373.54c2,.51,4.07,1,6.11,1.41"/><path class="cls-9" d="M217,210.51c-.21,1.45-.41,2.87-.56,4.22-3.74,3.83-9.95,9.1-16,9.28-4.39.13-9-1.75-12.74-3.82a9.58,9.58,0,0,0,.24-1.09c.43-2.59-.26-7-1.26-11.35Z"/><path class="cls-4" d="M226.69,186.26s2.73-2.56,4.07-1.72,2.93,3.24,2.19,5.42-3.9,6-4.14,8.19-1.89,4.72-3.69,3.26S226.69,186.26,226.69,186.26Z"/><path class="cls-4" d="M178.05,186.26s-2.73-2.56-4.07-1.72-2.92,3.24-2.19,5.42,3.9,6,4.14,8.19,1.89,4.72,3.69,3.26S178.05,186.26,178.05,186.26Z"/><path class="cls-4" d="M201.78,151.18c35.49,0,25.89,42.92,19.36,58.1-2.3,5.33-13.62,12.8-19.36,12.8-5.35,0-16-7-18.21-12C177,194.78,167.94,151.18,201.78,151.18Z"/><path class="cls-8" d="M207.79,186s9.25-2.86,12.1,2.86"/><path class="cls-9" d="M214.64,193.74c0,1.09-.56,2-1.24,2s-1.24-.88-1.24-2,.56-2,1.24-2S214.64,192.64,214.64,193.74Z"/><path class="cls-8" d="M197,186s-9.24-2.86-12.1,2.86"/><path class="cls-9" d="M190.11,193.74c0,1.09.55,2,1.23,2s1.24-.88,1.24-2-.55-2-1.24-2S190.11,192.64,190.11,193.74Z"/><path class="cls-4" d="M198.21,201.85c-1.35,1.42,3.29,3.78,4.17,3.78s4.4-1.85,4.4-2.94"/><path class="cls-9" d="M216.51,163.27a44.92,44.92,0,0,1-27.35,0s-4.79-.28-6.69,2.13,0,9.85.51,12.87-4.16,5.13-3.53,12.78l-.63,2.88s-5.17-13.14-3.91-23.73,6.93-14.12,6.93-14.12,3-9.14,20.91-9.07C222,147.08,224,157.5,224,157.5s12,9.05,2.32,37.41l-1-3.86a15.85,15.85,0,0,0-2.44-10.76c-1.68-2.46,1-9.83.38-13.62S216.51,163.27,216.51,163.27Z"/><path class="cls-4" d="M194.66,209.1a18.08,18.08,0,0,0,7.71,1.68,20.07,20.07,0,0,0,7.37-1.24"/><path class="cls-9" d="M215.73,166.65a36.12,36.12,0,0,0,4.16,11.06c3,4.79,6.55,5.27,7.55,11.11,0,0,9.22-15.54,1.43-29.17,0,0-2.45-15.48-26.5-15.48s-35.16,16.75-25.83,42.46a13.93,13.93,0,0,0,8.31-11.32,13.76,13.76,0,0,1-2.47,9.94s12.38-1.83,15.58-12.15c0,0-1.24,6.86-5.38,9.76,0,0,4.67,5.9,10-3.31S211.12,164.81,215.73,166.65Z"/><path class="cls-21" d="M196.77,168.66c-1.51,2.15-3.62,5.47-6.66,5.15"/><path class="cls-21" d="M214.64,159.74c-4-8.24-12.84,1.85-15.71,5.84"/><path class="cls-21" d="M180.75,161.56a8.78,8.78,0,0,1-3.45,1.95"/><path class="cls-21" d="M209.74,152c-8.16-8.54-19.74,1.4-26.21,7.09"/><path class="cls-21" d="M226.24,161.77a17.66,17.66,0,0,1,2.63,7.27"/><path class="cls-21" d="M219.89,158.18a6.67,6.67,0,0,1,3.69,1"/><path class="cls-21" d="M217.41,153.88s1.77-4.68,5.34-1.25"/></g><g id="Progress"><rect class="cls-15" x="170.37" y="273.69" width="66.82" height="9.6" rx="4.8"/><path class="cls-22" d="M196.85,276.32a.9.9,0,0,0,1-.73h.62v5.8h-.92V277h-.7Z"/><path class="cls-22" d="M199.49,277a1.39,1.39,0,1,1,2.77,0v3a1.39,1.39,0,1,1-2.77,0Zm.91,3.07c0,.42.19.57.48.57s.47-.15.47-.57v-3.13c0-.41-.18-.57-.47-.57s-.48.16-.48.57Z"/><path class="cls-22" d="M202.77,277a1.39,1.39,0,1,1,2.77,0v3a1.39,1.39,0,1,1-2.77,0Zm.91,3.07c0,.42.19.57.48.57s.47-.15.47-.57v-3.13c0-.41-.18-.57-.47-.57s-.48.16-.48.57Z"/><path class="cls-22" d="M206.08,276.47a.88.88,0,1,1,1.75,0v1.91a.88.88,0,1,1-1.75,0Zm.58,1.95c0,.26.1.36.3.36s.29-.1.29-.36v-2c0-.26-.11-.36-.29-.36s-.3.1-.3.36Zm2.58-2.83h.54l-2.29,5.8H207Zm-.29,3a.88.88,0,1,1,1.76,0v1.91a.88.88,0,1,1-1.76,0Zm.58,2c0,.26.11.37.3.37s.3-.11.3-.37v-2c0-.25-.12-.36-.3-.36s-.3.11-.3.36Z"/></g><g id="Bubble"><circle class="cls-8" cx="134.22" cy="145.62" r="28.1" transform="matrix(0.58, -0.81, 0.81, 0.58, -62.35, 169.73)"/><path class="cls-8" d="M155.89,123.5A31,31,0,0,0,114,122.2"/><path class="cls-8" d="M163.05,156.91a31,31,0,0,0-5.41-31.55"/><path class="cls-8" d="M156.42,174.46l5.64,3.36-4.77-11.56a30,30,0,0,0,2.19-2.75"/><path class="cls-8" d="M114,169a31,31,0,0,0,37.36,2.38l2.78,1.66"/><path class="cls-8" d="M105.46,134.13a30.94,30.94,0,0,0,5.34,31.74"/><path class="cls-8" d="M108.59,128.22a31.82,31.82,0,0,0-1.85,3.11"/><path class="cls-8" d="M129.17,155.73l-9.72-9.35a2.27,2.27,0,1,1,3.15-3.27"/><path class="cls-8" d="M145.25,133.55a2.27,2.27,0,1,1,3.77,2.52L134.75,157.4a2.28,2.28,0,0,1-1.64,1h-.2a2.25,2.25,0,0,1-1.61-.64"/><polyline class="cls-8" points="124.82 145.25 132.49 152.63 143.38 136.34"/></g><g id="Folder"><path class="cls-22" d="M423.7,147.09s-13.95-1.56-22.57-16.92-54.59-10.32-54.59-10.32.26,5.38,7.39,6.76l-5,2.4s1.45,6.16,14.49,5.62l-3.54,3.81s5.48,4.48,19.22,2.51l-2.59,3.33s6.43,4.47,17.32,1.34l-1.17,3.08s8.27.6,13.14-1.52C405.83,147.18,415.24,153,423.7,147.09Z"/><g class="cls-23"><path class="cls-24" d="M423.71,147.09c-8.46,5.89-17.88.09-17.88.09-4.87,2.12-13.14,1.53-13.14,1.53l1.17-3.1c-10.9,3.15-17.32-1.33-17.32-1.33l2.59-3.33c-13.74,2-19.22-2.51-19.22-2.51l3.54-3.81C350.41,135.17,349,129,349,129l5-2.39c-7.13-1.39-7.39-6.77-7.39-6.77s2.61,4.64,10.13,4.49c0,0-1.27,3.14,6.44,3.72,0,0,6.5,2.78,11.22.7,0,0,1.59,3.23,7.25,2.68L379.66,134s.59,3.31,7.6,1.67l-1,3.25s2.31,2.67,11.33.68c0,0-2.82,1.85-1.9,2.78s3.78,1.39,6.24,1.15C401.9,143.5,411.53,151.09,423.71,147.09Z"/></g><path class="cls-8" d="M423.7,147.09s-13.95-1.56-22.57-16.92-54.59-10.32-54.59-10.32.26,5.38,7.39,6.76l-5,2.4s1.45,6.16,14.49,5.62l-3.54,3.81s5.48,4.48,19.22,2.51l-2.59,3.33s6.43,4.47,17.32,1.34l-1.17,3.08s8.27.6,13.14-1.52C405.83,147.18,415.24,153,423.7,147.09Z"/><path class="cls-4" d="M364.08,122.77c-4.64,1.17-7.43.79-10.87,2.54,0,0,3,4.1,10.9,3.55"/><path class="cls-8" d="M367.6,130.44a32.73,32.73,0,0,0-5.82,1.82s1.13,5.33,13.65,2.78"/><path class="cls-8" d="M380.3,136.83l-3.66,2.35a21.81,21.81,0,0,0,13.4,1"/><path class="cls-4" d="M393.63,140.27s-3.58,2.52-3.46,2.87,7.17,3,13.56-.47"/><path class="cls-4" d="M371.7,124.27c-2.2,1-8.69,1.94-9.12,2.89,0,0,2.13,6,13,2.59"/><path class="cls-4" d="M379,131.2a18.84,18.84,0,0,0-4.61,2.66s4.22,5.87,14.46.8"/><path class="cls-4" d="M390.13,134.66a7.22,7.22,0,0,0-3.89,4.24s5.06,3.27,13.75-.14"/><path class="cls-4" d="M380.68,126.3s-6.18,1.32-6.35,2.46c0,0,5,4.27,12.91,2.13"/><path class="cls-4" d="M388.17,130.34a6.8,6.8,0,0,0-2.44,2s2.39,3.54,8.54,1.61"/><path class="cls-6" d="M430.67,125.6l-4.85,1.67-2.31-4.85a1.1,1.1,0,0,0-1.36-.57l-16.46,5.67a1.31,1.31,0,0,0-.85,1.33l.43,5.5-27.49,9.46a2.77,2.77,0,0,0-1.73,3.27l11.1,41.84a2.32,2.32,0,0,0,3,1.63l52.88-18.22a2.74,2.74,0,0,0,1.73-3.26l-11.1-41.85A2.3,2.3,0,0,0,430.67,125.6Z"/><g class="cls-25"><path class="cls-12" d="M430.67,125.6l-4.85,1.67-2.31-4.85a1.1,1.1,0,0,0-1.36-.57l-16.46,5.67a1.31,1.31,0,0,0-.85,1.33l.43,5.5-27.49,9.46a2.77,2.77,0,0,0-1.73,3.27l11.1,41.84a2.32,2.32,0,0,0,3,1.63l52.88-18.22a2.74,2.74,0,0,0,1.73-3.26l-11.1-41.85A2.3,2.3,0,0,0,430.67,125.6Z"/></g><path class="cls-8" d="M430.67,125.6l-4.85,1.67-2.31-4.85a1.1,1.1,0,0,0-1.36-.57l-16.46,5.67a1.31,1.31,0,0,0-.85,1.33l.43,5.5-27.49,9.46a2.77,2.77,0,0,0-1.73,3.27l11.1,41.84a2.32,2.32,0,0,0,3,1.63l52.88-18.22a2.74,2.74,0,0,0,1.73-3.26l-11.1-41.85A2.3,2.3,0,0,0,430.67,125.6Z"/><path class="cls-6" d="M442.76,172.37l-52.89,18.22a2.9,2.9,0,0,1-3.48-1.47l-.26-.53-12.48-25.82L367.48,150a2.19,2.19,0,0,1,1.26-3.1l52.89-18.22a2.9,2.9,0,0,1,3.48,1.47L444,169.27A2.18,2.18,0,0,1,442.76,172.37Z"/><g class="cls-26"><path class="cls-12" d="M405,163.11a15.62,15.62,0,0,1-13,14.12,29.86,29.86,0,0,1-5.83,11.36l-12.48-25.82C384.21,164.59,396.32,165.61,405,163.11Z"/></g><path class="cls-8" d="M442.76,172.37l-52.89,18.22a2.9,2.9,0,0,1-3.48-1.47l-.26-.53-12.48-25.82L367.48,150a2.19,2.19,0,0,1,1.26-3.1l52.89-18.22a2.9,2.9,0,0,1,3.48,1.47L444,169.27A2.18,2.18,0,0,1,442.76,172.37Z"/><path class="cls-22" d="M405,163.11s-13.72,3-26.81-8.79-55,7.74-55,7.74,2,5,9.17,4L328.38,170s3.36,5.36,15.53.67l-2.13,4.74s6.63,2.49,19-3.79l-1.38,4s7.52,2.18,16.83-4.29l-.12,3.3s8-2.09,11.95-5.66C388.07,168.93,398.86,171.41,405,163.11Z"/><g class="cls-27"><path class="cls-24" d="M405,163.11c-6.12,8.3-16.91,5.82-16.91,5.82-3.93,3.57-11.94,5.66-11.94,5.66l.11-3.3c-9.31,6.47-16.83,4.29-16.83,4.29l1.38-4c-12.38,6.28-19,3.79-19,3.79l2.13-4.74c-12.17,4.69-15.52-.67-15.52-.67l3.93-3.86c-7.19,1-9.17-4-9.17-4s4,3.56,11,1c0,0-.19,3.38,7.29,1.46,0,0,7,.54,10.86-2.94,0,0,2.53,2.55,7.71.21l-1,3s1.62,3,7.73-.85l.08,3.41s3,1.79,10.94-3c0,0-2.08,2.65-.9,3.24s4,.11,6.27-.91C383.17,166.71,394.73,170.81,405,163.11Z"/></g><path class="cls-8" d="M405,163.11s-13.72,3-26.81-8.79-55,7.74-55,7.74,2,5,9.17,4L328.38,170s3.36,5.36,15.53.67l-2.13,4.74s6.63,2.49,19-3.79l-1.38,4s7.52,2.18,16.83-4.29l-.12,3.3s8-2.09,11.95-5.66C388.07,168.93,398.86,171.41,405,163.11Z"/><path class="cls-4" d="M340.7,159.21c-4,2.59-6.78,3.13-9.48,5.89,0,0,4.19,2.91,11.46-.14"/><path class="cls-8" d="M346.49,165.35a32.5,32.5,0,0,0-4.92,3.59s2.78,4.68,13.82-1.75"/><path class="cls-8" d="M360.57,167.32l-2.71,3.4a21.81,21.81,0,0,0,13-3.39"/><path class="cls-4" d="M374.31,166.3s-2.59,3.54-2.36,3.83,7.75.54,12.69-4.8"/><path class="cls-4" d="M348.4,158.18c-1.77,1.61-7.6,4.63-7.71,5.67,0,0,3.92,5,13.17-1.73"/><path class="cls-4" d="M357.51,162.41a18.83,18.83,0,0,0-3.52,4s5.88,4.21,14-3.88"/><path class="cls-4" d="M369.19,162.11a7.26,7.26,0,0,0-2.33,5.26s5.85,1.48,13-4.54"/><path class="cls-4" d="M357.56,157.22s-5.44,3.24-5.23,4.37c0,0,6.07,2.46,12.91-2.13"/><path class="cls-4" d="M366,158.64a6.79,6.79,0,0,0-1.66,2.72s3.4,2.59,8.61-1.21"/><path class="cls-28" d="M298,305.41c1.19-.4,2.44-.86,3.76-1.37"/><path class="cls-29" d="M306.31,302.13c22.56-10.1,55.6-34.29,48.48-73.68-5.85-32.39-32.64-29.51-40.7-22.83-13.68,11.34-15.75,38,4,43.58,32.79,9.19,57.72-31.76,65.88-47.34"/><path class="cls-28" d="M385.13,199.66c1.14-2.26,1.73-3.6,1.73-3.6"/></g></svg>