<svg xmlns="http://www.w3.org/2000/svg" xmlns:xlink="http://www.w3.org/1999/xlink" viewBox="0 0 500 500"><defs><style>.cls-1,.cls-12,.cls-19,.cls-2{fill:#92e3a9;}.cls-1,.cls-11,.cls-12,.cls-14,.cls-17,.cls-18,.cls-19,.cls-20,.cls-21,.cls-22,.cls-23,.cls-24,.cls-5,.cls-6,.cls-7,.cls-8{stroke:#263238;}.cls-1,.cls-11,.cls-12,.cls-14,.cls-17,.cls-18,.cls-20,.cls-21,.cls-22,.cls-23,.cls-24,.cls-29,.cls-5,.cls-6,.cls-7,.cls-8{stroke-linecap:round;stroke-linejoin:round;}.cls-10,.cls-13,.cls-16,.cls-17,.cls-23,.cls-3,.cls-31{fill:#fff;}.cls-3{opacity:0.7;}.cls-20,.cls-4,.cls-8{fill:#263238;}.cls-5,.cls-7{fill:#999;}.cls-21,.cls-6{fill:#757575;}.cls-12,.cls-14,.cls-17,.cls-19,.cls-21,.cls-29,.cls-7,.cls-8{stroke-width:0.75px;}.cls-9{clip-path:url(#clip-path);}.cls-10{opacity:0.8;}.cls-11,.cls-14,.cls-18,.cls-22,.cls-24,.cls-29{fill:none;}.cls-15{clip-path:url(#clip-path-2);}.cls-16{opacity:0.3;}.cls-18{stroke-width:0.5px;}.cls-19{stroke-miterlimit:10;}.cls-22{stroke-width:1.5px;}.cls-24{stroke-width:3px;}.cls-25{opacity:0.1;}.cls-26{clip-path:url(#clip-path-3);}.cls-27{opacity:0.2;}.cls-28{clip-path:url(#clip-path-4);}.cls-29{stroke:#7f7f7f;}.cls-30{clip-path:url(#clip-path-5);}.cls-31{opacity:0.5;}.cls-32{clip-path:url(#clip-path-6);}</style><clipPath id="clip-path"><rect class="cls-1" x="66.83" y="80.13" width="369.87" height="223.95"/></clipPath><clipPath id="clip-path-2"><path class="cls-2" d="M178.8,288.86h0a4,4,0,0,1-4-3.95V180.14a4,4,0,0,1,4-3.95h0a4,4,0,0,1,3.95,3.95V284.91A3.94,3.94,0,0,1,178.8,288.86Z"/></clipPath><clipPath id="clip-path-3"><path class="cls-1" d="M191.65,278.86s-.51,9.61-1.15,25.76c-.49,12.11-4,49.63-5,62.3-1.3,16.76-5.39,66.91-5.39,66.91s5.39,4.62,13.85,1.93c0,0,10.22-49.35,13.07-66,2-11.68,6.84-46.93,10.38-58.24,1.16-3.69,6.54-14,6.54-14V278.86Z"/></clipPath><clipPath id="clip-path-4"><path class="cls-1" d="M217,278.86H249l2.13,21.89s3.33,42.65,4.41,56.94c1.52,20.24,5,81.14,5,81.14L245.91,440s-10.22-60.61-14.27-80.57c-2.67-13.18-11.15-52.11-11.15-52.11S212.8,296.16,217,278.86Z"/></clipPath><clipPath id="clip-path-5"><path class="cls-1" d="M179.25,428.22a62.16,62.16,0,0,0,17.08,3.29,8,8,0,0,1,.22,1.94c-.12.59-1.13,1.48-1.22,2.08s.63,1.54.49,2.05-1.3,1.32-1.3,1.32a53.1,53.1,0,0,1-16.23-3.45,8.5,8.5,0,0,1-.5-2.35c.07-.37.74-.9.79-1.27.06-.59-.88-1.66-.74-2.23S179.25,428.22,179.25,428.22Z"/></clipPath><clipPath id="clip-path-6"><path class="cls-1" d="M244.14,434.54a61.76,61.76,0,0,0,17.31-1.73,8.05,8.05,0,0,1,.77,1.79c0,.6-.67,1.75-.58,2.34s1.05,1.3,1.06,1.83-.87,1.63-.87,1.63a52.71,52.71,0,0,1-16.53,1.35,8.38,8.38,0,0,1-1.16-2.12c0-.37.45-1.07.39-1.44-.11-.57-1.32-1.33-1.35-1.92S244.14,434.54,244.14,434.54Z"/></clipPath></defs><g id="Background_Simple" data-name="Background Simple"><path class="cls-2" d="M266.69,128.35C222,11,7.08,1.4,36.4,184.45,49.51,266.28,105.94,334.5,205.9,351.8c94,16.26,264-14.66,263.46-103C468.8,160.25,294.8,202.12,266.69,128.35Z"/><path class="cls-3" d="M266.69,128.35C222,11,7.08,1.4,36.4,184.45,49.51,266.28,105.94,334.5,205.9,351.8c94,16.26,264-14.66,263.46-103C468.8,160.25,294.8,202.12,266.69,128.35Z"/></g><g id="Device"><path class="cls-4" d="M230.83,359.68a20.94,20.94,0,1,1,41.87,0l3.5-1.24V340l-12.4-8.08-18.75-5.48-14.22,8.66-6.26,11.65v11.42Z"/><path class="cls-5" d="M193.61,409.74H309.93a8.17,8.17,0,0,1,8.17,8.17v6.79a0,0,0,0,1,0,0H185.44a0,0,0,0,1,0,0V417.9A8.17,8.17,0,0,1,193.61,409.74Z"/><path class="cls-6" d="M278,309.62H225.57L214.36,409.74h74.82Zm-26.19,67.47a20.94,20.94,0,1,1,20.93-20.94A20.93,20.93,0,0,1,251.77,377.09Z"/><rect class="cls-7" x="49.53" y="62.83" width="404.48" height="258.56" rx="17.31"/><path class="cls-8" d="M49.57,305a17.29,17.29,0,0,0,17.26,16.37H436.7A17.28,17.28,0,0,0,454,305Z"/><g id="Window"><rect class="cls-2" x="66.83" y="80.13" width="369.87" height="223.95"/><g class="cls-9"><rect class="cls-10" x="66.83" y="80.13" width="369.87" height="223.95"/></g><rect class="cls-11" x="66.83" y="80.13" width="369.87" height="223.95"/><rect class="cls-12" x="66.83" y="80.13" width="369.87" height="20.56"/><path class="cls-13" d="M86.09,90.41a5,5,0,1,1-5-5A5,5,0,0,1,86.09,90.41Z"/><path class="cls-13" d="M101.14,90.41a5,5,0,1,1-5-5A5,5,0,0,1,101.14,90.41Z"/><path class="cls-13" d="M116.19,90.41a5,5,0,1,1-5-5A5,5,0,0,1,116.19,90.41Z"/><line class="cls-14" x1="185.06" y1="304.08" x2="185.06" y2="100.69"/><path class="cls-2" d="M178.8,288.86h0a4,4,0,0,1-4-3.95V180.14a4,4,0,0,1,4-3.95h0a4,4,0,0,1,3.95,3.95V284.91A3.94,3.94,0,0,1,178.8,288.86Z"/><g class="cls-15"><path class="cls-16" d="M178.8,288.86h0a4,4,0,0,1-4-3.95V180.14a4,4,0,0,1,4-3.95h0a4,4,0,0,1,3.95,3.95V284.91A3.94,3.94,0,0,1,178.8,288.86Z"/></g><rect class="cls-2" x="76.06" y="133.69" width="88.81" height="11.54"/><rect class="cls-2" x="91.11" y="152.44" width="73.76" height="11.54"/><rect class="cls-2" x="91.11" y="171.19" width="73.76" height="11.54"/><rect class="cls-2" x="97.82" y="189.94" width="67.05" height="11.54"/><polygon class="cls-8" points="84.41 161.59 84.41 154.83 87.78 158.21 84.41 161.59"/><polygon class="cls-8" points="84.41 180.34 84.41 173.58 87.78 176.96 84.41 180.34"/><polygon class="cls-8" points="91.11 199.08 91.11 192.32 94.49 195.7 91.11 199.08"/><rect class="cls-2" x="76.06" y="216.76" width="88.81" height="11.54"/><rect class="cls-2" x="91.11" y="235.51" width="73.76" height="11.54"/><rect class="cls-2" x="97.84" y="254.25" width="67.03" height="11.54"/><rect class="cls-2" x="97.84" y="273" width="67.03" height="11.54"/><polygon class="cls-8" points="84.41 244.65 84.41 237.9 87.78 241.28 84.41 244.65"/><polygon class="cls-8" points="91.14 263.4 91.14 256.64 94.52 260.02 91.14 263.4"/><polygon class="cls-8" points="91.14 282.15 91.14 275.39 94.52 278.77 91.14 282.15"/><rect class="cls-17" x="306.39" y="117.35" width="116.91" height="40.86" transform="translate(729.69 275.56) rotate(180)"/><rect class="cls-17" x="197.17" y="117.35" width="99.22" height="87.49" transform="translate(493.57 322.19) rotate(180)"/><line class="cls-18" x1="296.39" y1="204.84" x2="197.17" y2="117.35"/><line class="cls-18" x1="197.17" y1="204.84" x2="296.39" y2="117.35"/><rect class="cls-19" x="306.39" y="163.98" width="54.99" height="40.86"/><rect class="cls-17" x="368.3" y="163.98" width="54.99" height="40.86"/><line class="cls-18" x1="423.3" y1="204.84" x2="368.3" y2="163.98"/><line class="cls-18" x1="368.3" y1="204.84" x2="423.3" y2="163.98"/><rect class="cls-17" x="306.39" y="210.61" width="116.91" height="76.77"/><rect class="cls-17" x="246.78" y="210.61" width="48.93" height="35.5"/><rect class="cls-14" x="246.78" y="251.87" width="48.93" height="35.5"/><rect class="cls-12" x="371.96" y="156.53" width="54.99" height="40.86"/><rect class="cls-20" x="375.53" y="159.17" width="5.76" height="4.28"/><polygon class="cls-7" points="380.9 188.49 393.94 168.59 406.97 188.49 380.9 188.49"/><polygon class="cls-21" points="398.13 188.49 408.08 173.3 418.03 188.49 398.13 188.49"/><path class="cls-17" d="M406.89,168.59a3.32,3.32,0,1,1-3.32-3.33A3.32,3.32,0,0,1,406.89,168.59Z"/><rect class="cls-12" x="238.08" y="213.49" width="48.93" height="35.5"/><polygon class="cls-8" points="255.85 221.75 270.98 231.24 255.85 240.73 258.67 231.24 255.85 221.75"/><polygon class="cls-17" points="258.67 231.24 255.85 221.75 270.98 231.24 258.67 231.24"/><polygon class="cls-12" points="418.37 106.37 396.56 106.37 396.56 147.61 427.21 147.61 427.21 115.2 418.37 106.37"/><polygon class="cls-12" points="427.21 115.2 418.37 115.2 418.37 106.37 427.21 115.2"/><path class="cls-4" d="M409.91,118.9h3.78l2.89,17.77h-2.79l-.51-3.53v.05h-3.17l-.51,3.48H407Zm3,11.88L411.71,122h0l-1.22,8.78Z"/><polygon class="cls-12" points="378.33 110.16 356.52 110.16 356.52 151.4 387.17 151.4 387.17 119 378.33 110.16"/><polygon class="cls-12" points="387.17 119 378.33 119 378.33 110.16 387.17 119"/><path class="cls-4" d="M369,136.71l-.85,3.76h-1l3.71-17h1.63l3.78,17h-1.11l-.85-3.76Zm.17-1h4.95l-2.5-11Z"/><polygon class="cls-12" points="337.72 103.64 311.56 103.64 311.56 153.14 348.33 153.14 348.33 114.25 337.72 103.64"/><polygon class="cls-12" points="348.33 114.25 337.72 114.25 337.72 103.64 348.33 114.25"/><path class="cls-4" d="M326.53,136.08l-1.17,4.7h-.56l4.81-20h.88l4.92,20h-.62l-1.17-4.7Zm.12-.57h6.86L330,121.57Z"/><rect class="cls-17" x="254.38" y="256" width="48.93" height="35.5"/><path class="cls-1" d="M285.82,264.73a9.87,9.87,0,0,0-14,14l7,7,7-7A9.86,9.86,0,0,0,285.82,264.73ZM282.09,275a4.6,4.6,0,1,1,0-6.5A4.61,4.61,0,0,1,282.09,275Z"/><rect class="cls-12" x="191.03" y="111.09" width="99.22" height="87.49" transform="translate(481.28 309.66) rotate(180)"/><rect class="cls-20" x="195.59" y="115.11" width="8.64" height="7.62" transform="translate(399.82 237.83) rotate(180)"/><polygon class="cls-7" points="202.82 178.06 229.51 137.3 256.2 178.06 202.82 178.06"/><circle class="cls-17" cx="249.23" cy="137.3" r="6.81"/><polygon class="cls-7" points="238.08 178.06 258.46 146.94 278.84 178.06 238.08 178.06"/><path class="cls-1" d="M350.33,246.77a12.78,12.78,0,1,1-14.81-10.37A12.79,12.79,0,0,1,350.33,246.77Z"/><line class="cls-22" x1="331.63" y1="244.71" x2="343.86" y2="253.27"/><line class="cls-22" x1="342.02" y1="242.87" x2="333.46" y2="255.11"/><path class="cls-23" d="M377.42,261.92a12.78,12.78,0,1,1-14.8-10.36A12.78,12.78,0,0,1,377.42,261.92Z"/><line class="cls-24" x1="358.72" y1="259.86" x2="370.95" y2="268.42"/><line class="cls-24" x1="369.12" y1="258.03" x2="360.55" y2="270.26"/><path class="cls-7" d="M402.31,242.49a12.78,12.78,0,1,1-14.81-10.37A12.77,12.77,0,0,1,402.31,242.49Z"/><path class="cls-13" d="M395.84,250.72a1.73,1.73,0,0,1-1-.31l-12.23-8.57a1.73,1.73,0,1,1,2-2.83l12.23,8.56a1.72,1.72,0,0,1,.43,2.41A1.75,1.75,0,0,1,395.84,250.72Z"/><path class="cls-13" d="M385.44,252.55a1.73,1.73,0,0,1-1.42-2.72l8.57-12.23a1.73,1.73,0,1,1,2.83,2l-8.56,12.23A1.72,1.72,0,0,1,385.44,252.55Z"/></g></g><g id="Plant_1" data-name="Plant 1"><polygon class="cls-8" points="132.21 424.69 67.82 424.69 60.9 398.82 139.13 398.82 132.21 424.69"/><path class="cls-14" d="M91.11,404.58s-5-25.95-24.28-40.69C51.79,352.38,36,326.42,36,326.42"/><path class="cls-2" d="M69.77,371.13s-19.9-4-13,8.07,22.79,6.93,22.79,6.93,13.55-8.95,6.63-19.76S69.77,371.13,69.77,371.13Z"/><path class="cls-25" d="M86.21,366.37c-6.92-10.82-16.44,4.76-16.44,4.76s-1.44,7.79,9.81,15C79.58,386.13,93.13,377.18,86.21,366.37Z"/><path class="cls-2" d="M36.78,326.51s-12.62-11.64-12.92.15,13.45,15,13.45,15,13.72-.53,13.44-11.38S36.78,326.51,36.78,326.51Z"/><path class="cls-25" d="M50.75,330.26c-.27-10.85-14-3.75-14-3.75s-4.45,5,.53,15.13C37.31,341.64,51,341.11,50.75,330.26Z"/><path class="cls-2" d="M52.74,348.48s-5-16.43,5.78-11.56,7.62,18.63,7.62,18.63S59.67,367.66,50,362.69,52.74,348.48,52.74,348.48Z"/><path class="cls-25" d="M50,362.69c-9.64-5,2.71-14.21,2.71-14.21s6.44-1.83,13.4,7.07C66.14,355.55,59.67,367.66,50,362.69Z"/><path class="cls-14" d="M107.55,404.58s8.08-23,28.27-35.74,29.05-28.28,29.05-28.28"/><path class="cls-14" d="M91.14,337.38s8.09,10.38,9.65,29,3,38.21,3,38.21"/><path class="cls-2" d="M99.13,352.85s-5.79-12.73,8.34-9.44,9.23,14.33,9.23,14.33-9.28,9.91-21.94,6.48S99.13,352.85,99.13,352.85Z"/><path class="cls-25" d="M94.76,364.22c-12.65-3.43,4.37-11.37,4.37-11.37s8.72-1.78,17.57,4.89C116.7,357.74,107.42,367.65,94.76,364.22Z"/><path class="cls-2" d="M154.31,355.05s-5.79-12.73,8.34-9.44S171.88,360,171.88,360s-9.28,9.9-21.94,6.47S154.31,355.05,154.31,355.05Z"/><path class="cls-25" d="M149.94,366.42c-12.65-3.43,4.37-11.37,4.37-11.37s8.72-1.78,17.57,4.9C171.88,360,162.6,369.85,149.94,366.42Z"/><path class="cls-2" d="M122.52,382.36s-2.84-13.69,10.21-7.35,5.83,16,5.83,16-11.24,7.61-22.82,1.46S122.52,382.36,122.52,382.36Z"/><path class="cls-25" d="M115.74,392.49c-11.59-6.16,6.78-10.13,6.78-10.13s8.89.2,16,8.67C138.56,391,127.32,398.64,115.74,392.49Z"/><path class="cls-2" d="M100.62,374.78s-4-8.68,5.68-6.43,6.3,9.77,6.3,9.77-6.33,6.75-15,4.41S100.62,374.78,100.62,374.78Z"/><path class="cls-25" d="M97.64,382.53c-8.63-2.34,3-7.75,3-7.75a16,16,0,0,1,12,3.34S106.27,384.87,97.64,382.53Z"/><path class="cls-2" d="M92,336.64s4.95-13.27-6.53-9.56-7.77,15-7.77,15,7.29,10,17.59,6.22S92,336.64,92,336.64Z"/><path class="cls-25" d="M95.33,348.29c10.3-3.81-3.29-11.65-3.29-11.65s-7-1.65-14.3,5.43C77.74,342.07,85,352.1,95.33,348.29Z"/><path class="cls-2" d="M164.11,335.56s-5.64-8.29,2.88-7.67,7.85,9,7.85,9-3.32,8.12-11,7.23S164.11,335.56,164.11,335.56Z"/><path class="cls-25" d="M163.81,344.11c-7.72-.89.3-8.55.3-8.55s4.53-2.32,10.73,1.32C174.84,336.88,171.52,345,163.81,344.11Z"/><path class="cls-2" d="M138.84,364.44s20.12-2.74,9.59-11.9-23.79,1-23.79,1-9.86,12.91.24,20.84S138.84,364.44,138.84,364.44Z"/><path class="cls-25" d="M124.88,374.35c10.1,7.93,14-9.91,14-9.91s-1.21-7.83-14.2-10.93C124.64,353.51,114.78,366.42,124.88,374.35Z"/><path class="cls-2" d="M87.4,387.35s-5-16.43,5.78-11.56,7.61,18.63,7.61,18.63-6.46,12.11-16.1,7.14S87.4,387.35,87.4,387.35Z"/><path class="cls-25" d="M84.69,401.56c-9.65-5,2.71-14.21,2.71-14.21s6.44-1.83,13.39,7.07C100.79,394.42,94.33,406.53,84.69,401.56Z"/></g><g id="Plant_2" data-name="Plant 2"><path class="cls-2" d="M365.15,371.09s-35.45-45,2.93-5.47c0,0-7.29-43.82,6.92,1.74,0,0,9.6-42.36,6.15,6.23,0,0,17.58-40.77,2.4,9.57,0,0-58.65,17.89-14.6-.23,0,0-60.08-3.28-4.68-5.32C364.27,377.61,304,349.65,365.15,371.09Z"/><path class="cls-25" d="M365.15,371.09s-35.45-45,2.93-5.47c0,0-7.29-43.82,6.92,1.74,0,0,9.6-42.36,6.15,6.23,0,0,17.58-40.77,2.4,9.57,0,0-58.65,17.89-14.6-.23,0,0-60.08-3.28-4.68-5.32C364.27,377.61,304,349.65,365.15,371.09Z"/><path class="cls-14" d="M369.94,371.7s20.19,12.12,25.67,29.42"/><path class="cls-8" d="M435.15,396.85h-66a2,2,0,1,0,0,3.93h1.42l4.57,17.06a9.23,9.23,0,0,0,8.91,6.85h36.17a9.23,9.23,0,0,0,8.92-6.85l4.56-17.06h1.43a2,2,0,0,0,0-3.93Z"/><path class="cls-2" d="M386.15,358.33s-21.39-64.32,5.46-4.92c0,0,9.48-51.7,7,4.72,0,0,27.69-43.3,4.34,9.41,0,0,35.94-38.33-1.16,11.61,0,0-72.47-3.64-16.16-6.12,0,0-65.56-27.77-3.07-7.79C382.56,365.24,326.69,309.91,386.15,358.33Z"/><path class="cls-14" d="M390.7,359.76s14.43,20.31,19.62,41.36"/><path class="cls-2" d="M421.85,361.34s50.43-39.72,6.13,3.29c0,0,49.11-8.17-2,7.75,0,0,47.47,10.76-7,6.89,0,0,45.69,19.7-10.72,2.69,0,0-20-65.72.26-16.35,0,0,3.68-67.33,6-5.25C414.54,360.36,445.87,292.82,421.85,361.34Z"/><path class="cls-16" d="M421.85,361.34s50.43-39.72,6.13,3.29c0,0,49.11-8.17-2,7.75,0,0,47.47,10.76-7,6.89,0,0,45.69,19.7-10.72,2.69,0,0-20-65.72.26-16.35,0,0,3.68-67.33,6-5.25C414.54,360.36,445.87,292.82,421.85,361.34Z"/><path class="cls-14" d="M398,404c9.07-30.29,25-37.64,25-37.64"/></g><g id="Shadow"><ellipse class="cls-2" cx="230.47" cy="448.56" rx="81.09" ry="15.75"/><ellipse class="cls-3" cx="230.47" cy="448.56" rx="81.09" ry="15.75"/></g><g id="Floor"><line class="cls-11" x1="26.23" y1="424.69" x2="476.14" y2="424.69"/></g><g id="Character"><path class="cls-23" d="M214,178.87l-.38-8.27s-11.35-7.11-12.11-16.15c0,0-6-13.94,12.69-19.61,14.85-4.52,14-6.73,14-6.73s3.18,2.11.24,6c0,0,5.34.58,7.45-1.35a6.4,6.4,0,0,1-5.68,4.81s3.76,3.65,7,2.5c0,0-1.18,2.89-5.88,1.35,0,0,4.37,3.43,5.88,8L238,153l3.87,2.58a1.73,1.73,0,0,1,.41,2.49l-1.61,2.07.58,3.17-.65.8,1.51,1.08.58,3s1.3,3.38.14,5.12-7.13,2-7.13,2l-.65,7.21Z"/><path class="cls-20" d="M217.82,170c-.07-3.68,4.33-6.71,4.33-6.71s-2.16.51-4-2.38-1.58-7.64,2.38-7.06a4.88,4.88,0,0,1,4.33,4.25l3.24-2c-1.58-1.87-1.22-4.39-.21-7.28s-.94-3.24-.36-5c.44-1.32,3.28-1.73,4.6-1.85-.45-.42-.75-.65-.75-.65,4.7,1.54,5.88-1.35,5.88-1.35-3.27,1.15-7-2.5-7-2.5a6.4,6.4,0,0,0,5.68-4.81c-2.11,1.93-7.45,1.35-7.45,1.35,2.94-3.85-.24-6-.24-6s.82,2.21-14,6.73c-18.65,5.67-12.69,19.61-12.69,19.61.76,9,12.11,16.15,12.11,16.15A5.41,5.41,0,0,1,217.82,170Z"/><path class="cls-11" d="M235.66,149.36s-2,0-2.69,3.55"/><path class="cls-14" d="M238.45,164.31a5.74,5.74,0,0,1-4.13-2"/><path class="cls-20" d="M223.16,164.49c.47,11.77,12.55,10.82,12.55,10.82s4.24-.2,6.27-1.31C224.25,175.39,223.16,164.49,223.16,164.49Z"/><path class="cls-4" d="M236.74,153.79c.33.7.29,1.41-.09,1.59s-1-.23-1.3-.93-.29-1.4.1-1.59S236.41,153.1,236.74,153.79Z"/><path class="cls-20" d="M245.1,425.48l2.5,15.66a56.05,56.05,0,0,0-1.69,5.77,24.37,24.37,0,0,0,0,2.61,3.31,3.31,0,0,0,3.14,3.3c3.26.17,8.16.31,10.24-.19a34.28,34.28,0,0,0,10.88-5.51,9.27,9.27,0,0,0,1.23-1.58,3.72,3.72,0,0,0,.19-3.82h0a3.7,3.7,0,0,0-3.46-2l-8.51.42-1.25-16.44Z"/><path class="cls-20" d="M194.52,425l-2.25,14.1a48.49,48.49,0,0,1,1.52,5.19,22.24,22.24,0,0,1,0,2.35,3,3,0,0,1-2.83,3c-2.93.15-7.34.27-9.21-.17a31,31,0,0,1-9.8-5,8.76,8.76,0,0,1-1.1-1.43,3.31,3.31,0,0,1-.17-3.43h0a3.34,3.34,0,0,1,3.11-1.77l7.66.38,1.13-14.8Z"/><path class="cls-2" d="M191.65,278.86s-.51,9.61-1.15,25.76c-.49,12.11-4,49.63-5,62.3-1.3,16.76-5.39,66.91-5.39,66.91s5.39,4.62,13.85,1.93c0,0,10.22-49.35,13.07-66,2-11.68,6.84-46.93,10.38-58.24,1.16-3.69,6.54-14,6.54-14V278.86Z"/><g class="cls-26"><path class="cls-27" d="M187.18,283.34s12.93,7.78,24.18,7.21c0,0,4.33,10.38,1.44,26.24S202,371.3,202,371.3s-6.82,57.3-10,56.92-12.84-2.84-12.84-2.84l.91,8.45,12.22,2.08,7.06-3.1,16.37-52L219,339.43,224.48,305,220,281.75l-23.5-6.2h-8.65Z"/></g><path class="cls-11" d="M191.65,278.86s-.51,9.61-1.15,25.76c-.49,12.11-4,49.63-5,62.3-1.3,16.76-5.39,66.91-5.39,66.91s5.39,4.62,13.85,1.93c0,0,10.22-49.35,13.07-66,2-11.68,6.84-46.93,10.38-58.24,1.16-3.69,6.54-14,6.54-14V278.86Z"/><path class="cls-11" d="M203.35,300.09A33.29,33.29,0,0,0,215.76,305"/><path class="cls-11" d="M200.81,298c.37.35.77.71,1.22,1.07"/><path class="cls-11" d="M199.33,372.34c-1.62,1.77-4.36,3-8.83.83"/><path class="cls-23" d="M271.43,201.83s6.53-13,8.23-17.5c.51-1.36,1.59-5.59,1.59-5.59s-1-5.5-1.1-7.36c0-.65.16-2.6.16-2.6l-.35-5a1.16,1.16,0,0,1,.49-1h0a1.17,1.17,0,0,1,1.78.55l.63,1.72s1.05,2.82,1.87,3.3,2.7,0,3.55-.21a25.82,25.82,0,0,0,5-2.74c.86-.57,3.28-2.52,3.28-2.52a6.83,6.83,0,0,1,.19,2,11.18,11.18,0,0,1-2.11,2.55,6.21,6.21,0,0,1,.19,2c-.22.66-1.88,2-1.88,2a11,11,0,0,1-.15,2.76c-.71,1.75-5,5.73-5,5.73s-1.4,5.45-1.62,7.3c-.75,6.5-.23,16.21-7.3,25.1L272,207.87Z"/><path class="cls-6" d="M268.75,196.37s14.26-2.83,13.08,9.23c-1.16,11.73-6,8.51-6,8.51s-6.54,2.83-7.12-.82S268.75,196.37,268.75,196.37Z"/><path class="cls-6" d="M210.25,182.52,212.7,177s6.49-.86,12-1a41.06,41.06,0,0,1,11,1.44l2.74,6.2Z"/><path class="cls-2" d="M217,278.86H249l2.13,21.89s3.33,42.65,4.41,56.94c1.52,20.24,5,81.14,5,81.14L245.91,440s-10.22-60.61-14.27-80.57c-2.67-13.18-11.15-52.11-11.15-52.11S212.8,296.16,217,278.86Z"/><g class="cls-28"><path class="cls-27" d="M220.49,307.31s.58.91,6.16,0,4.61,18.9,6.54,35.25S242,368.09,242,368.09s-1.62,10.62,0,27.54,3.15,36.34,6.61,36.15,13.07-1.73,13.07-1.73l6.35,3.51-6.35,12.64L239.72,442l-6.92-10.37-10.19-73.85-5.38-34.59,1.53-8.27Z"/></g><path class="cls-11" d="M217,278.86H249l2.13,21.89s3.33,42.65,4.41,56.94c1.52,20.24,5,81.14,5,81.14L245.91,440s-10.22-60.61-14.27-80.57c-2.67-13.18-11.15-52.11-11.15-52.11S212.8,296.16,217,278.86Z"/><path class="cls-20" d="M189.34,280.78s22.5,13.07,62.68,3.08l-2.3-38.08s8.26-30.19,7.86-51.84c-.1-5.42-4.49-9.21-9.85-10s-15.49-3-20.8-3.2c-5.94-.27-17.7,1.18-23.64,1.57-5.62.37-10.37,4.18-10.59,9.8-.35,8.89-.17,24,2.41,46.9Z"/><path class="cls-20" d="M200.82,182.52s-11.19.87-12.92,9.52-5.48,39.23-5.48,39.23l-2.31,4.84,12.12,9.58s4.66-6.23,5.48-8.65C200.74,228,200.82,182.52,200.82,182.52Z"/><path class="cls-23" d="M192.23,245.69a29.73,29.73,0,0,1-8.95,9.95c-6.05,4.18-17.16,6.06-17.16,6.06a10.9,10.9,0,0,1-1.87,1.58,13.38,13.38,0,0,1-6.35.72,5.76,5.76,0,0,1-2.74-2.45c-.2-.46.05-1.51,0-2-.1-1.18-1-3.5-.86-4.68.07-.65.88-1.75,1-2.38s-.49-2.26,0-2.75,1.95-.09,2.59,0,2,.58,2,.58l2.74-.58s.34-1.33.72-1.44c.66-.18,2.31,1.44,2.31,1.44l.58,1.45s8.94-4.9,13.84-12.55Z"/><path class="cls-20" d="M249.51,184.32s6.94.7,16,8.4l7.5,5.19s4.62,1.73,4.23,8.84-9.61,9.9-14.61,7.36-8.22-3.7-10-6c-2.59-3.36-5.94-11.72-5.77-16C246.92,190.07,249.51,184.32,249.51,184.32Z"/><path class="cls-11" d="M247.6,363.89c-1.08,1.89-3.45,4.06-8.65,4.95"/><path class="cls-29" d="M236.67,255a3.53,3.53,0,0,0,1.7-.74"/><path class="cls-29" d="M224.31,198.1s2.12,50.28,10.4,56.32"/><path class="cls-29" d="M217.08,262.32a31.72,31.72,0,0,0,21.29-2.69"/><path class="cls-29" d="M197.71,251.38a41.37,41.37,0,0,0,16.86,10.29"/><path class="cls-6" d="M181.57,233.1a61.94,61.94,0,0,0,13.5,11,8.2,8.2,0,0,1-.71,1.82c-.39.46-1.7.77-2.06,1.25s-.17,1.66-.54,2a4.86,4.86,0,0,1-1.76.55A52.91,52.91,0,0,1,177.31,239a8.52,8.52,0,0,1,.67-2.32c.23-.29,1.08-.44,1.29-.75.34-.48,0-1.87.4-2.31S181.57,233.1,181.57,233.1Z"/><path class="cls-29" d="M195.85,231.85c.08.76.15,1.53.23,2.31"/><path class="cls-29" d="M194.07,200.86c.05,7.2.44,16.64,1.56,28.62"/><path class="cls-29" d="M194.2,192.1c-.07,1.76-.12,3.75-.13,6"/><path class="cls-29" d="M246.77,199.68c1.45,3.14,4.1,6.78,8.7,10.81"/><path class="cls-2" d="M179.25,428.22a62.16,62.16,0,0,0,17.08,3.29,8,8,0,0,1,.22,1.94c-.12.59-1.13,1.48-1.22,2.08s.63,1.54.49,2.05-1.3,1.32-1.3,1.32a53.1,53.1,0,0,1-16.23-3.45,8.5,8.5,0,0,1-.5-2.35c.07-.37.74-.9.79-1.27.06-.59-.88-1.66-.74-2.23S179.25,428.22,179.25,428.22Z"/><g class="cls-30"><path class="cls-31" d="M179.25,428.22a62.16,62.16,0,0,0,17.08,3.29,8,8,0,0,1,.22,1.94c-.12.59-1.13,1.48-1.22,2.08s.63,1.54.49,2.05-1.3,1.32-1.3,1.32a53.1,53.1,0,0,1-16.23-3.45,8.5,8.5,0,0,1-.5-2.35c.07-.37.74-.9.79-1.27.06-.59-.88-1.66-.74-2.23S179.25,428.22,179.25,428.22Z"/></g><path class="cls-11" d="M179.25,428.22a62.16,62.16,0,0,0,17.08,3.29,8,8,0,0,1,.22,1.94c-.12.59-1.13,1.48-1.22,2.08s.63,1.54.49,2.05-1.3,1.32-1.3,1.32a53.1,53.1,0,0,1-16.23-3.45,8.5,8.5,0,0,1-.5-2.35c.07-.37.74-.9.79-1.27.06-.59-.88-1.66-.74-2.23S179.25,428.22,179.25,428.22Z"/><path class="cls-2" d="M244.14,434.54a61.76,61.76,0,0,0,17.31-1.73,8.05,8.05,0,0,1,.77,1.79c0,.6-.67,1.75-.58,2.34s1.05,1.3,1.06,1.83-.87,1.63-.87,1.63a52.71,52.71,0,0,1-16.53,1.35,8.38,8.38,0,0,1-1.16-2.12c0-.37.45-1.07.39-1.44-.11-.57-1.32-1.33-1.35-1.92S244.14,434.54,244.14,434.54Z"/><g class="cls-32"><path class="cls-31" d="M244.14,434.54a61.76,61.76,0,0,0,17.31-1.73,8.05,8.05,0,0,1,.77,1.79c0,.6-.67,1.75-.58,2.34s1.05,1.3,1.06,1.83-.87,1.63-.87,1.63a52.71,52.71,0,0,1-16.53,1.35,8.38,8.38,0,0,1-1.16-2.12c0-.37.45-1.07.39-1.44-.11-.57-1.32-1.33-1.35-1.92S244.14,434.54,244.14,434.54Z"/></g><path class="cls-11" d="M244.14,434.54a61.76,61.76,0,0,0,17.31-1.73,8.05,8.05,0,0,1,.77,1.79c0,.6-.67,1.75-.58,2.34s1.05,1.3,1.06,1.83-.87,1.63-.87,1.63a52.71,52.71,0,0,1-16.53,1.35,8.38,8.38,0,0,1-1.16-2.12c0-.37.45-1.07.39-1.44-.11-.57-1.32-1.33-1.35-1.92S244.14,434.54,244.14,434.54Z"/><path class="cls-11" d="M243.27,287.62s-.28,13,5.11,13.21"/><path class="cls-6" d="M201.46,154.45c.76,9,12.11,16.15,12.11,16.15a5.41,5.41,0,0,1,4.25-.62c-.07-3.68,4.33-6.71,4.33-6.71s-2.16.51-4-2.38-1.58-7.64,2.38-7.06a4.88,4.88,0,0,1,4.33,4.25l3.24-2c-1.58-1.87-1.22-4.39-.21-7.28s-.94-3.24-.36-5C227.49,143.88,221.26,150,201.46,154.45Z"/></g></svg>