<svg id="Layer_1" data-name="Layer 1" xmlns="http://www.w3.org/2000/svg" viewBox="0 0 595.62 595.28"><defs><style>.cls-1{font-size:60.66px;font-family:Impact;}.cls-1,.cls-3,.cls-4,.cls-5,.cls-6{fill:none;stroke:#2c2c2c;}.cls-1,.cls-3,.cls-4,.cls-5{stroke-miterlimit:10;}.cls-1,.cls-6{stroke-width:3px;}.cls-2{fill:#2c2c2c;}.cls-3{stroke-width:4px;}.cls-4{stroke-width:6px;}.cls-5{stroke-width:2px;}.cls-6{stroke-linecap:round;stroke-linejoin:round;}</style></defs><text class="cls-1" transform="matrix(0.76, -0.65, 0.65, 0.76, 156.66, 158.15)">В</text><text class="cls-1" transform="matrix(0.87, -0.49, 0.49, 0.87, 180.22, 137.03)">ы</text><text class="cls-1" transform="matrix(0.95, -0.32, 0.32, 0.95, 220.22, 115.18)">п</text><text class="cls-1" transform="translate(249.35 105.38) rotate(-9.89)">о</text><text class="cls-1" transform="translate(278.36 100.09) rotate(-1.17)">л</text><text class="cls-1" transform="translate(310.73 99.36) rotate(7.65)">н</text><text class="cls-1" transform="matrix(0.96, 0.28, -0.28, 0.96, 341.25, 103.38)">е</text><text class="cls-1" transform="translate(369.6 111.46) rotate(24.84)">н</text><text class="cls-1" transform="translate(397.54 124.32) rotate(33.43)">о</text><text class="cls-1" transform="matrix(0.78, 0.63, -0.63, 0.78, 422.3, 141.2)"> </text><text class="cls-1" transform="translate(430.17 147.57) rotate(41.97)"> </text><text class="cls-1" transform="matrix(0.71, 0.71, -0.71, 0.71, 437.72, 154.35)"> </text><text class="cls-1" transform="matrix(0.67, 0.74, -0.74, 0.67, 444.92, 161.5)"> </text><text class="cls-1" transform="translate(451.75 169) rotate(50.69)"> </text><text class="cls-1" transform="matrix(0.59, 0.81, -0.81, 0.59, 458.19, 176.85)"> </text><text class="cls-1" transform="translate(464.22 185.01) rotate(56.54)"> </text><text class="cls-1" transform="matrix(0.51, 0.86, -0.86, 0.51, 469.82, 193.46)"> </text><text class="cls-1" transform="translate(474.99 202.19) rotate(62.43)"> </text><text class="cls-1" transform="translate(479.68 211.15) rotate(65.39)"> </text><text class="cls-1" transform="translate(483.92 220.37) rotate(68.36)"> </text><text class="cls-1" transform="translate(487.67 229.77) rotate(71.33)"> </text><text class="cls-1" transform="translate(490.93 239.37) rotate(74.31)"> </text><text class="cls-1" transform="matrix(0.22, 0.98, -0.98, 0.22, 493.69, 249.14)"> </text><text class="cls-1" transform="translate(495.93 259.01) rotate(80.27)"> </text><text class="cls-1" transform="translate(497.66 269) rotate(83.23)"> </text><text class="cls-1" transform="translate(498.87 279.08) rotate(86.19)"> </text><text class="cls-1" transform="matrix(0.02, 1, -1, 0.02, 499.55, 289.11)"> </text><text class="cls-1" transform="translate(499.73 299.31) rotate(92.02)"> </text><text class="cls-1" transform="translate(499.38 309.46) rotate(94.96)"> </text><text class="cls-1" transform="translate(498.52 319.56) rotate(97.91)"> </text><text class="cls-1" transform="translate(497.14 329.59) rotate(100.88)"> </text><text class="cls-1" transform="translate(495.24 339.56) rotate(103.86)"> </text><text class="cls-1" transform="matrix(-0.29, 0.96, -0.96, -0.29, 492.83, 349.4)"> </text><text class="cls-1" transform="translate(489.91 359.1) rotate(109.82)"> </text><text class="cls-1" transform="translate(486.48 368.64) rotate(112.79)"> </text><text class="cls-1" transform="translate(482.57 377.99) rotate(115.76)"> </text><text class="cls-1" transform="matrix(-0.48, 0.88, -0.88, -0.48, 478.17, 387.13)"> </text><text class="cls-1" transform="translate(473.32 396.01) rotate(121.65)"> </text><text class="cls-1" transform="matrix(-0.57, 0.82, -0.82, -0.57, 468.01, 404.66)"> </text><text class="cls-1" transform="matrix(-0.61, 0.79, -0.79, -0.61, 462.27, 413.02)"> </text><text class="cls-1" transform="translate(456.1 421.07) rotate(130.43)"> </text><text class="cls-1" transform="translate(449.53 428.8) rotate(133.34)"> </text><text class="cls-1" transform="translate(443.27 436.22) rotate(138.98)">А</text><text class="cls-1" transform="matrix(-0.84, 0.55, -0.55, -0.84, 421.07, 455.46)">т</text><text class="cls-1" transform="translate(400.59 469.23) rotate(154.43)">к</text><text class="cls-1" transform="translate(374.02 482.06) rotate(162.8)">а</text><text class="cls-1" transform="translate(346.31 490.78) rotate(171.2)">р</text><text class="cls-1" transform="translate(317.13 496.2) rotate(-178.27)">ы</text><text class="cls-1" transform="translate(271.58 494.38) rotate(-167.3)">л</text><text class="cls-1" transform="matrix(-0.92, -0.38, 0.38, -0.92, 240, 487.58)">д</text><text class="cls-1" transform="translate(206.63 474.54) rotate(-145.96)">ы</text><path class="cls-2" d="M297.81,569.47C147.92,569.47,26,447.53,26,297.64S147.92,25.81,297.81,25.81,569.65,147.75,569.65,297.64,447.7,569.47,297.81,569.47Zm0-530C155.48,39.5,39.68,155.3,39.68,297.64s115.8,258.13,258.13,258.13S556,440,556,297.64,440.15,39.5,297.81,39.5Z"/><ellipse class="cls-3" cx="299.59" cy="296.32" rx="141.76" ry="143.15"/><ellipse class="cls-4" cx="299.3" cy="296.03" rx="183.11" ry="181.3"/><path class="cls-5" d="M405.35,181.06a5.64,5.64,0,0,1,9.76-2.45c1.11,1.19.91,1.87,2.07,3,.42.4,1.47,1.41,2.51,1.16a1.8,1.8,0,0,0,1.22-1c.63-3.28,6.31-5,7.1-4.28s-.81,7.28-3.86,7.86a1.8,1.8,0,0,0-1,1.12,3.3,3.3,0,0,0,.71,2.64c1,1.34,2,1,3.13,2.41a5.42,5.42,0,0,1,.95,1.85,7.3,7.3,0,0,1-.86,5.66,5.83,5.83,0,0,1-2,2c-2.5,1.42-6.32.69-7.66-1.68-.73-1.28-.87-3.29-.06-4.17a1,1,0,0,1,.73-.37c.49,0,.65.71,1.33,1.68a4.64,4.64,0,0,0,1.56,1.61,2.67,2.67,0,0,0,2.3.16,2.76,2.76,0,0,0,1.35-1.31,3.62,3.62,0,0,0-.07-2.94c-.92-1.91-3.52-2.31-5-2.21a6.72,6.72,0,0,0-5.69,4.09c-1.05,2.8.66,5.42-.08,5.85-.42.24-1.27-.43-4.86-4.54-4-4.56-4.48-5.5-4.21-5.92.48-.74,2.54,1.06,5.3.29a7,7,0,0,0,4.75-5.32A5.9,5.9,0,0,0,414,182a3.47,3.47,0,0,0-2.16-1.61,2.64,2.64,0,0,0-2,.42,2.76,2.76,0,0,0-1,1.62,3.47,3.47,0,0,0,1.31,3.49,2.31,2.31,0,0,1,.93.74c0,.07.44.66.27,1.07-.26.61-1.63.61-2.58.35a5.08,5.08,0,0,1-2.86-2.41A6,6,0,0,1,405.35,181.06Z"/><path class="cls-5" d="M368.6,155.82a5.93,5.93,0,0,1,2.09-3.86,5.81,5.81,0,0,1,4.46-1.66,5.59,5.59,0,0,1,2.54,1.08c1.31.93,1.25,1.64,2.6,2.48.48.31,1.71,1.08,2.68.61a1.82,1.82,0,0,0,1-1.26c0-3.36,5.24-6.25,6.15-5.69s.59,7.31-2.29,8.51a1.85,1.85,0,0,0-.76,1.31,3.25,3.25,0,0,0,1.2,2.43c1.23,1.1,2.18.59,3.53,1.71a5.3,5.3,0,0,1,1.28,1.62,7.3,7.3,0,0,1,.23,5.72,5.94,5.94,0,0,1-1.6,2.42c-2.17,1.92-6.05,2-7.82,0-.95-1.11-1.48-3-.85-4.07a1,1,0,0,1,.65-.52c.49-.06.77.56,1.62,1.37a4.51,4.51,0,0,0,1.83,1.25,2.72,2.72,0,0,0,2.29-.32,2.86,2.86,0,0,0,1.07-1.57,3.58,3.58,0,0,0-.63-2.87c-1.26-1.68-3.88-1.53-5.32-1.12a6.89,6.89,0,0,0-4.79,5.2c-.5,3,1.67,5.17,1,5.74-.36.33-1.32-.14-5.63-3.43-4.77-3.63-5.43-4.44-5.25-4.91.34-.83,2.7.5,5.25-.83a7.17,7.17,0,0,0,3.64-6.2,5.83,5.83,0,0,0-1.51-4,3.39,3.39,0,0,0-2.43-1.12,2.68,2.68,0,0,0-1.86.82,2.9,2.9,0,0,0-.72,1.81,3.45,3.45,0,0,0,2,3.15,2.28,2.28,0,0,1,1,.52c.05.06.55.56.46,1-.13.64-1.48.94-2.45.88a5,5,0,0,1-3.27-1.77A5.91,5.91,0,0,1,368.6,155.82Z"/><path class="cls-5" d="M327.11,144.31a6.83,6.83,0,0,1,3.72-7.91,5.52,5.52,0,0,1,2.73-.15c1.57.27,1.8.93,3.36,1.1.56.07,2,.22,2.67-.63a1.9,1.9,0,0,0,.4-1.59c-1.36-3,2.23-8,3.28-7.88s3.48,6.36,1.35,8.73a1.89,1.89,0,0,0-.16,1.52c.34,1.17,1.85,1.62,2.06,1.68,1.57.45,2.21-.43,3.89,0a4.81,4.81,0,0,1,1.81.9,7.07,7.07,0,0,1,2.51,5.08,6.15,6.15,0,0,1-.47,2.9c-1.2,2.71-4.69,4.5-7.11,3.43-1.31-.58-2.57-2.11-2.41-3.32a1.11,1.11,0,0,1,.38-.76c.42-.27.93.17,2,.53a4.34,4.34,0,0,0,2.17.32,2.79,2.79,0,0,0,1.94-1.3,3,3,0,0,0,.34-1.9,3.46,3.46,0,0,0-1.73-2.32c-1.81-1-4.13.34-5.26,1.34a7.2,7.2,0,0,0-2.26,6.84c.74,2.91,3.59,3.94,3.24,4.75-.2.46-1.26.45-6.48-.62-5.79-1.18-6.72-1.62-6.73-2.13,0-.9,2.64-.73,4.42-3.07a7.43,7.43,0,0,0,.81-7.24,5.51,5.51,0,0,0-3-3,3.3,3.3,0,0,0-2.65.06,2.77,2.77,0,0,0-1.35,1.57,2.83,2.83,0,0,0,.07,2,3.26,3.26,0,0,0,3,2,2.16,2.16,0,0,1,1.16,0c.07,0,.73.26.82.7.14.64-1,1.51-1.87,1.88a4.75,4.75,0,0,1-3.67-.15A5.64,5.64,0,0,1,327.11,144.31Z"/><path class="cls-5" d="M283.57,142.84a6.2,6.2,0,0,1-.63-4.4,6.35,6.35,0,0,1,2.54-4.19,5.48,5.48,0,0,1,2.63-.8c1.58-.12,1.94.48,3.5.27.56-.07,2-.26,2.47-1.26a1.93,1.93,0,0,0,0-1.64c-2-2.63.43-8.31,1.48-8.45s4.77,5.36,3.21,8.17a1.88,1.88,0,0,0,.17,1.52,3,3,0,0,0,2.38,1.14c1.62.07,2.06-.95,3.78-.94a4.83,4.83,0,0,1,2,.44,7,7,0,0,1,3.55,4.35,6.37,6.37,0,0,1,.17,2.94c-.59,2.92-3.59,5.5-6.18,5-1.4-.26-3-1.44-3.06-2.66a1,1,0,0,1,.2-.82c.35-.37.94-.07,2.08,0a4.32,4.32,0,0,0,2.18-.2,2.79,2.79,0,0,0,1.52-3.67,3.29,3.29,0,0,0-2.18-1.84c-2-.5-3.95,1.31-4.84,2.56a7.34,7.34,0,0,0-.71,7.2c1.35,2.65,4.36,3,4.19,3.85-.09.49-1.12.74-6.44.95-5.9.24-6.89,0-7-.46-.23-.87,2.41-1.35,3.64-4.05a7.42,7.42,0,0,0-.79-7.24,5.35,5.35,0,0,0-3.55-2.18,3.29,3.29,0,0,0-2.57.69,2.9,2.9,0,0,0-1,1.85,2.81,2.81,0,0,0,.5,1.88,3.14,3.14,0,0,0,3.39,1.21,2.36,2.36,0,0,1,1.13-.26c.08,0,.77.08.95.48.28.59-.61,1.7-1.41,2.29a4.85,4.85,0,0,1-3.61.73A5.5,5.5,0,0,1,283.57,142.84Z"/><ellipse class="cls-5" cx="429.5" cy="206.29" rx="2.46" ry="2.58"/><ellipse class="cls-5" cx="399.8" cy="174.19" rx="2.46" ry="2.58"/><ellipse class="cls-5" cx="362.61" cy="150.52" rx="2.46" ry="2.58"/><ellipse class="cls-5" cx="319.45" cy="139.02" rx="2.46" ry="2.58"/><path class="cls-5" d="M431.27,215.53a6.27,6.27,0,0,1,8.12-2.29,6.13,6.13,0,0,1,1.91,2.06c.84,1.42.51,2,1.42,3.38.33.48,1.15,1.7,2.22,1.69a1.75,1.75,0,0,0,1.4-.74c1.28-3.08,7.19-3.52,7.81-2.61s-2.26,6.94-5.36,6.82a1.75,1.75,0,0,0-1.2.88,3.37,3.37,0,0,0,.16,2.73c.71,1.53,1.77,1.46,2.58,3.05a5.54,5.54,0,0,1,.55,2,7.12,7.12,0,0,1-2,5.33,5.64,5.64,0,0,1-2.39,1.55c-2.73.83-6.31-.73-7.14-3.35-.45-1.41-.19-3.41.78-4.08a1,1,0,0,1,.79-.21c.47.16.5.84,1,1.94a4.72,4.72,0,0,0,1.2,1.92,2.52,2.52,0,0,0,3.8-.31,3.59,3.59,0,0,0,.52-2.89c-.51-2.07-3-3-4.44-3.27a6.54,6.54,0,0,0-6.38,2.73c-1.59,2.51-.45,5.44-1.26,5.7-.46.14-1.15-.69-3.84-5.52-3-5.34-3.27-6.36-2.92-6.71.63-.62,2.27,1.6,5.12,1.46a6.84,6.84,0,0,0,5.72-4.14,6,6,0,0,0,.15-4.32,3.56,3.56,0,0,0-1.79-2.05,2.57,2.57,0,0,0-2,0,2.78,2.78,0,0,0-1.35,1.35,3.56,3.56,0,0,0,.58,3.71,2.51,2.51,0,0,1,.76.92c0,.08.3.75,0,1.12-.36.53-1.71.23-2.58-.24a5.18,5.18,0,0,1-2.31-3A6,6,0,0,1,431.27,215.53Z"/><path class="cls-5" d="M451.27,255.3a5.46,5.46,0,0,1,4.11-1.09,5.9,5.9,0,0,1,4.23,2.23,6.24,6.24,0,0,1,1,2.66c.26,1.65-.26,2.08.09,3.69.13.58.45,2,1.44,2.45a1.69,1.69,0,0,0,1.56-.12c2.3-2.33,7.92-.37,8.16.71s-4.61,5.51-7.42,4.16a1.7,1.7,0,0,0-1.44.34c-.93.71-.85,2.36-.84,2.59.1,1.7,1.11,2.05,1.27,3.85a5.5,5.5,0,0,1-.22,2.09,6.79,6.79,0,0,1-3.77,4.14,5.45,5.45,0,0,1-2.77.47c-2.83-.31-5.57-3.19-5.39-6,.1-1.48,1.07-3.23,2.21-3.46a.92.92,0,0,1,.8.13c.38.33.16,1,.19,2.18a4.83,4.83,0,0,0,.41,2.25,2.88,2.88,0,0,0,1.8,1.51,2.55,2.55,0,0,0,1.82-.28,3.49,3.49,0,0,0,1.53-2.46c.28-2.12-1.64-4-2.91-4.8a6.43,6.43,0,0,0-6.89,0c-2.39,1.68-2.4,4.85-3.24,4.76-.47-.05-.81-1.1-1.54-6.63-.81-6.13-.71-7.2-.26-7.38.8-.32,1.52,2.39,4.2,3.4a6.57,6.57,0,0,0,6.79-1.54,5.8,5.8,0,0,0,1.71-3.93,3.79,3.79,0,0,0-.91-2.62,2.67,2.67,0,0,0-1.85-.83,2.6,2.6,0,0,0-1.74.7,3.55,3.55,0,0,0-.81,3.67,2.52,2.52,0,0,1,.36,1.15c0,.08,0,.81-.36,1-.53.35-1.67-.47-2.3-1.25a5.49,5.49,0,0,1-1.06-3.69A5.94,5.94,0,0,1,451.27,255.3Z"/><path class="cls-5" d="M455.38,303.61a5.36,5.36,0,0,1,4.22.29,6,6,0,0,1,3.34,3.49,6.37,6.37,0,0,1,.16,2.86c-.25,1.65-.88,1.9-1,3.54-.05.59-.19,2.08.62,2.79a1.68,1.68,0,0,0,1.52.39c2.89-1.47,7.63,2.22,7.53,3.33s-6,3.74-8.31,1.54a1.68,1.68,0,0,0-1.45-.14c-1.11.37-1.53,2-1.59,2.19-.42,1.64.42,2.31,0,4.07a5.4,5.4,0,0,1-.85,1.91,6.62,6.62,0,0,1-4.83,2.72,5.34,5.34,0,0,1-2.77-.45c-2.59-1.22-4.32-4.85-3.31-7.41.54-1.38,2-2.72,3.15-2.57a1,1,0,0,1,.72.38c.26.44-.15,1-.49,2.13a4.88,4.88,0,0,0-.29,2.28,3,3,0,0,0,1.25,2,2.56,2.56,0,0,0,1.81.32,3.38,3.38,0,0,0,2.21-1.84c.9-1.92-.35-4.33-1.31-5.51a6.48,6.48,0,0,0-6.53-2.26c-2.77.82-3.75,3.83-4.52,3.48-.43-.2-.43-1.31.55-6.81,1.09-6.09,1.51-7.07,2-7.09.86-.05.71,2.76,3,4.59a6.54,6.54,0,0,0,6.91.73,5.6,5.6,0,0,0,2.81-3.18,3.72,3.72,0,0,0-.07-2.78,2.73,2.73,0,0,0-1.5-1.39,2.57,2.57,0,0,0-1.86.1,3.47,3.47,0,0,0-1.88,3.23,2.59,2.59,0,0,1,0,1.21c0,.08-.24.77-.66.87-.61.16-1.44-1-1.81-1.93a5.47,5.47,0,0,1,.13-3.85A5.7,5.7,0,0,1,455.38,303.61Z"/><path class="cls-5" d="M447.07,346.08a5.51,5.51,0,0,1,4,1.56,5.74,5.74,0,0,1,1.64,7.17c-.68,1.51-1.35,1.55-1.93,3.08-.21.55-.75,1.94-.16,2.87a1.76,1.76,0,0,0,1.35.84c3.16-.54,6.7,4.44,6.31,5.48s-6.78,1.76-8.36-1a1.69,1.69,0,0,0-1.35-.58c-1.16,0-2,1.42-2.11,1.62-.84,1.45-.21,2.35-1.05,3.92a5.22,5.22,0,0,1-1.32,1.58,6.35,6.35,0,0,1-5.35,1.14,5.69,5.69,0,0,1-2.53-1.27c-2.15-2-2.83-6-1.18-8.12.88-1.16,2.63-2,3.69-1.52a1,1,0,0,1,.59.59c.14.5-.4.89-1,1.9a4.88,4.88,0,0,0-.89,2.09,3.11,3.11,0,0,0,.66,2.33,2.62,2.62,0,0,0,1.65.86,3.18,3.18,0,0,0,2.59-1.11c1.39-1.56.83-4.26.22-5.68a6.73,6.73,0,0,0-5.64-4.16c-2.87-.05-4.6,2.55-5.25,2-.36-.32-.06-1.39,2.35-6.37,2.67-5.52,3.33-6.33,3.8-6.21.84.22-.05,2.87,1.6,5.31a6.65,6.65,0,0,0,6.41,2.8,5.27,5.27,0,0,0,3.54-2.2,3.73,3.73,0,0,0,.68-2.68,2.84,2.84,0,0,0-1.06-1.8,2.56,2.56,0,0,0-1.81-.47,3.32,3.32,0,0,0-2.66,2.53,2.71,2.71,0,0,1-.33,1.16c-.05.07-.44.67-.87.64-.63,0-1.11-1.39-1.21-2.41a5.4,5.4,0,0,1,1.15-3.66A5.46,5.46,0,0,1,447.07,346.08Z"/><path class="cls-5" d="M425.55,388.11a5.7,5.7,0,0,1,3.52,2.48,6.52,6.52,0,0,1,1.25,4.79,6.34,6.34,0,0,1-1.21,2.58c-1,1.3-1.65,1.18-2.56,2.53-.32.49-1.14,1.71-.77,2.76a1.78,1.78,0,0,0,1.13,1.14c3.19.23,5.56,5.93,5,6.85s-7,.08-7.92-3a1.76,1.76,0,0,0-1.19-.89c-1.14-.25-2.25.91-2.4,1.08-1.14,1.21-.72,2.23-1.88,3.56a5,5,0,0,1-1.63,1.23,6.34,6.34,0,0,1-5.45-.18,5.7,5.7,0,0,1-2.19-1.84c-1.67-2.42-1.46-6.49.61-8.19,1.12-.92,3-1.33,3.93-.59a1.07,1.07,0,0,1,.45.71c0,.52-.59.77-1.42,1.6a4.75,4.75,0,0,0-1.33,1.83,3.14,3.14,0,0,0,.14,2.42,2.73,2.73,0,0,0,1.42,1.23,3.2,3.2,0,0,0,2.77-.45c1.68-1.2,1.73-3.95,1.45-5.48a6.91,6.91,0,0,0-4.59-5.4c-2.78-.74-5,1.37-5.54.66-.28-.4.24-1.37,3.67-5.64,3.8-4.73,4.63-5.37,5.06-5.14.76.41-.68,2.79.4,5.56a6.83,6.83,0,0,0,5.63,4.26,5.16,5.16,0,0,0,3.92-1.29,3.65,3.65,0,0,0,1.25-2.46,2.91,2.91,0,0,0-.65-2,2.56,2.56,0,0,0-1.66-.89,3.24,3.24,0,0,0-3.14,1.82,2.44,2.44,0,0,1-.57,1.05c-.06.06-.57.55-1,.42-.61-.19-.79-1.62-.66-2.64a5.25,5.25,0,0,1,1.92-3.28A5.3,5.3,0,0,1,425.55,388.11Z"/><path class="cls-5" d="M394.84,419.68a5.82,5.82,0,0,1,2.84,3.28,6.58,6.58,0,0,1,.11,5,6.05,6.05,0,0,1-1.77,2.2c-1.26,1-1.87.74-3.06,1.83-.43.39-1.51,1.38-1.39,2.49a1.8,1.8,0,0,0,.83,1.38c3,1,4,7.15,3.23,7.89s-6.8-1.66-7-4.9a1.8,1.8,0,0,0-.95-1.17c-1-.52-2.39.33-2.57.45-1.39.9-1.22,2-2.65,3a5.08,5.08,0,0,1-1.87.78,6.45,6.45,0,0,1-5.25-1.53,5.82,5.82,0,0,1-1.69-2.34c-1.06-2.76.08-6.66,2.48-7.8,1.3-.61,3.22-.54,3.95.41a1.07,1.07,0,0,1,.27.8c-.1.51-.75.61-1.75,1.21a4.51,4.51,0,0,0-1.7,1.44,3.08,3.08,0,0,0-.43,2.38,2.77,2.77,0,0,0,1.09,1.55,3.14,3.14,0,0,0,2.79.25c1.92-.74,2.6-3.4,2.68-5a7.1,7.1,0,0,0-3.21-6.39c-2.53-1.41-5.2.08-5.52-.73-.19-.47.54-1.28,4.86-4.57,4.78-3.65,5.73-4.06,6.09-3.72.65.58-1.3,2.53-.89,5.49a7,7,0,0,0,4.47,5.54,5.12,5.12,0,0,0,4.11-.28,3.5,3.5,0,0,0,1.78-2.07,3,3,0,0,0-.16-2.11,2.7,2.7,0,0,0-1.41-1.27,3.18,3.18,0,0,0-3.47,1,2.31,2.31,0,0,1-.8.88c-.07,0-.68.39-1.05.16-.54-.33-.38-1.77,0-2.72a5.17,5.17,0,0,1,2.61-2.72A5.32,5.32,0,0,1,394.84,419.68Z"/><path class="cls-5" d="M354,440.17a6.15,6.15,0,0,1,1.75,4.05,6.58,6.58,0,0,1-1.35,4.76,5.79,5.79,0,0,1-2.33,1.52c-1.49.56-2,.09-3.44.74-.52.23-1.84.82-2.05,1.91a1.87,1.87,0,0,0,.39,1.59c2.59,2,1.73,8.12.76,8.57s-6-3.8-5.21-6.95a1.85,1.85,0,0,0-.56-1.42,2.94,2.94,0,0,0-2.58-.42c-1.57.4-1.73,1.5-3.39,2a4.71,4.71,0,0,1-2,.13,6.67,6.67,0,0,1-4.54-3.16,6.11,6.11,0,0,1-.93-2.79c-.2-3,2-6.31,4.64-6.61,1.41-.16,3.22.54,3.63,1.68a1.08,1.08,0,0,1,0,.85c-.25.45-.89.33-2,.58a4.31,4.31,0,0,0-2,.81,3,3,0,0,0-1.1,2.13,2.9,2.9,0,0,0,.58,1.83,3.23,3.23,0,0,0,2.58,1.16c2-.09,3.46-2.4,4-3.85a7.3,7.3,0,0,0-1.18-7.13c-2-2.17-5-1.63-5-2.51,0-.5.89-1,6-2.76,5.6-1.91,6.62-2,6.87-1.55.44.77-2,2-2.45,4.93a7.3,7.3,0,0,0,2.63,6.74,5.15,5.15,0,0,0,4,1.08,3.4,3.4,0,0,0,2.29-1.39,3,3,0,0,0,.46-2.06,2.77,2.77,0,0,0-1-1.68,3.15,3.15,0,0,0-3.58-.19,2.3,2.3,0,0,1-1,.58c-.08,0-.76.14-1.05-.2s.15-1.8.77-2.6a5,5,0,0,1,3.28-1.73A5.33,5.33,0,0,1,354,440.17Z"/><path class="cls-5" d="M308.43,450a6.2,6.2,0,0,1,.63,4.4,6.38,6.38,0,0,1-2.53,4.2,5.58,5.58,0,0,1-2.63.79c-1.59.12-1.95-.47-3.51-.26-.56.07-2,.26-2.46,1.25a1.91,1.91,0,0,0,0,1.65c2,2.63-.44,8.3-1.49,8.45s-4.77-5.36-3.21-8.17a1.91,1.91,0,0,0-.17-1.53,3,3,0,0,0-2.38-1.13c-1.61-.07-2.05.95-3.77.94a4.83,4.83,0,0,1-2-.44,6.9,6.9,0,0,1-3.55-4.34,6.25,6.25,0,0,1-.18-2.95c.59-2.92,3.59-5.5,6.18-5,1.4.25,3,1.44,3.06,2.66a1,1,0,0,1-.2.82c-.35.37-.93.07-2.08,0a4.32,4.32,0,0,0-2.18.2,2.79,2.79,0,0,0-1.52,3.67,3.33,3.33,0,0,0,2.18,1.84c2,.5,3.95-1.31,4.84-2.56a7.31,7.31,0,0,0,.71-7.2c-1.35-2.66-4.36-3-4.19-3.85.09-.49,1.12-.74,6.44-.95,5.89-.24,6.89,0,7,.46.23.87-2.41,1.35-3.64,4a7.42,7.42,0,0,0,.79,7.24,5.34,5.34,0,0,0,3.56,2.17,3.3,3.3,0,0,0,2.56-.68,2.78,2.78,0,0,0,.48-3.74,3.17,3.17,0,0,0-3.39-1.21,2.24,2.24,0,0,1-1.13.27c-.08,0-.77-.08-.95-.49-.28-.59.61-1.69,1.41-2.28a4.85,4.85,0,0,1,3.61-.73A5.47,5.47,0,0,1,308.43,450Z"/><ellipse class="cls-5" cx="450.1" cy="245.88" rx="2.46" ry="2.58"/><ellipse class="cls-5" cx="457.47" cy="293.38" rx="2.46" ry="2.58"/><ellipse class="cls-5" cx="452.55" cy="339.87" rx="2.46" ry="2.58"/><ellipse class="cls-5" cx="432.01" cy="380.76" rx="2.46" ry="2.58"/><ellipse class="cls-5" cx="400.7" cy="416.85" rx="2.46" ry="2.58"/><ellipse class="cls-5" cx="362.34" cy="442.35" rx="2.46" ry="2.58"/><ellipse class="cls-5" cx="318.86" cy="452.7" rx="2.46" ry="2.58"/><path class="cls-5" d="M194.18,183.05a5.77,5.77,0,0,0-2.7-3.35,5.43,5.43,0,0,0-4.54-.69,5.64,5.64,0,0,0-2.21,1.59c-1.08,1.19-.89,1.86-2,3-.4.39-1.43,1.4-2.43,1.15a1.73,1.73,0,0,1-1.18-1c-.61-3.29-6.12-5-6.89-4.28s.79,7.28,3.74,7.85a1.78,1.78,0,0,1,1,1.13,3.4,3.4,0,0,1-.69,2.64c-1,1.33-2,1-3,2.4a5.45,5.45,0,0,0-.91,1.86,7.47,7.47,0,0,0,.82,5.65,5.76,5.76,0,0,0,2,2c2.42,1.43,6.12.7,7.42-1.68.7-1.28.84-3.29.05-4.16a.92.92,0,0,0-.71-.38c-.47,0-.63.71-1.29,1.68a4.52,4.52,0,0,1-1.5,1.62,2.61,2.61,0,0,1-2.24.16,2.74,2.74,0,0,1-1.3-1.32,3.71,3.71,0,0,1,.07-2.94c.89-1.9,3.41-2.3,4.84-2.21a6.51,6.51,0,0,1,5.51,4.09c1,2.81-.63,5.42.08,5.85.41.24,1.23-.42,4.72-4.54,3.86-4.56,4.34-5.49,4.07-5.91-.47-.75-2.46,1.06-5.13.29a6.92,6.92,0,0,1-4.6-5.32,6.05,6.05,0,0,1,.7-4.25,3.34,3.34,0,0,1,2.09-1.61,2.47,2.47,0,0,1,1.92.41,2.8,2.8,0,0,1,1,1.62,3.55,3.55,0,0,1-1.27,3.5,2.3,2.3,0,0,0-.9.73c0,.07-.42.67-.26,1.08.25.6,1.58.61,2.5.34a5,5,0,0,0,2.77-2.41A6.16,6.16,0,0,0,194.18,183.05Z"/><path class="cls-5" d="M228.89,157.49a6,6,0,0,0-2-3.9,5.59,5.59,0,0,0-4.3-1.73,5.35,5.35,0,0,0-2.47,1c-1.29.92-1.24,1.62-2.56,2.44-.48.3-1.68,1-2.61.57a1.81,1.81,0,0,1-.94-1.29c.06-3.35-5-6.33-5.86-5.78s-.7,7.29,2.07,8.54a1.86,1.86,0,0,1,.72,1.32,3.27,3.27,0,0,1-1.21,2.42c-1.21,1.08-2.12.55-3.44,1.64a5.37,5.37,0,0,0-1.27,1.6,7.48,7.48,0,0,0-.33,5.71,6,6,0,0,0,1.51,2.45c2.08,2,5.83,2.11,7.58.09.94-1.08,1.49-3,.89-4a1,1,0,0,0-.62-.53c-.47-.07-.76.54-1.59,1.34a4.35,4.35,0,0,1-1.8,1.22,2.57,2.57,0,0,1-2.21-.36,2.86,2.86,0,0,1-1-1.59,3.65,3.65,0,0,1,.66-2.85c1.25-1.66,3.79-1.46,5.17-1a6.82,6.82,0,0,1,4.56,5.28c.43,3-1.71,5.14-1.1,5.72.35.34,1.28-.12,5.51-3.33,4.69-3.55,5.34-4.36,5.17-4.83-.31-.83-2.62.46-5.07-.91a7.21,7.21,0,0,1-3.42-6.26,5.91,5.91,0,0,1,1.54-4,3.21,3.21,0,0,1,2.36-1.09,2.55,2.55,0,0,1,1.79.86,3,3,0,0,1,.67,1.81,3.45,3.45,0,0,1-1.95,3.12,2.16,2.16,0,0,0-1,.51c-.06.05-.55.55-.47,1,.11.64,1.42,1,2.36.92a4.76,4.76,0,0,0,3.19-1.71A6,6,0,0,0,228.89,157.49Z"/><path class="cls-5" d="M267.91,143.7a6.35,6.35,0,0,0-1-4.33,6.08,6.08,0,0,0-3.73-3,5.25,5.25,0,0,0-2.65.24c-1.46.48-1.58,1.18-3.06,1.56-.53.14-1.86.5-2.65-.25a2,2,0,0,1-.61-1.52c.87-3.19-3.27-7.58-4.27-7.33s-2.42,6.79,0,8.82a2,2,0,0,1,.38,1.49c-.17,1.2-1.55,1.86-1.74,2-1.44.67-2.19-.11-3.73.53a4.77,4.77,0,0,0-1.61,1.15,7.24,7.24,0,0,0-1.69,5.38,6.51,6.51,0,0,0,.87,2.81c1.54,2.51,5.14,3.79,7.31,2.39,1.17-.76,2.16-2.44,1.83-3.62a1.05,1.05,0,0,0-.47-.7c-.44-.21-.86.3-1.86.81a4,4,0,0,1-2,.62,2.72,2.72,0,0,1-2.05-1,2.94,2.94,0,0,1-.59-1.83,3.35,3.35,0,0,1,1.32-2.53c1.6-1.21,4-.25,5.24.58a7.34,7.34,0,0,1,3.14,6.45c-.3,3-2.89,4.41-2.44,5.16.26.42,1.27.27,6.13-1.52,5.38-2,6.21-2.56,6.15-3.06-.09-.9-2.64-.36-4.68-2.42a7.63,7.63,0,0,1-1.8-7,5.46,5.46,0,0,1,2.44-3.36,3.13,3.13,0,0,1,2.55-.32,2.76,2.76,0,0,1,1.52,1.37,2.92,2.92,0,0,1,.21,1.94,3.16,3.16,0,0,1-2.63,2.4,2.13,2.13,0,0,0-1.11.17c-.07,0-.66.36-.69.81,0,.65,1.14,1.35,2.07,1.6a4.51,4.51,0,0,0,3.49-.67A5.55,5.55,0,0,0,267.91,143.7Z"/><ellipse class="cls-5" cx="168.47" cy="208.9" rx="2.38" ry="2.58"/><ellipse class="cls-5" cx="199.59" cy="176.77" rx="2.38" ry="2.58"/><ellipse class="cls-5" cx="235.21" cy="153.1" rx="2.38" ry="2.58"/><ellipse class="cls-5" cx="275.5" cy="140.41" rx="2.38" ry="2.58"/><path class="cls-5" d="M166,217.78a5.5,5.5,0,0,0-3.29-2.66,5.42,5.42,0,0,0-4.57.37,5.83,5.83,0,0,0-1.85,2.06c-.82,1.41-.5,2-1.39,3.37-.31.48-1.11,1.7-2.14,1.69a1.65,1.65,0,0,1-1.36-.74c-1.24-3.08-7-3.51-7.56-2.61s2.18,6.94,5.18,6.82a1.69,1.69,0,0,1,1.17.88,3.49,3.49,0,0,1-.16,2.74c-.69,1.53-1.71,1.46-2.5,3.05a5.58,5.58,0,0,0-.53,2,7.26,7.26,0,0,0,1.91,5.33,5.48,5.48,0,0,0,2.32,1.55c2.65.84,6.12-.72,6.93-3.34.43-1.42.18-3.42-.77-4.09a.91.91,0,0,0-.76-.2c-.46.15-.48.84-.93,1.94a5,5,0,0,1-1.16,1.92,2.61,2.61,0,0,1-2.15.67,2.55,2.55,0,0,1-1.53-1,3.71,3.71,0,0,1-.51-2.89c.5-2.06,2.88-3,4.3-3.27a6.29,6.29,0,0,1,6.19,2.74c1.54,2.5.43,5.44,1.22,5.69.44.15,1.11-.69,3.72-5.51,2.88-5.35,3.16-6.37,2.82-6.72-.6-.62-2.2,1.6-5,1.46a6.59,6.59,0,0,1-5.53-4.14,6.06,6.06,0,0,1-.15-4.32,3.52,3.52,0,0,1,1.73-2,2.45,2.45,0,0,1,2,0,2.7,2.7,0,0,1,1.31,1.35,3.65,3.65,0,0,1-.57,3.71,2.4,2.4,0,0,0-.73.92c0,.08-.29.74,0,1.11.35.53,1.66.23,2.5-.24a5.16,5.16,0,0,0,2.24-3A6.19,6.19,0,0,0,166,217.78Z"/><path class="cls-5" d="M150,255.3a5.15,5.15,0,0,0-4-1.09,5.65,5.65,0,0,0-4.1,2.23,6.46,6.46,0,0,0-1,2.66c-.26,1.65.25,2.08-.09,3.69-.12.58-.43,2-1.39,2.45a1.61,1.61,0,0,1-1.52-.12c-2.22-2.33-7.67-.37-7.91.71s4.47,5.51,7.2,4.16a1.6,1.6,0,0,1,1.39.34,3.35,3.35,0,0,1,.81,2.59c-.1,1.7-1.07,2.05-1.23,3.85a5.5,5.5,0,0,0,.22,2.09A6.65,6.65,0,0,0,142.1,283a5.12,5.12,0,0,0,2.68.47c2.74-.31,5.4-3.19,5.23-6-.1-1.48-1-3.23-2.15-3.46a.86.86,0,0,0-.77.13c-.37.33-.15,1-.18,2.18a5.1,5.1,0,0,1-.4,2.25,2.83,2.83,0,0,1-1.75,1.51,2.4,2.4,0,0,1-1.76-.28,3.54,3.54,0,0,1-1.49-2.46c-.27-2.12,1.59-4,2.83-4.8a6.07,6.07,0,0,1,6.68,0c2.3,1.68,2.32,4.85,3.13,4.76.46-.05.79-1.1,1.5-6.63.78-6.13.68-7.2.25-7.38-.78-.32-1.48,2.39-4.08,3.4a6.21,6.21,0,0,1-6.57-1.54,5.88,5.88,0,0,1-1.66-3.93,3.88,3.88,0,0,1,.88-2.62,2.57,2.57,0,0,1,1.8-.83,2.47,2.47,0,0,1,1.68.7,3.65,3.65,0,0,1,.79,3.67,2.64,2.64,0,0,0-.36,1.15c0,.08,0,.81.36,1s1.61-.47,2.23-1.25a5.62,5.62,0,0,0,1-3.69A6,6,0,0,0,150,255.3Z"/><path class="cls-5" d="M144.38,303.64a5.08,5.08,0,0,0-4.1.25,5.88,5.88,0,0,0-3.25,3.44,6.57,6.57,0,0,0-.16,2.87c.23,1.65.84,1.9,1,3.54,0,.59.18,2.08-.62,2.79a1.59,1.59,0,0,1-1.47.37c-2.79-1.5-7.4,2.12-7.31,3.23s5.84,3.82,8,1.65a1.53,1.53,0,0,1,1.41-.13c1.07.39,1.48,2,1.53,2.21.4,1.65-.42,2.3,0,4.07a5.49,5.49,0,0,0,.81,1.92,6.42,6.42,0,0,0,4.67,2.77,5.17,5.17,0,0,0,2.69-.42c2.51-1.19,4.2-4.79,3.24-7.36-.52-1.39-1.92-2.75-3-2.61a.92.92,0,0,0-.71.37c-.25.44.15,1,.47,2.14a5.12,5.12,0,0,1,.28,2.27,3,3,0,0,1-1.23,2,2.43,2.43,0,0,1-1.76.3,3.35,3.35,0,0,1-2.12-1.87c-.88-1.93.35-4.32,1.29-5.48a6.11,6.11,0,0,1,6.34-2.19c2.68.86,3.61,3.88,4.36,3.53.42-.2.43-1.31-.51-6.81-1-6.1-1.43-7.08-1.9-7.12-.84-.05-.71,2.76-2.88,4.56a6.15,6.15,0,0,1-6.7.65,5.59,5.59,0,0,1-2.72-3.21,3.87,3.87,0,0,1,.08-2.77,2.64,2.64,0,0,1,1.46-1.38,2.39,2.39,0,0,1,1.81.13,3.53,3.53,0,0,1,1.81,3.24,2.57,2.57,0,0,0,0,1.21c0,.08.23.77.64.88.59.17,1.4-1,1.76-1.91a5.93,5.93,0,0,0-3.16-7.14Z"/><path class="cls-5" d="M152.83,346.92a5.25,5.25,0,0,0-3.84,1.56,6.4,6.4,0,0,0-2.19,4.37,6.54,6.54,0,0,0,.6,2.8c.65,1.51,1.31,1.55,1.87,3.08.21.55.72,1.94.15,2.87a1.68,1.68,0,0,1-1.31.84c-3.05-.54-6.49,4.44-6.11,5.48s6.57,1.76,8.1-1a1.64,1.64,0,0,1,1.31-.59c1.13,0,1.93,1.43,2,1.63.82,1.45.21,2.35,1,3.92a5.39,5.39,0,0,0,1.28,1.58,6,6,0,0,0,5.18,1.14,5.36,5.36,0,0,0,2.45-1.27c2.09-2,2.75-6,1.15-8.12-.86-1.16-2.55-2-3.58-1.52a1,1,0,0,0-.57.59c-.13.5.39.89,1,1.9a5,5,0,0,1,.86,2.09,3.12,3.12,0,0,1-.64,2.33,2.51,2.51,0,0,1-1.59.86,3.1,3.1,0,0,1-2.52-1.11c-1.34-1.56-.8-4.26-.21-5.68a6.55,6.55,0,0,1,5.47-4.16c2.77-.05,4.46,2.55,5.08,2,.35-.32.06-1.39-2.27-6.37-2.59-5.52-3.24-6.33-3.69-6.21-.81.22,0,2.87-1.55,5.31a6.35,6.35,0,0,1-6.21,2.8,5.1,5.1,0,0,1-3.43-2.2,3.85,3.85,0,0,1-.66-2.69,3,3,0,0,1,1-1.79,2.44,2.44,0,0,1,1.76-.47,3.28,3.28,0,0,1,2.58,2.52,2.55,2.55,0,0,0,.32,1.17c0,.07.42.66.83.64.61,0,1.08-1.39,1.18-2.41a5.55,5.55,0,0,0-1.11-3.66A5.28,5.28,0,0,0,152.83,346.92Z"/><path class="cls-5" d="M173.86,386.17a5.51,5.51,0,0,0-3.41,2.48,6.61,6.61,0,0,0-1.21,4.79,6.28,6.28,0,0,0,1.17,2.57c1,1.31,1.6,1.19,2.47,2.54.32.49,1.11,1.71.75,2.76a1.75,1.75,0,0,1-1.09,1.14c-3.09.23-5.39,5.93-4.8,6.85s6.77.08,7.67-3a1.69,1.69,0,0,1,1.15-.89c1.1-.25,2.18.91,2.33,1.07,1.1,1.22.69,2.24,1.82,3.57a4.76,4.76,0,0,0,1.58,1.22,6,6,0,0,0,5.28-.17,5.55,5.55,0,0,0,2.12-1.84c1.61-2.42,1.42-6.49-.59-8.19-1.09-.92-2.91-1.33-3.81-.59a1,1,0,0,0-.43.71c0,.52.57.77,1.37,1.6a4.75,4.75,0,0,1,1.29,1.83,3.24,3.24,0,0,1-.14,2.42,2.65,2.65,0,0,1-1.37,1.23,3,3,0,0,1-2.68-.45c-1.64-1.2-1.68-3.95-1.41-5.48a6.85,6.85,0,0,1,4.45-5.4c2.69-.74,4.88,1.37,5.36.66.28-.41-.23-1.37-3.55-5.64-3.69-4.73-4.49-5.37-4.9-5.14-.74.41.65,2.79-.39,5.55a6.66,6.66,0,0,1-5.46,4.27,4.9,4.9,0,0,1-3.8-1.29,3.69,3.69,0,0,1-1.21-2.46,3,3,0,0,1,.63-2,2.48,2.48,0,0,1,1.61-.88,3.11,3.11,0,0,1,3,1.82,2.41,2.41,0,0,0,.56,1.05c.05.06.55.55,1,.42.58-.19.76-1.62.63-2.64a5.26,5.26,0,0,0-1.85-3.28A5.06,5.06,0,0,0,173.86,386.17Z"/><path class="cls-5" d="M205,418.52a5.75,5.75,0,0,0-2.76,3.26,6.78,6.78,0,0,0-.11,5,6,6,0,0,0,1.71,2.21c1.21,1,1.81.75,3,1.85a3.45,3.45,0,0,1,1.34,2.49,1.83,1.83,0,0,1-.81,1.38c-3,1-3.91,7.12-3.14,7.87s6.59-1.62,6.77-4.86a1.82,1.82,0,0,1,.93-1.16c1-.52,2.31.34,2.5.46,1.33.91,1.17,2,2.55,3a4.84,4.84,0,0,0,1.81.79,6.08,6.08,0,0,0,5.09-1.5,5.77,5.77,0,0,0,1.65-2.33c1-2.76-.06-6.66-2.39-7.81-1.26-.62-3.12-.56-3.83.39a1.05,1.05,0,0,0-.26.8c.09.5.72.6,1.69,1.21a4.54,4.54,0,0,1,1.65,1.45,3.14,3.14,0,0,1,.4,2.39,2.77,2.77,0,0,1-1.05,1.54,3,3,0,0,1-2.71.23c-1.85-.75-2.51-3.42-2.58-5a7.12,7.12,0,0,1,3.12-6.37c2.45-1.39,5,.11,5.36-.71.17-.46-.53-1.27-4.71-4.59-4.63-3.67-5.54-4.09-5.89-3.76-.63.58,1.25,2.54.85,5.5a6.89,6.89,0,0,1-4.35,5.51,4.85,4.85,0,0,1-4-.3,3.58,3.58,0,0,1-1.72-2.08,3,3,0,0,1,.17-2.11,2.63,2.63,0,0,1,1.36-1.27,3,3,0,0,1,3.36,1,2.35,2.35,0,0,0,.77.88c.07,0,.66.39,1,.17.52-.33.38-1.77,0-2.72a5.11,5.11,0,0,0-2.53-2.74A5,5,0,0,0,205,418.52Z"/><path class="cls-5" d="M241.61,440.17a6.16,6.16,0,0,0-1.69,4.05,6.64,6.64,0,0,0,1.31,4.76,5.53,5.53,0,0,0,2.25,1.52c1.45.56,1.93.09,3.34.74.5.23,1.77.82,2,1.91a1.94,1.94,0,0,1-.38,1.59c-2.51,2-1.68,8.12-.73,8.57s5.79-3.8,5-6.95a1.89,1.89,0,0,1,.54-1.42,2.78,2.78,0,0,1,2.5-.42c1.53.4,1.69,1.5,3.29,2a4.44,4.44,0,0,0,1.94.13,6.51,6.51,0,0,0,4.4-3.16,6.42,6.42,0,0,0,.9-2.79c.19-3-2-6.31-4.5-6.61-1.37-.16-3.11.54-3.52,1.68a1.14,1.14,0,0,0,0,.85c.23.45.86.33,1.95.58a4.1,4.1,0,0,1,2,.81,3,3,0,0,1,1.06,2.13,2.92,2.92,0,0,1-.56,1.83,3.08,3.08,0,0,1-2.5,1.16c-2-.09-3.35-2.4-3.86-3.85a7.46,7.46,0,0,1,1.14-7.13c1.93-2.17,4.81-1.63,4.88-2.51,0-.5-.87-1-5.78-2.76-5.43-1.91-6.42-2-6.66-1.55-.43.77,1.92,2,2.38,4.93a7.41,7.41,0,0,1-2.55,6.74,4.88,4.88,0,0,1-3.86,1.08,3.26,3.26,0,0,1-2.22-1.39,3,3,0,0,1-.45-2.06,2.84,2.84,0,0,1,.93-1.68,3,3,0,0,1,3.47-.19,2.28,2.28,0,0,0,1,.58c.08,0,.73.14,1-.2s-.15-1.8-.75-2.6a4.73,4.73,0,0,0-3.17-1.73A5.05,5.05,0,0,0,241.61,440.17Z"/><ellipse class="cls-5" cx="149.93" cy="248.02" rx="2.38" ry="2.58"/><ellipse class="cls-5" cx="143.14" cy="293.07" rx="2.38" ry="2.58"/><ellipse class="cls-5" cx="148.51" cy="340.11" rx="2.38" ry="2.58"/><ellipse class="cls-5" cx="167.64" cy="380.41" rx="2.38" ry="2.58"/><ellipse class="cls-5" cx="196.42" cy="415.03" rx="2.38" ry="2.58"/><ellipse class="cls-5" cx="232.9" cy="439.47" rx="2.38" ry="2.58"/><ellipse class="cls-5" cx="273.69" cy="450.12" rx="2.38" ry="2.58"/><path class="cls-6" d="M379.76,211.46a14.67,14.67,0,1,1-14.7,14.66A14.64,14.64,0,0,1,379.76,211.46Z"/><path class="cls-6" d="M210.19,366.1a14.68,14.68,0,1,1,14.66,14.67A14.7,14.7,0,0,1,210.19,366.1Z"/><path class="cls-6" d="M299,398.83a14.67,14.67,0,1,1-14.67,14.66A14.66,14.66,0,0,1,299,398.83Z"/><path class="cls-6" d="M299,163.14a14.67,14.67,0,1,1-14.67,14.66A14.64,14.64,0,0,1,299,163.14Z"/><path class="cls-6" d="M377.7,351.4A14.69,14.69,0,1,1,363,366.1,14.7,14.7,0,0,1,377.7,351.4Z"/><path class="cls-6" d="M220.53,240.79a14.67,14.67,0,1,1,14.66-14.67A14.67,14.67,0,0,1,220.53,240.79Z"/><path class="cls-6" d="M224.85,351.4a14.69,14.69,0,1,1-14.66,14.7A14.71,14.71,0,0,1,224.85,351.4Z"/><polyline class="cls-6" points="279.62 260.48 279.62 226.12 235.19 226.12 234.29 226.12"/><polyline class="cls-6" points="238.09 366.1 239.55 366.1 279.62 366.1 279.62 324.63"/><path class="cls-6" d="M220.53,211.46a14.67,14.67,0,1,1-14.67,14.66A14.64,14.64,0,0,1,220.53,211.46Z"/><path class="cls-6" d="M377.7,351.4a14.69,14.69,0,1,0,14.66,14.7A14.68,14.68,0,0,0,377.7,351.4Z"/><polyline class="cls-6" points="320.66 260.24 320.66 226.12 365.06 226.12 365.99 226.12"/><polyline class="cls-6" points="362.2 366.1 320.66 366.1 320.66 324.63"/><path class="cls-6" d="M379.76,211.46a14.67,14.67,0,1,0,14.66,14.66A14.67,14.67,0,0,0,379.76,211.46Z"/><polyline class="cls-6" points="298.95 324.63 298.95 398.83 298.95 399.86"/><polyline class="cls-6" points="298.95 191.93 298.95 192.47 298.95 260.05"/><path class="cls-6" d="M299,163.14a14.67,14.67,0,1,1-14.67,14.66A14.64,14.64,0,0,1,299,163.14Z"/><path class="cls-6" d="M299,398.83a14.67,14.67,0,1,1-14.67,14.66A14.66,14.66,0,0,1,299,398.83Z"/><line class="cls-6" x1="171.97" y1="260.61" x2="425.92" y2="260.61"/><line class="cls-6" x1="171.97" y1="324.53" x2="425.92" y2="324.53"/><polygon class="cls-6" points="203.01 279.69 203.01 289.33 219.94 289.33 219.94 296.91 203.01 296.91 203.01 306.26 223.08 306.26 223.08 313.85 195.18 313.85 195.18 272.15 223.08 272.15 223.08 279.69 203.01 279.69"/><path class="cls-6" d="M258.56,279a12,12,0,0,0-5.58-5.09,20.73,20.73,0,0,0-8.91-1.76h-13.8v41.7H244a20.22,20.22,0,0,0,9.06-1.86,12.67,12.67,0,0,0,5.58-5.24,16.19,16.19,0,0,0,1.86-7.88V287.08A16.19,16.19,0,0,0,258.56,279Zm-6.22,20.12a6.56,6.56,0,0,1-2.1,5.28,8.92,8.92,0,0,1-6,1.86H238.1V279.69h6.12a8.73,8.73,0,0,1,6,1.9,6.56,6.56,0,0,1,2.1,5.24Z"/><path class="cls-6" d="M274,312.36a13.35,13.35,0,0,1-5.35-5.39,16.71,16.71,0,0,1-1.89-8.08V287.08a16.65,16.65,0,0,1,1.89-8.07,13.29,13.29,0,0,1,5.35-5.39,17.67,17.67,0,0,1,16,0,13.2,13.2,0,0,1,5.34,5.39,16.54,16.54,0,0,1,1.9,8.07v11.81a16.6,16.6,0,0,1-1.9,8.08,13.26,13.26,0,0,1-5.34,5.39,17.67,17.67,0,0,1-16,0Zm11.72-6.86a6.12,6.12,0,0,0,2.48-2.56,8.17,8.17,0,0,0,.87-3.84V286.88a8.14,8.14,0,0,0-.87-3.84,6.15,6.15,0,0,0-2.48-2.57,8.18,8.18,0,0,0-7.46,0,6.15,6.15,0,0,0-2.48,2.57,8.14,8.14,0,0,0-.87,3.84V299.1a8.17,8.17,0,0,0,.87,3.84,6.12,6.12,0,0,0,2.48,2.56,8.1,8.1,0,0,0,7.46,0Z"/><path class="cls-6" d="M334.27,297.55a7.63,7.63,0,0,0-3-3.38,10.51,10.51,0,0,0-4.7-1.71,11.69,11.69,0,0,0,4.41-1.62,8.33,8.33,0,0,0,2.78-3.08,8.81,8.81,0,0,0,1-4.31,12.12,12.12,0,0,0-1.46-6.11,9.86,9.86,0,0,0-4.36-3.87,16.8,16.8,0,0,0-6.95-1.32H305v41.7h17.47a16.64,16.64,0,0,0,6.95-1.32,9.68,9.68,0,0,0,4.35-3.92,11.56,11.56,0,0,0,1.52-6.12v-.09A10.67,10.67,0,0,0,334.27,297.55Zm-12.52-17.86a5.77,5.77,0,0,1,3.76,1.12,4,4,0,0,1,1.33,3.13,4.51,4.51,0,0,1-1.33,3.48,5.29,5.29,0,0,1-3.76,1.22h-8.91v-8.95Zm5.62,21.63a4.52,4.52,0,0,1-1.46,3.62,6,6,0,0,1-4.16,1.32h-8.91v-10h8.91a7,7,0,0,1,3,.59,4.18,4.18,0,0,1,2,1.71,5.08,5.08,0,0,1,.63,2.69Z"/><polygon class="cls-6" points="367.75 272.15 367.75 279.69 356.4 279.69 356.4 313.85 348.52 313.85 348.52 279.69 337.16 279.69 337.16 272.15 367.75 272.15"/><polygon class="cls-6" points="405.44 313.85 396.09 313.85 386.15 296.52 380.18 304.84 380.18 313.85 372.35 313.85 372.35 272.15 380.18 272.15 380.18 292.8 393.79 272.15 403.68 272.15 391.29 289.38 405.44 313.85"/><path class="cls-2" d="M530.23,324.66,523.39,327c-.61,2.35-1.2,4.7-2,7-1.3-2-2.65-4-4.1-5.9l-7.17.25,4.17-5.59c-.87-2.16-1.73-4.29-2.76-6.41l6.94,1.93,5.33-4.78c.12,2.41.3,4.84.36,7.27Z"/><path class="cls-2" d="M522.57,362.25l-7.09,1.2c-1,2.22-2.12,4.38-3.18,6.56l-3-6.49-7.15-.95c1.78-1.54,3.41-3.16,5.06-4.81L505.54,351l6.49,3c2.1-1.22,4.09-2.5,6.08-3.82-.2,2.42-.54,4.81-.92,7.21Z"/><path class="cls-2" d="M508.83,398.08l-7.28,0-4.12,6-2-6.94L488.55,395l5.85-3.88c-.16-2.35-.38-4.7-.59-7l5.92,4.08,6.68-2.74-2.12,7C505.82,394.26,507.36,396.17,508.83,398.08Z"/><path class="cls-2" d="M489.27,431.08l-7.12-1.19c-1.62,1.81-3.38,3.49-5.11,5.18-.23-2.4-.43-4.74-.75-7.11l-6.43-3.22c2.13-.92,4.19-1.92,6.32-2.92.23-2.35.55-4.6.65-6.95l5.19,5,7-1.66c-1.06,2.17-2,4.43-3.18,6.54Z"/><path class="cls-2" d="M123.14,447.9l2.87-6.59c-1.31-2-2.5-4.17-3.75-6.24l7.09,1,4.7-5.47c.32,2.33.8,4.58,1.27,6.87l6.56,2.34-6.09,3.77c-.13,2.42-.12,4.76-.12,7.17q-2.86-2.25-5.54-4.71Z"/><path class="cls-2" d="M100.64,416.83l4-6.08L101.87,404l6.92,2.11,5.51-4.6.07,7c2,1.17,4.14,2.24,6.18,3.33l-6.65,2.74-1.34,7.08-4.69-5.56C105.48,416.39,103,416.66,100.64,416.83Z"/><path class="cls-2" d="M83.66,382.43l4.88-5.31c-.63-2.34-1.07-4.74-1.55-7.11,2.14,1.12,4.21,2.23,6.37,3.26l6.2-3.63c-.39,2.28-.67,4.56-1,6.89,1.84,1.47,3.57,3,5.46,4.33l-7,1.62-2.4,6.72c-1.25-2.06-2.62-4.09-3.74-6.24Z"/><path class="cls-2" d="M72.53,345.71c1.87-1.5,3.74-3,5.7-4.43L77.89,334l5.79,4.26,6.73-2.55c-.75,2.18-1.6,4.42-2.2,6.64l4.71,5.17-7.16.42c-1.2,2-2.49,4.15-3.59,6.26-.94-2.24-1.72-4.52-2.59-6.8Z"/><path class="cls-2" d="M67.64,307.66l6.41-3.43.76-7.23,5.08,5.15,7-1.41-3.28,6.2c1.18,2,2.57,3.95,3.83,5.87L80.33,312l-4.54,5.59L74.3,310.5C72.06,309.59,69.81,308.64,67.64,307.66Z"/><path class="cls-2" d="M69.07,269.35,75.91,267c.61-2.35,1.2-4.7,2-7,1.3,2,2.65,4,4.1,5.9l7.16-.25L85,271.24c.87,2.16,1.74,4.29,2.77,6.41l-7-1.93-5.33,4.78c-.11-2.41-.29-4.84-.35-7.27Z"/><path class="cls-2" d="M76.73,231.75l7.09-1.2c1-2.21,2.12-4.37,3.17-6.55l3,6.49,7.14.95c-1.77,1.54-3.4,3.16-5,4.81L93.76,243l-6.49-3c-2.1,1.22-4.09,2.5-6.08,3.82.19-2.42.54-4.81.91-7.21Z"/><path class="cls-2" d="M90.47,195.93l7.28,0,4.12-6,2,6.95,6.86,2.11-5.84,3.88c.15,2.35.38,4.69.59,7l-5.92-4.07-6.68,2.74,2.11-7C93.48,199.74,91.94,197.83,90.47,195.93Z"/><path class="cls-2" d="M110,162.93l7.12,1.19c1.61-1.81,3.38-3.49,5.11-5.18.23,2.4.43,4.74.75,7.11l6.42,3.22c-2.12.92-4.19,1.92-6.32,2.92-.22,2.35-.54,4.6-.65,6.94l-5.19-5-6.94,1.66c1.06-2.17,2-4.43,3.18-6.54Z"/><path class="cls-2" d="M476.16,146.11l-2.88,6.59c1.32,2,2.51,4.17,3.76,6.24l-7.09-1-4.7,5.46c-.32-2.33-.8-4.57-1.27-6.86l-6.56-2.34,6.09-3.77c.13-2.43.11-4.76.12-7.17,1.91,1.49,3.75,3.07,5.54,4.7Z"/><path class="cls-2" d="M498.65,177.18l-4,6.07,2.77,6.72-6.92-2.1-5.51,4.6-.07-7c-2-1.17-4.14-2.25-6.18-3.33l6.65-2.74,1.34-7.08,4.69,5.56C493.82,177.61,496.27,177.35,498.65,177.18Z"/><path class="cls-2" d="M515.64,211.58l-4.89,5.31c.64,2.34,1.08,4.73,1.55,7.11-2.13-1.12-4.2-2.23-6.36-3.26l-6.21,3.63c.39-2.28.68-4.56,1-6.89-1.83-1.47-3.56-3-5.45-4.34l7-1.61,2.4-6.73c1.25,2.07,2.62,4.1,3.74,6.25Z"/><path class="cls-2" d="M526.77,248.3c-1.87,1.5-3.75,3-5.71,4.43l.35,7.27-5.8-4.26-6.73,2.55c.75-2.18,1.6-4.42,2.21-6.64l-4.71-5.17,7.16-.42c1.2-2,2.48-4.16,3.59-6.26.94,2.23,1.71,4.52,2.58,6.79Z"/><path class="cls-2" d="M531.66,286.35l-6.41,3.43-.76,7.22-5.08-5.15-7,1.42,3.27-6.2c-1.17-2-2.56-3.95-3.83-5.87L519,282l4.54-5.59L525,283.5C527.24,284.42,529.49,285.37,531.66,286.35Z"/></svg>