<svg id="Layer_1" data-name="Layer 1" xmlns="http://www.w3.org/2000/svg" viewBox="0 0 595.62 595.28"><defs><style>.cls-1{font-size:60.66px;font-family:Impact;}.cls-1,.cls-3,.cls-4,.cls-5,.cls-6{fill:none;stroke:#2c2c2c;}.cls-1,.cls-3,.cls-4,.cls-5{stroke-miterlimit:10;}.cls-1,.cls-6{stroke-width:3px;}.cls-2{fill:#2c2c2c;}.cls-3{stroke-width:4px;}.cls-4{stroke-width:6px;}.cls-5{stroke-width:2px;}.cls-6{stroke-linecap:round;stroke-linejoin:round;}</style></defs><text class="cls-1" transform="translate(140.23 173) rotate(-46.72)">Н</text><text class="cls-1" transform="translate(162.23 149.62) rotate(-37.94)">е</text><text class="cls-1" transform="translate(186.12 131.57) rotate(-32.29)"> </text><text class="cls-1" transform="matrix(0.89, -0.45, 0.45, 0.89, 193.97, 125.94)">в</text><text class="cls-1" transform="translate(219.8 111.95) rotate(-15.91)">ы</text><text class="cls-1" transform="translate(263.8 99.97) rotate(-5.13)">п</text><text class="cls-1" transform="matrix(1, 0.06, -0.06, 1, 294.44, 97.16)">о</text><text class="cls-1" transform="matrix(0.98, 0.21, -0.21, 0.98, 323.84, 98.6)">л</text><text class="cls-1" transform="translate(355.53 105.28) rotate(21.03)">н</text><text class="cls-1" transform="translate(384.29 116.27) rotate(29.64)">е</text><text class="cls-1" transform="matrix(0.79, 0.62, -0.62, 0.79, 409.97, 130.68)">н</text><text class="cls-1" transform="translate(434.21 149.68) rotate(46.81)">о</text><text class="cls-1" transform="translate(454.37 171.82) rotate(52.5)"> </text><text class="cls-1" transform="matrix(0.57, 0.82, -0.82, 0.57, 460.55, 179.85)"> </text><text class="cls-1" transform="translate(466.33 188.2) rotate(58.36)"> </text><text class="cls-1" transform="matrix(0.48, 0.88, -0.88, 0.48, 471.65, 196.81)"> </text><text class="cls-1" transform="matrix(0.43, 0.9, -0.9, 0.43, 476.53, 205.7)"> </text><text class="cls-1" transform="matrix(0.39, 0.92, -0.92, 0.39, 480.95, 214.82)"> </text><text class="cls-1" transform="translate(484.89 224.16) rotate(70.19)"> </text><text class="cls-1" transform="translate(488.33 233.69) rotate(73.17)"> </text><text class="cls-1" transform="matrix(0.24, 0.97, -0.97, 0.24, 491.28, 243.39)"> </text><text class="cls-1" transform="translate(493.72 253.23) rotate(79.13)"> </text><text class="cls-1" transform="translate(495.65 263.17) rotate(82.1)"> </text><text class="cls-1" transform="translate(497.05 273.21) rotate(85.05)"> </text><text class="cls-1" transform="translate(497.94 283.33) rotate(88)"> </text><text class="cls-1" transform="translate(498.32 293.38) rotate(90.94)"> </text><text class="cls-1" transform="translate(498.17 303.58) rotate(93.83)"> </text><text class="cls-1" transform="translate(497.5 313.71) rotate(96.78)"> </text><text class="cls-1" transform="matrix(-0.17, 0.99, -0.99, -0.17, 496.32, 323.78)"> </text><text class="cls-1" transform="matrix(-0.22, 0.98, -0.98, -0.22, 494.62, 333.75)"> </text><text class="cls-1" transform="matrix(-0.27, 0.96, -0.96, -0.27, 492.4, 343.66)"> </text><text class="cls-1" transform="translate(489.67 353.42) rotate(108.68)"> </text><text class="cls-1" transform="matrix(-0.37, 0.93, -0.93, -0.37, 486.45, 363.01)"> </text><text class="cls-1" transform="translate(482.71 372.45) rotate(114.63)"> </text><text class="cls-1" transform="matrix(-0.46, 0.89, -0.89, -0.46, 478.51, 381.66)"> </text><text class="cls-1" transform="matrix(-0.51, 0.86, -0.86, -0.51, 473.82, 390.67)"> </text><text class="cls-1" transform="translate(469.39 399.26) rotate(126.22)">А</text><text class="cls-1" transform="translate(451.99 422.91) rotate(133.97)">т</text><text class="cls-1" transform="matrix(-0.78, 0.62, -0.62, -0.78, 435.02, 440.87)">к</text><text class="cls-1" transform="translate(411.93 459.21) rotate(150.06)">а</text><text class="cls-1" transform="matrix(-0.93, 0.37, -0.37, -0.93, 386.83, 473.84)">р</text><text class="cls-1" transform="matrix(-0.98, 0.19, -0.19, -0.98, 359.57, 485.57)">ы</text><text class="cls-1" transform="translate(314.79 493.86) rotate(-179.08)">л</text><text class="cls-1" transform="translate(282.07 493.23) rotate(-172.54)">г</text><text class="cls-1" transform="matrix(-0.97, -0.25, 0.25, -0.97, 262.5, 491.04)">а</text><text class="cls-1" transform="translate(234.36 483.99) rotate(-157.03)">н</text><text class="cls-1" transform="translate(205.78 471.34) rotate(-151.18)"> </text><text class="cls-1" transform="matrix(-0.8, -0.59, 0.59, -0.8, 196.95, 467.89)">ж</text><text class="cls-1" transform="matrix(-0.69, -0.73, 0.73, -0.69, 162.31, 441.75)">о</text><text class="cls-1" transform="matrix(-0.57, -0.82, 0.82, -0.57, 142.02, 420.34)">к</text><path class="cls-2" d="M296.4,567.48c-149.89,0-271.83-121.94-271.83-271.83S146.51,23.82,296.4,23.82,568.24,145.76,568.24,295.65,446.29,567.48,296.4,567.48Zm0-530c-142.33,0-258.13,115.8-258.13,258.14S154.07,553.78,296.4,553.78,554.54,438,554.54,295.65,438.74,37.51,296.4,37.51Z"/><ellipse class="cls-3" cx="298.18" cy="294.33" rx="141.76" ry="143.15"/><ellipse class="cls-4" cx="297.89" cy="294.04" rx="183.11" ry="181.3"/><path class="cls-5" d="M403.94,179.07a6.4,6.4,0,0,1,7.48-4,5.86,5.86,0,0,1,2.28,1.59c1.11,1.19.91,1.87,2.07,3,.42.4,1.47,1.41,2.51,1.16a1.79,1.79,0,0,0,1.22-1c.63-3.29,6.31-5,7.1-4.29s-.81,7.28-3.85,7.86a1.78,1.78,0,0,0-1,1.12,3.3,3.3,0,0,0,.71,2.64c1,1.34,2,1,3.13,2.41a5.42,5.42,0,0,1,1,1.85,7.26,7.26,0,0,1-.86,5.66,5.74,5.74,0,0,1-2,2c-2.5,1.43-6.32.69-7.66-1.68-.72-1.28-.87-3.29-.06-4.17a1,1,0,0,1,.73-.37c.5,0,.66.71,1.34,1.68a4.53,4.53,0,0,0,1.55,1.61,2.54,2.54,0,0,0,3.65-1.15,3.62,3.62,0,0,0-.07-2.94c-.92-1.91-3.52-2.31-5-2.21a6.72,6.72,0,0,0-5.69,4.09c-1.05,2.8.66,5.42-.08,5.85-.41.24-1.26-.43-4.86-4.54-4-4.56-4.48-5.5-4.21-5.92.49-.74,2.54,1.06,5.3.29a7,7,0,0,0,4.75-5.31,5.93,5.93,0,0,0-.73-4.26,3.47,3.47,0,0,0-2.16-1.61,2.64,2.64,0,0,0-2,.42,2.79,2.79,0,0,0-1,1.62,3.5,3.5,0,0,0,1.32,3.5,2.23,2.23,0,0,1,.92.73c0,.07.44.66.27,1.07-.25.61-1.63.61-2.58.35a5.08,5.08,0,0,1-2.86-2.41A6,6,0,0,1,403.94,179.07Z"/><path class="cls-5" d="M367.19,153.83a5.93,5.93,0,0,1,2.09-3.86,5.81,5.81,0,0,1,4.46-1.66,5.59,5.59,0,0,1,2.54,1.08c1.32.93,1.25,1.64,2.6,2.48.48.31,1.71,1.08,2.68.61a1.84,1.84,0,0,0,1-1.26c0-3.36,5.23-6.25,6.14-5.69s.59,7.31-2.28,8.51a1.82,1.82,0,0,0-.77,1.31,3.28,3.28,0,0,0,1.2,2.44c1.24,1.1,2.18.58,3.53,1.7a5.3,5.3,0,0,1,1.28,1.62,7.3,7.3,0,0,1,.23,5.72,6,6,0,0,1-1.59,2.42c-2.18,1.92-6.06,2-7.83,0-1-1.11-1.48-3.05-.85-4.07a1,1,0,0,1,.65-.52c.49-.06.77.56,1.62,1.37a4.51,4.51,0,0,0,1.83,1.25,2.72,2.72,0,0,0,2.29-.32,2.81,2.81,0,0,0,1.07-1.57,3.58,3.58,0,0,0-.63-2.87c-1.26-1.68-3.88-1.52-5.31-1.12a6.88,6.88,0,0,0-4.8,5.2c-.5,3,1.67,5.17,1,5.75-.36.32-1.32-.15-5.63-3.43-4.77-3.64-5.43-4.45-5.24-4.92.33-.83,2.69.5,5.24-.82a7.19,7.19,0,0,0,3.65-6.21,5.82,5.82,0,0,0-1.52-4,3.35,3.35,0,0,0-2.42-1.13,2.66,2.66,0,0,0-1.86.82,2.84,2.84,0,0,0-.72,1.81,3.42,3.42,0,0,0,1.95,3.15,2.38,2.38,0,0,1,1.05.52c.06.06.55.56.46,1-.13.64-1.48.94-2.45.88a5,5,0,0,1-3.27-1.76A6,6,0,0,1,367.19,153.83Z"/><path class="cls-5" d="M325.7,142.32a6.83,6.83,0,0,1,3.72-7.91,5.56,5.56,0,0,1,2.74-.15c1.56.27,1.79.93,3.35,1.11.56.06,2,.21,2.67-.64a1.9,1.9,0,0,0,.4-1.59c-1.36-3,2.23-8,3.29-7.88s3.47,6.37,1.34,8.73a1.9,1.9,0,0,0-.16,1.53c.34,1.16,1.85,1.61,2.06,1.67,1.57.45,2.22-.43,3.89,0a5,5,0,0,1,1.81.9,7.07,7.07,0,0,1,2.51,5.08,6.15,6.15,0,0,1-.47,2.9c-1.2,2.71-4.69,4.5-7.11,3.43-1.31-.58-2.57-2.11-2.41-3.32a1.07,1.07,0,0,1,.38-.75c.42-.28.93.16,2,.52a4.23,4.23,0,0,0,2.17.32,2.79,2.79,0,0,0,1.94-1.3,2.91,2.91,0,0,0,.34-1.9,3.45,3.45,0,0,0-1.72-2.32c-1.82-1-4.14.34-5.27,1.34a7.23,7.23,0,0,0-2.26,6.84c.74,2.91,3.6,3.94,3.24,4.75-.19.46-1.25.45-6.48-.62-5.79-1.18-6.71-1.62-6.73-2.13,0-.9,2.64-.73,4.42-3.07a7.41,7.41,0,0,0,.81-7.24,5.51,5.51,0,0,0-3-3,3.29,3.29,0,0,0-2.65.06,2.77,2.77,0,0,0-1.35,1.57,2.89,2.89,0,0,0,.07,1.95,3.24,3.24,0,0,0,3,2,2.27,2.27,0,0,1,1.16,0c.08,0,.73.26.82.7.14.64-1,1.51-1.87,1.89a4.79,4.79,0,0,1-3.67-.16A5.61,5.61,0,0,1,325.7,142.32Z"/><path class="cls-5" d="M282.16,140.85a6.25,6.25,0,0,1-.63-4.4,6.35,6.35,0,0,1,2.54-4.19,5.6,5.6,0,0,1,2.63-.8c1.58-.12,1.94.48,3.5.27.56-.07,2-.26,2.47-1.25a2,2,0,0,0,0-1.65c-2-2.63.44-8.31,1.49-8.45s4.76,5.36,3.2,8.17a1.94,1.94,0,0,0,.18,1.52,2.94,2.94,0,0,0,2.37,1.14c1.62.07,2.06-1,3.78-.94a4.83,4.83,0,0,1,2,.44,7,7,0,0,1,3.55,4.35,6.23,6.23,0,0,1,.17,2.94c-.58,2.92-3.59,5.5-6.18,5-1.4-.25-3-1.44-3.06-2.66a1.08,1.08,0,0,1,.2-.82c.35-.37.94-.07,2.08,0a4.31,4.31,0,0,0,2.18-.2,2.8,2.8,0,0,0,1.53-3.66,3.33,3.33,0,0,0-2.18-1.85c-2-.5-4,1.31-4.84,2.56a7.32,7.32,0,0,0-.72,7.2c1.36,2.66,4.36,3,4.19,3.85-.09.49-1.12.74-6.44,1-5.89.24-6.89,0-7-.46-.23-.87,2.42-1.35,3.64-4.05a7.45,7.45,0,0,0-.78-7.24,5.41,5.41,0,0,0-3.56-2.18,3.29,3.29,0,0,0-2.57.69,2.78,2.78,0,0,0-.48,3.74,3.17,3.17,0,0,0,3.39,1.21,2.24,2.24,0,0,1,1.13-.27c.08,0,.77.08,1,.48.27.6-.62,1.7-1.42,2.29a4.83,4.83,0,0,1-3.6.73A5.49,5.49,0,0,1,282.16,140.85Z"/><ellipse class="cls-5" cx="428.09" cy="204.3" rx="2.46" ry="2.58"/><ellipse class="cls-5" cx="398.39" cy="172.2" rx="2.46" ry="2.58"/><ellipse class="cls-5" cx="361.2" cy="148.53" rx="2.46" ry="2.58"/><ellipse class="cls-5" cx="318.04" cy="137.03" rx="2.46" ry="2.58"/><path class="cls-5" d="M429.86,213.54a6.25,6.25,0,0,1,8.12-2.28,6,6,0,0,1,1.91,2.06c.84,1.41.51,2,1.42,3.37.33.48,1.16,1.7,2.22,1.69a1.75,1.75,0,0,0,1.4-.74c1.28-3.08,7.19-3.51,7.81-2.61s-2.26,6.94-5.36,6.82a1.75,1.75,0,0,0-1.2.88,3.37,3.37,0,0,0,.16,2.73c.71,1.53,1.77,1.46,2.58,3a5.59,5.59,0,0,1,.55,2,7.17,7.17,0,0,1-2,5.33,5.76,5.76,0,0,1-2.4,1.55c-2.73.84-6.31-.73-7.14-3.35-.45-1.41-.19-3.41.78-4.08a1,1,0,0,1,.79-.2c.47.15.5.83,1,1.94a4.9,4.9,0,0,0,1.2,1.92,2.79,2.79,0,0,0,2.22.67,2.69,2.69,0,0,0,1.58-1,3.59,3.59,0,0,0,.52-2.89c-.51-2.07-3-3-4.44-3.27a6.54,6.54,0,0,0-6.38,2.74c-1.59,2.5-.45,5.44-1.26,5.69-.46.15-1.15-.69-3.84-5.52-3-5.34-3.27-6.36-2.92-6.71.63-.62,2.28,1.6,5.12,1.46a6.84,6.84,0,0,0,5.72-4.14,6,6,0,0,0,.15-4.32,3.56,3.56,0,0,0-1.79-2.05,2.54,2.54,0,0,0-2,0,2.74,2.74,0,0,0-1.35,1.34,3.54,3.54,0,0,0,.59,3.71,2.46,2.46,0,0,1,.75.93c0,.07.3.74.05,1.11-.37.53-1.72.23-2.59-.24a5.18,5.18,0,0,1-2.31-3A6,6,0,0,1,429.86,213.54Z"/><path class="cls-5" d="M449.86,253.31a5.46,5.46,0,0,1,4.11-1.09,5.9,5.9,0,0,1,4.23,2.23,6.24,6.24,0,0,1,1,2.66c.27,1.65-.26,2.09.09,3.69.13.58.45,2,1.44,2.45a1.68,1.68,0,0,0,1.56-.12c2.3-2.33,7.92-.37,8.16.71s-4.6,5.51-7.42,4.16a1.68,1.68,0,0,0-1.43.34c-.94.71-.86,2.36-.85,2.59.1,1.7,1.11,2.06,1.28,3.85a5.45,5.45,0,0,1-.23,2.09,6.79,6.79,0,0,1-3.76,4.14,5.39,5.39,0,0,1-2.78.47c-2.83-.31-5.57-3.19-5.39-6,.1-1.48,1.07-3.23,2.21-3.46a1,1,0,0,1,.81.13c.38.33.15,1,.18,2.18a4.81,4.81,0,0,0,.41,2.25,2.84,2.84,0,0,0,1.81,1.51,2.54,2.54,0,0,0,1.81-.28,3.53,3.53,0,0,0,1.54-2.46c.28-2.12-1.64-4-2.92-4.8a6.43,6.43,0,0,0-6.89,0c-2.38,1.68-2.4,4.85-3.23,4.76-.48-.05-.82-1.1-1.55-6.63-.81-6.13-.71-7.2-.26-7.38.81-.32,1.52,2.39,4.2,3.4a6.57,6.57,0,0,0,6.79-1.54,5.75,5.75,0,0,0,1.71-3.93,3.7,3.7,0,0,0-.91-2.61,2.48,2.48,0,0,0-3.59-.14,3.55,3.55,0,0,0-.81,3.67,2.52,2.52,0,0,1,.36,1.15c0,.08,0,.81-.36,1.05-.53.34-1.67-.48-2.3-1.26a5.39,5.39,0,0,1-1-3.69A5.92,5.92,0,0,1,449.86,253.31Z"/><path class="cls-5" d="M454,301.62a5.41,5.41,0,0,1,4.22.29,6,6,0,0,1,3.34,3.49,6.37,6.37,0,0,1,.16,2.86c-.25,1.65-.88,1.9-1,3.54-.06.59-.2,2.08.62,2.79a1.68,1.68,0,0,0,1.52.39c2.88-1.47,7.62,2.22,7.53,3.33s-6.05,3.74-8.31,1.54a1.7,1.7,0,0,0-1.46-.14c-1.11.38-1.53,2-1.59,2.19-.42,1.64.43,2.31,0,4.07a5.57,5.57,0,0,1-.85,1.92,6.62,6.62,0,0,1-4.83,2.71,5.35,5.35,0,0,1-2.77-.45c-2.59-1.22-4.32-4.85-3.31-7.4.55-1.38,2-2.73,3.15-2.58a1,1,0,0,1,.72.38c.26.44-.15,1-.48,2.13a5,5,0,0,0-.3,2.28,3,3,0,0,0,1.26,2,2.55,2.55,0,0,0,1.81.32,3.38,3.38,0,0,0,2.2-1.84c.91-1.92-.35-4.33-1.31-5.51a6.48,6.48,0,0,0-6.53-2.26c-2.77.82-3.74,3.84-4.51,3.48-.44-.2-.44-1.31.54-6.81,1.1-6.09,1.51-7.07,2-7.09.86,0,.71,2.76,2.95,4.59a6.54,6.54,0,0,0,6.91.73,5.56,5.56,0,0,0,2.81-3.18,3.7,3.7,0,0,0-.07-2.77,2.7,2.7,0,0,0-1.5-1.4,2.51,2.51,0,0,0-1.86.11,3.45,3.45,0,0,0-1.88,3.22,2.59,2.59,0,0,1,0,1.21c0,.08-.24.77-.66.88-.61.15-1.44-1-1.81-1.94a5.47,5.47,0,0,1,.13-3.85A5.74,5.74,0,0,1,454,301.62Z"/><path class="cls-5" d="M445.66,344.09a5.51,5.51,0,0,1,4,1.56,6.45,6.45,0,0,1,2.26,4.37,6.33,6.33,0,0,1-.62,2.8c-.68,1.51-1.35,1.55-1.93,3.08-.21.55-.74,1.94-.16,2.87a1.76,1.76,0,0,0,1.35.84c3.16-.54,6.7,4.44,6.32,5.48s-6.79,1.76-8.37-1a1.69,1.69,0,0,0-1.35-.58c-1.16,0-2,1.42-2.11,1.62-.84,1.45-.21,2.35-1,3.92a5.08,5.08,0,0,1-1.32,1.58,6.33,6.33,0,0,1-5.34,1.14,5.56,5.56,0,0,1-2.54-1.27c-2.15-2-2.83-6-1.18-8.12.89-1.16,2.63-2,3.7-1.51a1,1,0,0,1,.59.58c.13.5-.41.89-1,1.9a4.88,4.88,0,0,0-.89,2.09,3.11,3.11,0,0,0,.66,2.33,2.66,2.66,0,0,0,1.65.86,3.22,3.22,0,0,0,2.59-1.1c1.39-1.57.83-4.27.23-5.69a6.75,6.75,0,0,0-5.65-4.16c-2.87-.05-4.6,2.55-5.24,2-.37-.32-.07-1.39,2.34-6.37,2.67-5.52,3.34-6.33,3.81-6.21.83.22-.06,2.87,1.59,5.31a6.68,6.68,0,0,0,6.41,2.81,5.3,5.3,0,0,0,3.54-2.21,3.63,3.63,0,0,0,.68-2.68,2.84,2.84,0,0,0-1.06-1.8,2.56,2.56,0,0,0-1.81-.47,3.32,3.32,0,0,0-2.66,2.53,2.68,2.68,0,0,1-.33,1.16c-.05.07-.44.67-.87.64-.62,0-1.11-1.39-1.21-2.41a5.4,5.4,0,0,1,1.15-3.66A5.46,5.46,0,0,1,445.66,344.09Z"/><path class="cls-5" d="M424.14,386.12a5.7,5.7,0,0,1,3.52,2.48,6.52,6.52,0,0,1,1.25,4.79A6.27,6.27,0,0,1,427.7,396c-1,1.3-1.65,1.18-2.55,2.53-.33.49-1.15,1.71-.78,2.76a1.78,1.78,0,0,0,1.13,1.14c3.19.24,5.56,5.93,5,6.85s-7,.09-7.92-3a1.77,1.77,0,0,0-1.19-.89c-1.13-.25-2.25.91-2.4,1.08-1.14,1.21-.72,2.23-1.88,3.57a5.06,5.06,0,0,1-1.63,1.22A6.39,6.39,0,0,1,410,411a5.83,5.83,0,0,1-2.19-1.85c-1.67-2.42-1.46-6.49.61-8.19,1.12-.92,3-1.33,3.93-.59a1.07,1.07,0,0,1,.45.71c0,.52-.59.77-1.42,1.6a4.75,4.75,0,0,0-1.33,1.83,3.19,3.19,0,0,0,.14,2.42,2.68,2.68,0,0,0,1.42,1.23,3.19,3.19,0,0,0,2.77-.45c1.68-1.19,1.73-3.95,1.45-5.48a6.93,6.93,0,0,0-4.59-5.4c-2.78-.74-5,1.37-5.54.66-.28-.4.24-1.37,3.67-5.64,3.81-4.73,4.63-5.37,5.06-5.13.76.41-.68,2.78.4,5.55a6.81,6.81,0,0,0,5.63,4.26,5.18,5.18,0,0,0,3.93-1.29,3.69,3.69,0,0,0,1.24-2.46,2.91,2.91,0,0,0-.65-2,2.56,2.56,0,0,0-1.66-.89,3.21,3.21,0,0,0-3.13,1.82,2.59,2.59,0,0,1-.58,1.05c-.06.06-.57.55-1,.42-.6-.18-.78-1.62-.66-2.63a5.25,5.25,0,0,1,1.92-3.29A5.3,5.3,0,0,1,424.14,386.12Z"/><path class="cls-5" d="M393.43,417.7a5.72,5.72,0,0,1,2.84,3.28,6.55,6.55,0,0,1,.11,5,6.05,6.05,0,0,1-1.77,2.2c-1.26,1-1.87.75-3.06,1.83-.43.39-1.51,1.38-1.39,2.49a1.79,1.79,0,0,0,.84,1.38c3,1,4,7.15,3.22,7.89s-6.8-1.66-7-4.9a1.87,1.87,0,0,0-.95-1.17c-1.05-.52-2.39.33-2.58.45-1.38.9-1.22,2-2.65,3a4.82,4.82,0,0,1-1.86.78,6.42,6.42,0,0,1-5.25-1.53,5.82,5.82,0,0,1-1.7-2.34c-1.06-2.76.08-6.66,2.48-7.8,1.3-.61,3.22-.54,3.95.41a1.09,1.09,0,0,1,.27.81c-.1.5-.75.6-1.74,1.2a4.54,4.54,0,0,0-1.71,1.44,3.12,3.12,0,0,0-.43,2.38,2.82,2.82,0,0,0,1.09,1.55,3.19,3.19,0,0,0,2.79.26c1.92-.75,2.6-3.41,2.68-5a7.07,7.07,0,0,0-3.21-6.38c-2.53-1.41-5.2.07-5.52-.74-.18-.47.55-1.28,4.86-4.57,4.78-3.65,5.73-4.06,6.09-3.72.65.59-1.3,2.53-.89,5.49a7,7,0,0,0,4.48,5.54,5.15,5.15,0,0,0,4.11-.27,3.58,3.58,0,0,0,1.77-2.08,3,3,0,0,0-.16-2.11,2.66,2.66,0,0,0-1.41-1.27,3.16,3.16,0,0,0-3.46,1,2.34,2.34,0,0,1-.81.88c-.07,0-.67.39-1.05.16-.54-.33-.38-1.76,0-2.72a5.21,5.21,0,0,1,2.61-2.72A5.29,5.29,0,0,1,393.43,417.7Z"/><path class="cls-5" d="M352.6,438.18a6.09,6.09,0,0,1,1.75,4.05A6.57,6.57,0,0,1,353,447a5.79,5.79,0,0,1-2.33,1.52c-1.49.56-2,.09-3.44.74-.52.23-1.83.82-2.05,1.91a1.94,1.94,0,0,0,.39,1.6c2.59,2,1.73,8.11.76,8.56s-6-3.8-5.2-6.95a1.91,1.91,0,0,0-.57-1.42,2.94,2.94,0,0,0-2.58-.42c-1.57.4-1.73,1.5-3.39,2a4.71,4.71,0,0,1-2,.13,6.64,6.64,0,0,1-4.54-3.16,6.23,6.23,0,0,1-.93-2.78c-.19-3,2-6.32,4.64-6.62,1.41-.16,3.22.54,3.64,1.68a1.14,1.14,0,0,1,0,.85c-.24.46-.89.33-2,.58a4.31,4.31,0,0,0-2.05.81,3,3,0,0,0-1.1,2.13,2.9,2.9,0,0,0,.58,1.83,3.25,3.25,0,0,0,2.58,1.16c2-.08,3.46-2.4,4-3.85a7.3,7.3,0,0,0-1.18-7.13c-2-2.17-5-1.63-5-2.51,0-.5.89-1,6-2.76,5.61-1.91,6.62-2,6.87-1.55.45.77-2,2-2.45,4.93a7.33,7.33,0,0,0,2.63,6.75,5.2,5.2,0,0,0,4,1.07,3.38,3.38,0,0,0,2.29-1.39,2.89,2.89,0,0,0,.46-2.06,2.75,2.75,0,0,0-1-1.67,3.13,3.13,0,0,0-3.58-.2,2.4,2.4,0,0,1-1,.58c-.08,0-.76.14-1.05-.19-.41-.5.15-1.81.78-2.61a4.91,4.91,0,0,1,3.27-1.73A5.33,5.33,0,0,1,352.6,438.18Z"/><path class="cls-5" d="M307,448a6.11,6.11,0,0,1,.63,4.39,6.34,6.34,0,0,1-2.53,4.2,5.72,5.72,0,0,1-2.63.8c-1.58.11-1.95-.48-3.51-.27-.55.07-2,.26-2.46,1.25a2,2,0,0,0,0,1.65c2,2.63-.44,8.3-1.49,8.45s-4.76-5.36-3.21-8.17a1.88,1.88,0,0,0-.17-1.52,3,3,0,0,0-2.37-1.14c-1.62-.07-2.06.95-3.78.94a4.83,4.83,0,0,1-2-.44,6.9,6.9,0,0,1-3.55-4.34,6.25,6.25,0,0,1-.17-2.94c.58-2.93,3.58-5.51,6.17-5,1.4.25,3,1.43,3.07,2.65a1.08,1.08,0,0,1-.2.82c-.35.37-.94.07-2.09,0a4.32,4.32,0,0,0-2.18.2,2.94,2.94,0,0,0-1.61,1.74,3,3,0,0,0,.09,1.93,3.33,3.33,0,0,0,2.18,1.84c2,.51,4-1.31,4.84-2.56a7.31,7.31,0,0,0,.71-7.2c-1.35-2.65-4.36-3-4.19-3.85.09-.49,1.12-.74,6.44-1,5.9-.24,6.9,0,7,.46.23.87-2.41,1.35-3.64,4.05a7.42,7.42,0,0,0,.79,7.24,5.41,5.41,0,0,0,3.56,2.18,3.31,3.31,0,0,0,2.56-.69,2.81,2.81,0,0,0,1-1.85,2.92,2.92,0,0,0-.49-1.89,3.19,3.19,0,0,0-3.4-1.21,2.24,2.24,0,0,1-1.13.27c-.08,0-.76-.08-.95-.49-.28-.59.61-1.69,1.41-2.28a4.85,4.85,0,0,1,3.61-.73A5.5,5.5,0,0,1,307,448Z"/><ellipse class="cls-5" cx="448.69" cy="243.89" rx="2.46" ry="2.58"/><ellipse class="cls-5" cx="456.06" cy="291.39" rx="2.46" ry="2.58"/><ellipse class="cls-5" cx="451.15" cy="337.88" rx="2.46" ry="2.58"/><ellipse class="cls-5" cx="430.6" cy="378.77" rx="2.46" ry="2.58"/><ellipse class="cls-5" cx="399.29" cy="414.86" rx="2.46" ry="2.58"/><ellipse class="cls-5" cx="360.93" cy="440.36" rx="2.46" ry="2.58"/><ellipse class="cls-5" cx="317.46" cy="450.71" rx="2.46" ry="2.58"/><path class="cls-5" d="M192.77,181.06a5.77,5.77,0,0,0-2.7-3.35,5.43,5.43,0,0,0-4.54-.69,5.64,5.64,0,0,0-2.21,1.59c-1.08,1.19-.89,1.86-2,3-.4.39-1.42,1.41-2.43,1.15a1.73,1.73,0,0,1-1.18-1c-.61-3.29-6.12-5-6.88-4.28s.78,7.28,3.73,7.85a1.84,1.84,0,0,1,1,1.13,3.4,3.4,0,0,1-.69,2.64c-1,1.33-2,1-3,2.41a5.34,5.34,0,0,0-.91,1.85,7.4,7.4,0,0,0,.83,5.65,5.72,5.72,0,0,0,2,2c2.42,1.43,6.12.7,7.42-1.68.7-1.28.84-3.29,0-4.16a.91.91,0,0,0-.7-.38c-.48.05-.64.71-1.29,1.69a4.69,4.69,0,0,1-1.51,1.61,2.61,2.61,0,0,1-2.24.16,2.74,2.74,0,0,1-1.3-1.32,3.76,3.76,0,0,1,.07-2.94c.89-1.9,3.41-2.3,4.84-2.2a6.48,6.48,0,0,1,5.51,4.09c1,2.8-.63,5.41.08,5.84.41.24,1.23-.42,4.72-4.54,3.86-4.56,4.34-5.49,4.07-5.91-.47-.75-2.46,1.06-5.13.29a6.94,6.94,0,0,1-4.6-5.32,6.05,6.05,0,0,1,.7-4.25,3.34,3.34,0,0,1,2.09-1.61,2.45,2.45,0,0,1,1.92.42,2.85,2.85,0,0,1,1,1.61,3.57,3.57,0,0,1-1.28,3.5,2.37,2.37,0,0,0-.9.73c0,.07-.42.67-.26,1.08.25.6,1.58.61,2.5.34a4.91,4.91,0,0,0,2.77-2.41A6.16,6.16,0,0,0,192.77,181.06Z"/><path class="cls-5" d="M227.48,155.5a6,6,0,0,0-2-3.9,5.58,5.58,0,0,0-4.29-1.73,5.46,5.46,0,0,0-2.48,1c-1.29.92-1.24,1.62-2.56,2.44-.47.3-1.67,1-2.61.57a1.81,1.81,0,0,1-.94-1.29c.06-3.35-5-6.33-5.86-5.78s-.7,7.29,2.07,8.54a1.86,1.86,0,0,1,.72,1.32,3.31,3.31,0,0,1-1.2,2.42c-1.22,1.08-2.12.55-3.45,1.64a5.37,5.37,0,0,0-1.27,1.6,7.53,7.53,0,0,0-.33,5.71,6.1,6.1,0,0,0,1.51,2.46c2.08,1.95,5.84,2.1,7.58.09.94-1.09,1.49-3,.89-4.06-.06-.11-.28-.48-.61-.53s-.76.54-1.6,1.34a4.35,4.35,0,0,1-1.8,1.22,2.57,2.57,0,0,1-2.21-.36,2.86,2.86,0,0,1-1-1.59,3.69,3.69,0,0,1,.66-2.85c1.25-1.66,3.79-1.46,5.17-1a6.82,6.82,0,0,1,4.56,5.28c.43,3-1.71,5.14-1.1,5.73.35.33,1.28-.13,5.51-3.34,4.69-3.55,5.34-4.36,5.17-4.83-.31-.83-2.62.46-5.07-.91a7.21,7.21,0,0,1-3.42-6.26,5.91,5.91,0,0,1,1.54-4,3.21,3.21,0,0,1,2.36-1.09,2.55,2.55,0,0,1,1.79.86,3,3,0,0,1,.67,1.81,3.45,3.45,0,0,1-1.95,3.12,2.16,2.16,0,0,0-1,.51c-.06.06-.55.55-.47,1,.12.64,1.42,1,2.36.92a4.78,4.78,0,0,0,3.2-1.71A6.07,6.07,0,0,0,227.48,155.5Z"/><path class="cls-5" d="M266.5,141.72a6.37,6.37,0,0,0-1-4.34,6.08,6.08,0,0,0-3.73-3,5.26,5.26,0,0,0-2.65.24c-1.46.49-1.58,1.18-3.06,1.56-.52.14-1.86.5-2.65-.25a1.91,1.91,0,0,1-.6-1.52c.86-3.19-3.28-7.58-4.28-7.33s-2.42,6.79,0,8.82a2,2,0,0,1,.38,1.49c-.17,1.2-1.55,1.86-1.74,2-1.44.66-2.18-.12-3.73.52a4.77,4.77,0,0,0-1.61,1.15,7.17,7.17,0,0,0-1.68,5.38,6.33,6.33,0,0,0,.86,2.81c1.54,2.51,5.14,3.79,7.31,2.39,1.17-.76,2.16-2.44,1.83-3.62a1.05,1.05,0,0,0-.47-.7c-.44-.21-.86.3-1.86.81a4,4,0,0,1-2,.62,2.66,2.66,0,0,1-2.05-1,2.93,2.93,0,0,1-.59-1.83,3.35,3.35,0,0,1,1.32-2.53c1.6-1.21,4-.25,5.24.58a7.34,7.34,0,0,1,3.14,6.45c-.3,3-2.89,4.41-2.44,5.16.26.42,1.27.27,6.13-1.52,5.39-2,6.21-2.56,6.16-3.06-.1-.9-2.65-.36-4.68-2.42a7.61,7.61,0,0,1-1.81-7.05,5.46,5.46,0,0,1,2.44-3.36,3.13,3.13,0,0,1,2.55-.32,2.8,2.8,0,0,1,1.52,1.37,2.92,2.92,0,0,1,.21,1.94,3.16,3.16,0,0,1-2.63,2.4,2.14,2.14,0,0,0-1.11.17c-.07,0-.66.36-.69.81,0,.66,1.14,1.35,2.07,1.6a4.51,4.51,0,0,0,3.49-.67A5.55,5.55,0,0,0,266.5,141.72Z"/><ellipse class="cls-5" cx="167.06" cy="206.91" rx="2.38" ry="2.58"/><ellipse class="cls-5" cx="198.18" cy="174.78" rx="2.38" ry="2.58"/><ellipse class="cls-5" cx="233.8" cy="151.11" rx="2.38" ry="2.58"/><ellipse class="cls-5" cx="274.09" cy="138.42" rx="2.38" ry="2.58"/><path class="cls-5" d="M164.6,215.79a5.54,5.54,0,0,0-3.3-2.66,5.42,5.42,0,0,0-4.57.37,5.83,5.83,0,0,0-1.85,2.06c-.82,1.41-.5,2-1.38,3.37-.32.48-1.12,1.7-2.15,1.69a1.65,1.65,0,0,1-1.36-.74c-1.24-3.07-7-3.51-7.56-2.61s2.19,6.94,5.18,6.82a1.69,1.69,0,0,1,1.17.88,3.44,3.44,0,0,1-.16,2.74c-.69,1.53-1.71,1.46-2.5,3a5.85,5.85,0,0,0-.53,2,7.21,7.21,0,0,0,1.92,5.33,5.43,5.43,0,0,0,2.31,1.55c2.65.84,6.12-.72,6.93-3.34.43-1.42.18-3.41-.76-4.09a.94.94,0,0,0-.77-.2c-.46.15-.48.84-.93,1.94a4.72,4.72,0,0,1-1.16,1.92,2.61,2.61,0,0,1-2.15.67,2.55,2.55,0,0,1-1.53-1,3.75,3.75,0,0,1-.51-2.89c.5-2.06,2.88-3,4.3-3.26a6.27,6.27,0,0,1,6.19,2.73c1.54,2.5.44,5.44,1.22,5.69.44.15,1.11-.69,3.72-5.51,2.88-5.34,3.17-6.37,2.83-6.72-.61-.62-2.21,1.6-5,1.46a6.6,6.6,0,0,1-5.54-4.14,6.05,6.05,0,0,1-.15-4.32,3.51,3.51,0,0,1,1.74-2.05,2.46,2.46,0,0,1,2,0,2.7,2.7,0,0,1,1.31,1.35,3.63,3.63,0,0,1-.57,3.71,2.4,2.4,0,0,0-.73.92c0,.08-.29.75,0,1.11.35.53,1.66.23,2.5-.23a5.2,5.2,0,0,0,2.24-3A6.17,6.17,0,0,0,164.6,215.79Z"/><path class="cls-5" d="M148.62,253.31a5.14,5.14,0,0,0-4-1.09,5.64,5.64,0,0,0-4.1,2.23,6.36,6.36,0,0,0-1,2.66c-.26,1.65.25,2.09-.09,3.69-.12.58-.43,2-1.39,2.45a1.58,1.58,0,0,1-1.51-.12c-2.23-2.33-7.68-.37-7.92.71s4.47,5.51,7.2,4.16a1.6,1.6,0,0,1,1.39.34,3.35,3.35,0,0,1,.81,2.59c-.09,1.7-1.07,2.06-1.23,3.85a5.5,5.5,0,0,0,.22,2.09,6.68,6.68,0,0,0,3.65,4.14,5,5,0,0,0,2.68.47c2.74-.31,5.4-3.19,5.23-6-.1-1.48-1-3.23-2.14-3.46a.91.91,0,0,0-.78.13c-.37.33-.15,1-.18,2.18a4.93,4.93,0,0,1-.4,2.25,2.8,2.8,0,0,1-1.75,1.51,2.41,2.41,0,0,1-1.76-.28,3.56,3.56,0,0,1-1.49-2.46c-.27-2.12,1.59-4,2.83-4.8a6.07,6.07,0,0,1,6.68,0c2.31,1.68,2.32,4.85,3.13,4.76.46-.05.79-1.1,1.5-6.63.78-6.13.68-7.2.25-7.38-.78-.32-1.47,2.39-4.07,3.4a6.23,6.23,0,0,1-6.58-1.54,5.83,5.83,0,0,1-1.65-3.93,3.77,3.77,0,0,1,.87-2.61,2.55,2.55,0,0,1,1.8-.84,2.47,2.47,0,0,1,1.68.7,3.65,3.65,0,0,1,.79,3.67,2.52,2.52,0,0,0-.35,1.15c0,.08,0,.81.35,1.05s1.62-.48,2.23-1.26a5.55,5.55,0,0,0,1-3.69A6,6,0,0,0,148.62,253.31Z"/><path class="cls-5" d="M143,301.65a5.08,5.08,0,0,0-4.1.25,5.88,5.88,0,0,0-3.25,3.45,6.52,6.52,0,0,0-.16,2.86c.23,1.65.85,1.9,1,3.54.05.59.18,2.08-.61,2.79a1.61,1.61,0,0,1-1.48.37c-2.79-1.5-7.4,2.13-7.31,3.23s5.84,3.82,8,1.65a1.56,1.56,0,0,1,1.41-.13c1.07.39,1.48,2,1.53,2.21.4,1.65-.42,2.3,0,4.07a5.49,5.49,0,0,0,.81,1.92,6.42,6.42,0,0,0,4.67,2.77,5.17,5.17,0,0,0,2.69-.42c2.51-1.19,4.21-4.79,3.24-7.36-.52-1.39-1.92-2.75-3-2.61a.93.93,0,0,0-.7.37c-.26.44.14,1,.46,2.14a5.14,5.14,0,0,1,.28,2.28,3,3,0,0,1-1.23,2,2.43,2.43,0,0,1-1.76.3,3.38,3.38,0,0,1-2.12-1.87c-.87-1.93.35-4.32,1.29-5.48a6.11,6.11,0,0,1,6.34-2.19c2.68.86,3.61,3.88,4.36,3.53.42-.2.43-1.31-.51-6.81-1-6.1-1.43-7.08-1.9-7.11-.83-.06-.71,2.75-2.88,4.55a6.17,6.17,0,0,1-6.7.66,5.58,5.58,0,0,1-2.71-3.22,3.8,3.8,0,0,1,.07-2.77,2.67,2.67,0,0,1,1.47-1.38,2.37,2.37,0,0,1,1.8.13,3.53,3.53,0,0,1,1.81,3.24,2.58,2.58,0,0,0,0,1.21c0,.08.23.77.64.88.59.17,1.4-1,1.76-1.91a5.93,5.93,0,0,0-3.16-7.14Z"/><path class="cls-5" d="M151.43,344.93a5.28,5.28,0,0,0-3.85,1.56,6.48,6.48,0,0,0-2.19,4.37,6.7,6.7,0,0,0,.6,2.8c.66,1.51,1.31,1.55,1.87,3.08.21.55.72,1.94.15,2.87a1.68,1.68,0,0,1-1.3.84c-3.06-.54-6.5,4.44-6.12,5.48s6.57,1.76,8.1-1a1.65,1.65,0,0,1,1.31-.58c1.13,0,1.93,1.42,2,1.62.82,1.45.21,2.35,1,3.92a5.25,5.25,0,0,0,1.28,1.58,6,6,0,0,0,5.18,1.14A5.33,5.33,0,0,0,162,371.3c2.08-2,2.74-6,1.14-8.12-.86-1.16-2.55-2-3.58-1.51a1,1,0,0,0-.57.58c-.13.5.39.89,1,1.9a5.1,5.1,0,0,1,.87,2.09,3.18,3.18,0,0,1-.65,2.33,2.51,2.51,0,0,1-1.59.86,3.09,3.09,0,0,1-2.52-1.11c-1.34-1.56-.8-4.26-.21-5.68a6.55,6.55,0,0,1,5.47-4.16c2.78-.05,4.46,2.55,5.08,2,.35-.32.06-1.39-2.27-6.37-2.59-5.52-3.23-6.33-3.69-6.21-.81.22,0,2.87-1.55,5.31a6.35,6.35,0,0,1-6.21,2.8,5.1,5.1,0,0,1-3.43-2.2,3.84,3.84,0,0,1-.66-2.68,2.93,2.93,0,0,1,1-1.8,2.41,2.41,0,0,1,1.75-.47,3.27,3.27,0,0,1,2.58,2.53,2.52,2.52,0,0,0,.32,1.16c0,.07.42.67.84.64.6,0,1.08-1.39,1.17-2.41a5.55,5.55,0,0,0-1.11-3.66A5.29,5.29,0,0,0,151.43,344.93Z"/><path class="cls-5" d="M172.45,384.18a5.51,5.51,0,0,0-3.41,2.48,6.61,6.61,0,0,0-1.21,4.79A6.28,6.28,0,0,0,169,394c1,1.31,1.6,1.19,2.47,2.54.32.49,1.11,1.71.75,2.76a1.75,1.75,0,0,1-1.09,1.14c-3.09.23-5.39,5.93-4.8,6.85s6.77.08,7.67-3a1.72,1.72,0,0,1,1.15-.89c1.1-.25,2.18.91,2.33,1.08,1.1,1.21.7,2.23,1.82,3.56a4.83,4.83,0,0,0,1.58,1.23,6,6,0,0,0,5.28-.18,5.55,5.55,0,0,0,2.12-1.84c1.62-2.42,1.42-6.49-.59-8.19-1.08-.92-2.91-1.33-3.81-.59a1,1,0,0,0-.43.71c0,.52.57.77,1.37,1.6a4.75,4.75,0,0,1,1.29,1.83A3.24,3.24,0,0,1,186,405a2.65,2.65,0,0,1-1.37,1.23,3,3,0,0,1-2.68-.45c-1.64-1.2-1.68-3.95-1.41-5.48a6.85,6.85,0,0,1,4.45-5.4c2.69-.74,4.88,1.37,5.36.66.28-.4-.23-1.37-3.55-5.64-3.69-4.73-4.48-5.37-4.9-5.14-.74.41.66,2.79-.39,5.56a6.65,6.65,0,0,1-5.45,4.26,4.91,4.91,0,0,1-3.81-1.29,3.69,3.69,0,0,1-1.21-2.46,3,3,0,0,1,.63-2,2.46,2.46,0,0,1,1.61-.89,3.11,3.11,0,0,1,3,1.82,2.52,2.52,0,0,0,.56,1.05c.05.06.55.55,1,.42.58-.19.76-1.62.63-2.64a5.26,5.26,0,0,0-1.85-3.28A5.06,5.06,0,0,0,172.45,384.18Z"/><path class="cls-5" d="M203.62,416.53a5.75,5.75,0,0,0-2.76,3.26,6.78,6.78,0,0,0-.11,5,5.92,5.92,0,0,0,1.71,2.21c1.21,1,1.81.75,3,1.85.41.39,1.46,1.38,1.34,2.49a1.8,1.8,0,0,1-.81,1.38c-2.95,1-3.91,7.12-3.14,7.87s6.59-1.62,6.78-4.86a1.76,1.76,0,0,1,.92-1.16c1-.52,2.32.34,2.5.46,1.33.91,1.17,2,2.56,3a4.65,4.65,0,0,0,1.8.79,6.08,6.08,0,0,0,5.09-1.5,5.77,5.77,0,0,0,1.65-2.33c1-2.75-.06-6.66-2.39-7.81-1.26-.62-3.12-.56-3.83.39a1.05,1.05,0,0,0-.26.8c.09.51.72.6,1.69,1.21A4.54,4.54,0,0,1,221,431a3.18,3.18,0,0,1,.41,2.39,2.82,2.82,0,0,1-1.06,1.54,3,3,0,0,1-2.71.24c-1.85-.76-2.5-3.42-2.58-5a7.12,7.12,0,0,1,3.12-6.37c2.46-1.39,5,.11,5.36-.7.17-.47-.53-1.28-4.71-4.6-4.62-3.67-5.54-4.09-5.89-3.76-.63.59,1.25,2.54.85,5.5a6.89,6.89,0,0,1-4.35,5.51,4.85,4.85,0,0,1-4-.3,3.51,3.51,0,0,1-1.71-2.08,3,3,0,0,1,.16-2.11,2.63,2.63,0,0,1,1.36-1.27,3,3,0,0,1,3.36,1,2.28,2.28,0,0,0,.77.88c.07.05.66.39,1,.17.53-.33.38-1.76,0-2.72a5,5,0,0,0-2.53-2.73A5,5,0,0,0,203.62,416.53Z"/><path class="cls-5" d="M240.2,438.18a6.21,6.21,0,0,0-1.69,4.05,6.68,6.68,0,0,0,1.31,4.76,5.53,5.53,0,0,0,2.25,1.52c1.45.56,1.94.09,3.34.74.5.23,1.77.82,2,1.91a1.94,1.94,0,0,1-.38,1.6c-2.51,2-1.68,8.11-.73,8.56s5.79-3.8,5-6.95a1.91,1.91,0,0,1,.55-1.42,2.78,2.78,0,0,1,2.5-.42c1.52.4,1.68,1.5,3.28,2a4.44,4.44,0,0,0,1.94.13,6.48,6.48,0,0,0,4.4-3.16,6.41,6.41,0,0,0,.9-2.78c.19-3-2-6.32-4.5-6.62-1.36-.16-3.11.54-3.52,1.68a1.14,1.14,0,0,0,0,.85c.24.46.86.33,1.95.58a4.1,4.1,0,0,1,2,.81,3,3,0,0,1,1.07,2.13,3,3,0,0,1-.57,1.83,3.07,3.07,0,0,1-2.5,1.16c-2-.08-3.35-2.4-3.86-3.85a7.47,7.47,0,0,1,1.14-7.13c1.93-2.17,4.81-1.63,4.88-2.51,0-.5-.87-1-5.77-2.76-5.44-1.91-6.42-2-6.67-1.55-.43.77,1.92,2,2.38,4.93a7.44,7.44,0,0,1-2.55,6.75,4.93,4.93,0,0,1-3.86,1.07,3.26,3.26,0,0,1-2.22-1.39,3,3,0,0,1-.45-2.06,2.76,2.76,0,0,1,.94-1.67,2.94,2.94,0,0,1,3.46-.2,2.28,2.28,0,0,0,1,.58c.08,0,.73.14,1-.19.41-.5-.14-1.81-.75-2.61a4.73,4.73,0,0,0-3.17-1.73A5.05,5.05,0,0,0,240.2,438.18Z"/><ellipse class="cls-5" cx="148.52" cy="246.03" rx="2.38" ry="2.58"/><ellipse class="cls-5" cx="141.73" cy="291.08" rx="2.38" ry="2.58"/><ellipse class="cls-5" cx="147.1" cy="338.12" rx="2.38" ry="2.58"/><ellipse class="cls-5" cx="166.24" cy="378.42" rx="2.38" ry="2.58"/><ellipse class="cls-5" cx="195.01" cy="413.05" rx="2.38" ry="2.58"/><ellipse class="cls-5" cx="231.49" cy="437.48" rx="2.38" ry="2.58"/><ellipse class="cls-5" cx="272.29" cy="448.13" rx="2.38" ry="2.58"/><path class="cls-6" d="M378.35,209.47a14.67,14.67,0,1,1-14.7,14.66A14.65,14.65,0,0,1,378.35,209.47Z"/><path class="cls-6" d="M208.78,364.11a14.68,14.68,0,1,1,14.66,14.67A14.7,14.7,0,0,1,208.78,364.11Z"/><path class="cls-6" d="M297.54,396.84a14.67,14.67,0,1,1-14.67,14.66A14.66,14.66,0,0,1,297.54,396.84Z"/><path class="cls-6" d="M297.54,161.15a14.67,14.67,0,1,1-14.67,14.66A14.64,14.64,0,0,1,297.54,161.15Z"/><path class="cls-6" d="M376.29,349.41a14.69,14.69,0,1,1-14.67,14.7A14.7,14.7,0,0,1,376.29,349.41Z"/><path class="cls-6" d="M219.12,238.8a14.67,14.67,0,1,1,14.66-14.67A14.67,14.67,0,0,1,219.12,238.8Z"/><path class="cls-6" d="M223.44,349.41a14.69,14.69,0,1,1-14.66,14.7A14.7,14.7,0,0,1,223.44,349.41Z"/><polyline class="cls-6" points="278.21 258.49 278.21 224.13 233.78 224.13 232.89 224.13"/><polyline class="cls-6" points="236.68 364.11 238.14 364.11 278.21 364.11 278.21 322.64"/><path class="cls-6" d="M219.12,209.47a14.67,14.67,0,1,1-14.67,14.66A14.64,14.64,0,0,1,219.12,209.47Z"/><path class="cls-6" d="M376.29,349.41A14.69,14.69,0,1,0,391,364.11,14.68,14.68,0,0,0,376.29,349.41Z"/><polyline class="cls-6" points="319.25 258.25 319.25 224.13 363.65 224.13 364.58 224.13"/><polyline class="cls-6" points="360.79 364.11 319.25 364.11 319.25 322.64"/><path class="cls-6" d="M378.35,209.47A14.67,14.67,0,1,0,393,224.13,14.67,14.67,0,0,0,378.35,209.47Z"/><polyline class="cls-6" points="297.54 322.64 297.54 396.84 297.54 397.87"/><polyline class="cls-6" points="297.54 189.94 297.54 190.48 297.54 258.06"/><path class="cls-6" d="M297.54,161.15a14.67,14.67,0,1,1-14.67,14.66A14.64,14.64,0,0,1,297.54,161.15Z"/><path class="cls-6" d="M297.54,396.84a14.67,14.67,0,1,1-14.67,14.66A14.66,14.66,0,0,1,297.54,396.84Z"/><line class="cls-6" x1="170.56" y1="258.62" x2="424.51" y2="258.62"/><line class="cls-6" x1="170.56" y1="322.54" x2="424.51" y2="322.54"/><polygon class="cls-6" points="201.6 277.7 201.6 287.34 218.53 287.34 218.53 294.93 201.6 294.93 201.6 304.27 221.67 304.27 221.67 311.86 193.77 311.86 193.77 270.16 221.67 270.16 221.67 277.7 201.6 277.7"/><path class="cls-6" d="M257.15,277a12,12,0,0,0-5.58-5.09,20.7,20.7,0,0,0-8.91-1.76h-13.8v41.7h13.76a20.2,20.2,0,0,0,9-1.86,12.57,12.57,0,0,0,5.58-5.24,16.19,16.19,0,0,0,1.86-7.88V285.09A16.19,16.19,0,0,0,257.15,277Zm-6.21,20.12a6.57,6.57,0,0,1-2.11,5.28,8.92,8.92,0,0,1-6,1.86h-6.12V277.7h6.12a8.68,8.68,0,0,1,6,1.91,6.53,6.53,0,0,1,2.11,5.23Z"/><path class="cls-6" d="M272.63,310.37a13.26,13.26,0,0,1-5.34-5.39,16.57,16.57,0,0,1-1.9-8.07V285.09a16.54,16.54,0,0,1,1.9-8.07,13.2,13.2,0,0,1,5.34-5.39,17.67,17.67,0,0,1,16,0A13.29,13.29,0,0,1,294,277a16.65,16.65,0,0,1,1.89,8.07v11.82A16.67,16.67,0,0,1,294,305a13.35,13.35,0,0,1-5.35,5.39,17.67,17.67,0,0,1-16,0Zm11.72-6.85a6.21,6.21,0,0,0,2.48-2.57,8.17,8.17,0,0,0,.87-3.84V284.89a8.17,8.17,0,0,0-.87-3.84,6.15,6.15,0,0,0-2.48-2.57,8.18,8.18,0,0,0-7.46,0,6.21,6.21,0,0,0-2.48,2.57,8.17,8.17,0,0,0-.87,3.84v12.22a8.17,8.17,0,0,0,.87,3.84,6.27,6.27,0,0,0,2.48,2.57,8.18,8.18,0,0,0,7.46,0Z"/><path class="cls-6" d="M332.87,295.56a7.76,7.76,0,0,0-3-3.38,10.63,10.63,0,0,0-4.7-1.71,11.79,11.79,0,0,0,4.41-1.61,8.48,8.48,0,0,0,2.79-3.09,8.91,8.91,0,0,0,1-4.3,12,12,0,0,0-1.47-6.12,9.86,9.86,0,0,0-4.36-3.87,16.8,16.8,0,0,0-6.95-1.32h-17v41.7h17.47a16.64,16.64,0,0,0,6.95-1.32,9.7,9.7,0,0,0,4.36-3.92,11.65,11.65,0,0,0,1.51-6.12v-.09A10.8,10.8,0,0,0,332.87,295.56ZM320.34,277.7a5.82,5.82,0,0,1,3.77,1.12,4,4,0,0,1,1.32,3.13,4.51,4.51,0,0,1-1.32,3.48,5.33,5.33,0,0,1-3.77,1.22h-8.91V277.7ZM326,299.33A4.5,4.5,0,0,1,324.5,303a6,6,0,0,1-4.16,1.32h-8.91v-10h8.91a7.15,7.15,0,0,1,3,.59,4.23,4.23,0,0,1,2,1.71,5.11,5.11,0,0,1,.64,2.69Z"/><polygon class="cls-6" points="366.34 270.16 366.34 277.7 354.99 277.7 354.99 311.86 347.11 311.86 347.11 277.7 335.75 277.7 335.75 270.16 366.34 270.16"/><polygon class="cls-6" points="404.03 311.86 394.68 311.86 384.75 294.53 378.77 302.85 378.77 311.86 370.94 311.86 370.94 270.16 378.77 270.16 378.77 290.81 392.38 270.16 402.27 270.16 389.88 287.39 404.03 311.86"/><path class="cls-2" d="M522.21,352l-7.09,1.45c-.91,2.25-1.79,4.5-2.86,6.68-1-2.14-2.12-4.26-3.31-6.37l-7.14-.68,4.86-5c-.59-2.26-1.17-4.49-1.92-6.72l6.64,2.81,5.9-4.06c-.19,2.41-.33,4.85-.58,7.26Z"/><path class="cls-2" d="M509.77,388.33l-7.18.28c-1.28,2.07-2.67,4.07-4,6.09l-2.18-6.82-7-1.86c2-1.31,3.78-2.7,5.63-4.13l-.75-6.92,6,3.84c2.24-.93,4.38-1.95,6.52-3-.5,2.38-1.15,4.71-1.83,7Z"/><path class="cls-2" d="M490.86,179.53l-7.21-1L478.79,184l-1.1-7.15-6.54-3,6.3-3.1c.15-2.35.22-4.7.31-7l5.35,4.81,7-1.86-3,6.63C488.36,175.36,489.65,177.45,490.86,179.53Z"/><path class="cls-2" d="M71.92,351.87l5.53-4.64c-.34-2.4-.46-4.84-.63-7.25,2,1.38,3.88,2.75,5.9,4l6.62-2.8c-.68,2.21-1.26,4.43-1.88,6.7,1.63,1.7,3.15,3.39,4.85,5l-7.18.69L81.89,360c-1-2.21-2.07-4.4-2.91-6.67Z"/><path class="cls-2" d="M85.67,386l5.53-4.64c-.33-2.4-.46-4.83-.62-7.25,2,1.39,3.88,2.76,5.9,4.05l6.61-2.79c-.68,2.21-1.25,4.43-1.87,6.7,1.63,1.7,3.15,3.39,4.85,5l-7.18.69-3.25,6.37c-1-2.22-2.07-4.4-2.9-6.67Z"/><path class="cls-2" d="M65.6,314c2.05-1.25,4.1-2.47,6.23-3.66l.6-7.26,5.19,5,7-1.66c-1,2.07-2.16,4.18-3,6.31l4,5.73-7.16-.51c-1.45,1.87-3,3.8-4.36,5.75-.65-2.34-1.12-4.71-1.69-7.07Z"/><path class="cls-2" d="M65.65,275.66l6.8-2.58L74.13,266l4.38,5.76,7.16-.5-4,5.73c.91,2.13,2,4.24,3,6.32l-7-1.69-5.22,5-.56-7.26C69.79,278.14,67.68,276.91,65.65,275.66Z"/><path class="cls-2" d="M72,237.84l7.09-1.45c.9-2.25,1.79-4.5,2.86-6.68,1,2.14,2.12,4.27,3.31,6.38l7.13.67-4.85,5c.58,2.25,1.17,4.48,1.92,6.71l-6.64-2.8-5.91,4c.2-2.41.33-4.84.59-7.26Z"/><path class="cls-2" d="M84.43,201.55l7.19-.28c1.28-2.06,2.67-4.07,4-6.09L97.78,202l7,1.87c-2,1.3-3.79,2.7-5.64,4.12l.76,6.93-6.05-3.85c-2.23.94-4.37,2-6.51,3,.5-2.38,1.15-4.71,1.83-7Z"/><path class="cls-2" d="M102.67,167.79l7.21,1,4.86-5.41,1.1,7.15,6.54,3-6.3,3.09c-.15,2.35-.23,4.7-.32,7l-5.34-4.8-7,1.86,3-6.63C105.16,172,103.88,169.87,102.67,167.79Z"/><path class="cls-2" d="M509.87,201.72l-4.74,5.51,1.88,7-6.59-3-6.06,3.86.83-7c-1.86-1.41-3.81-2.75-5.69-4.09l6.95-1.86,2.24-6.86,3.93,6.12C505,201.53,507.49,201.59,509.87,201.72Z"/><path class="cls-2" d="M522.29,238l-5.53,4.64c.33,2.4.46,4.83.63,7.25-2-1.39-3.89-2.75-5.9-4l-6.62,2.8c.68-2.22,1.26-4.44,1.88-6.71-1.63-1.69-3.15-3.39-4.85-5l7.17-.69,3.25-6.37c1,2.22,2.07,4.4,2.91,6.68Z"/><path class="cls-2" d="M528.6,275.87c-2.05,1.24-4.09,2.46-6.22,3.65l-.6,7.26-5.2-5-7,1.66c1-2.07,2.15-4.18,3.05-6.3l-4-5.73,7.16.51c1.45-1.88,3-3.81,4.36-5.75.65,2.33,1.12,4.7,1.7,7.07Z"/><path class="cls-2" d="M528.56,314.23l-6.8,2.58-1.68,7.06-4.38-5.76-7.17.5,4.05-5.73c-.91-2.13-2-4.24-3-6.31l7,1.68,5.23-4.95.55,7.25C524.42,311.75,526.53,313,528.56,314.23Z"/></svg>